<svg width="61" height="40" viewBox="0 0 61 40" fill="none" xmlns="http://www.w3.org/2000/svg">
<g clip-path="url(#clip0_413_47086)">
<path d="M10.8059 23.7244C8.30566 23.7244 6.27832 25.7511 6.27832 28.2519C6.27832 28.4447 6.29408 28.6345 6.31833 28.8206C6.59903 31.0523 8.49845 32.7783 10.8053 32.7783C13.1746 32.7783 15.117 30.9571 15.3141 28.6375C15.3244 28.5108 15.3329 28.3817 15.3329 28.2513C15.3335 25.7511 13.3067 23.7244 10.8059 23.7244ZM8.53968 26.5459L9.46241 27.4693C9.39087 27.5923 9.33449 27.7251 9.29811 27.867H7.99708C8.06376 27.3747 8.25231 26.9248 8.53968 26.5459ZM7.99101 28.6509H9.30236C9.33934 28.7903 9.3939 28.9225 9.46666 29.0437L8.5415 29.9683C8.25474 29.5924 8.06194 29.1425 7.99101 28.6509ZM10.4142 31.0644C9.92378 30.9959 9.47817 30.8037 9.10108 30.5194L10.0214 29.5984C10.1426 29.6694 10.2754 29.7215 10.4142 29.7579V31.0644ZM10.4142 26.746C10.2718 26.7836 10.1384 26.8393 10.0141 26.9127L9.09199 25.9906C9.4709 25.7026 9.92075 25.5122 10.4142 25.4437V26.746ZM11.1981 25.4425C11.6916 25.511 12.1421 25.7026 12.5204 25.99L11.5989 26.9121C11.4752 26.8387 11.3406 26.783 11.1987 26.7454L11.1981 25.4425ZM11.1981 31.0632V29.7585C11.3376 29.7215 11.4691 29.67 11.5904 29.5984L12.5113 30.5194C12.1342 30.8037 11.688 30.9947 11.1981 31.0632ZM13.0727 29.9725L12.1445 29.0431C12.2173 28.9213 12.2761 28.7909 12.3131 28.6515H13.6141C13.545 29.1413 13.3601 29.5948 13.0727 29.9725ZM12.3149 27.867C12.2779 27.7251 12.2221 27.5923 12.1506 27.4693L13.0745 26.5459C13.3601 26.9248 13.5486 27.3747 13.6165 27.8676H12.3149V27.867Z" fill="#808080"/>
<path d="M48.3996 23.7244C45.8994 23.7244 43.8721 25.7511 43.8721 28.2519C43.8721 28.4447 43.8878 28.6345 43.9121 28.8206C44.1928 31.0523 46.0922 32.7783 48.3984 32.7783C50.7677 32.7783 52.7102 30.9571 52.9078 28.6375C52.9181 28.5108 52.9266 28.3817 52.9266 28.2513C52.9278 25.7511 50.9005 23.7244 48.3996 23.7244ZM46.1334 26.5459L47.0556 27.4693C46.984 27.5923 46.9276 27.7251 46.8913 27.867H45.5902C45.6575 27.3747 45.8461 26.9248 46.1334 26.5459ZM45.5854 28.6509H46.8967C46.9337 28.7903 46.9883 28.9225 47.061 29.0437L46.1365 29.9683C45.8485 29.5924 45.6551 29.1425 45.5854 28.6509ZM48.008 31.0644C47.5175 30.9959 47.0719 30.8037 46.6948 30.5194L47.6151 29.5984C47.7364 29.6694 47.8692 29.7215 48.008 29.7579V31.0644ZM48.008 26.746C47.8655 26.7836 47.7321 26.8393 47.6079 26.9127L46.6857 25.9906C47.0646 25.7026 47.5139 25.5122 48.008 25.4437V26.746ZM48.7925 25.4425C49.286 25.511 49.7364 25.7026 50.1148 25.99L49.1926 26.9121C49.069 26.8387 48.9344 26.7817 48.7925 26.7454V25.4425ZM48.7925 31.0632V29.7585C48.9319 29.7215 49.0635 29.67 49.1848 29.5984L50.1057 30.5194C49.7286 30.8037 49.2818 30.9947 48.7925 31.0632ZM50.6665 29.9725L49.7383 29.0443C49.811 28.9219 49.8704 28.7921 49.9068 28.6521H51.2078C51.1387 29.1413 50.9544 29.5948 50.6665 29.9725ZM49.9086 27.867C49.8716 27.7251 49.8165 27.5923 49.7443 27.4693L50.6677 26.5459C50.9538 26.9248 51.1418 27.3747 51.2103 27.8676H49.9086V27.867Z" fill="#808080"/>
<path d="M59.2718 18.0306V21.3808C59.2718 21.3808 60.3334 22.1507 60.3328 23.8774C60.3328 26.4661 58.5655 27.407 58.5655 27.407L53.9512 28.2758L53.836 28.2855C53.8366 28.2746 53.8379 28.2649 53.8379 28.2534C53.8379 25.2548 51.3989 22.8164 48.4003 22.8164C45.4017 22.8164 42.9633 25.2554 42.9633 28.2534C42.9633 28.4674 42.9785 28.6917 43.0106 28.9354C43.0197 29.0064 43.0355 29.0755 43.0476 29.1452L16.0592 29.6884H16.0447C16.1326 29.3738 16.1932 29.047 16.2217 28.7105C16.2332 28.5602 16.2435 28.4074 16.2435 28.2534C16.2435 25.2548 13.8051 22.8158 10.8065 22.8158C7.80797 22.8158 5.36958 25.2554 5.36958 28.2534C5.36958 28.4668 5.38474 28.6905 5.41687 28.9354C5.43142 29.05 5.45446 29.1616 5.47568 29.2749C3.62173 29.0627 2.01816 28.7463 1.18516 28.2752C0.367917 26.9457 0.260002 25.0366 0.367917 24.6376C0.475832 24.2387 0.65953 23.476 1.24518 21.904C1.83083 20.3326 12.8303 18.0397 13.9415 18.0154C17.7149 16.4203 24.1322 13.3527 25.5587 12.8586C26.6144 12.4926 27.6759 12.21 28.7291 11.9965C29.1858 11.9039 29.6049 12.259 29.6049 12.725C29.6049 13.0898 29.3439 13.4009 28.9864 13.4734C26.5235 13.9732 23.6445 14.9099 21.712 16.6641C21.712 16.6641 22.6062 17.003 22.4207 18.5132L28.4232 18.3128L31.2695 18.1124V17.0437C31.2695 16.4215 31.7451 15.9025 32.365 15.8483L32.8763 15.8035C33.1733 15.7776 33.4443 15.9736 33.5126 16.2638L33.9478 18.1124L40.4281 18.0122V17.1926C40.4281 16.1933 41.4619 15.5289 42.371 15.9441C42.3994 15.957 42.4196 15.9832 42.4249 16.014L42.7704 18.0122L46.4305 17.7117L48.9338 16.6641L58.3478 16.952C58.8801 17.0351 59.2718 17.4916 59.2718 18.0306Z" fill="#808080"/>
</g>
<defs>
<clipPath id="clip0_413_47086">
<rect width="60" height="40" fill="white" transform="translate(0.333008)"/>
</clipPath>
</defs>
</svg>
