<svg width="61" height="40" viewBox="0 0 61 40" fill="none" xmlns="http://www.w3.org/2000/svg">
<path d="M10.4192 23.8435C7.96106 23.8435 5.96777 25.8616 5.96777 28.3537C5.96777 28.5467 5.98317 28.7351 6.00713 28.9212C6.28259 31.1445 8.15098 32.865 10.4192 32.865C12.7501 32.865 14.659 31.0491 14.8523 28.738C14.8626 28.6103 14.8717 28.4837 14.8717 28.3525C14.8723 25.8622 12.879 23.8435 10.4192 23.8435ZM8.18976 26.654L9.09829 27.5746C9.02757 27.6977 8.97225 27.8295 8.93689 27.9717H7.65651C7.72324 27.4793 7.90973 27.0314 8.18976 26.654ZM7.65252 28.7519H8.94145C8.97795 28.89 9.03156 29.0229 9.10228 29.1431L8.19204 30.0649C7.91144 29.6898 7.72038 29.2408 7.65252 28.7519ZM10.0348 31.1566C9.55284 31.089 9.11426 30.8977 8.74355 30.614L9.64865 29.6968C9.76728 29.7673 9.89846 29.8187 10.0348 29.8546V31.1566ZM10.0348 26.8534C9.89447 26.8892 9.76329 26.9464 9.64124 27.0198L8.73442 26.1003C9.10685 25.8137 9.54942 25.6235 10.0348 25.5553V26.8534ZM10.8058 25.5553C11.2918 25.6235 11.7338 25.8137 12.1062 26.1009L11.1994 27.0198C11.0773 26.9464 10.9461 26.8892 10.8058 26.8534V25.5553ZM10.8058 31.1561V29.8546C10.9427 29.8181 11.0728 29.7667 11.192 29.6956L12.0976 30.614C11.7264 30.896 11.2872 31.0879 10.8058 31.1561ZM12.6503 30.0684L11.7372 29.142C11.8079 29.0212 11.8667 28.8911 11.9032 28.7513H13.1824C13.114 29.2408 12.9309 29.6927 12.6503 30.0684ZM11.9032 27.9705C11.8672 27.8295 11.8125 27.6966 11.7418 27.5735L12.6503 26.6528C12.9314 27.0302 13.1168 27.4787 13.1835 27.9694L11.9032 27.9705Z" fill="#808080"/>
<path d="M47.8957 23.8438C45.4376 23.8438 43.4443 25.8619 43.4443 28.3539C43.4443 28.5469 43.4597 28.7354 43.4837 28.9214C43.7586 31.1447 45.6275 32.8652 47.8952 32.8652C50.2261 32.8652 52.1355 31.0494 52.3283 28.7382C52.3386 28.6105 52.3477 28.484 52.3477 28.3528C52.3488 25.8625 50.3555 23.8438 47.8957 23.8438ZM45.6658 26.6542L46.5749 27.5749C46.5041 27.698 46.4482 27.8297 46.4135 27.9719H45.1331C45.1998 27.4795 45.3857 27.0316 45.6658 26.6542ZM45.1291 28.7521H46.418C46.4545 28.8902 46.5081 29.0232 46.5788 29.1434L45.6686 30.0646C45.3886 29.6901 45.1969 29.241 45.1291 28.7521ZM47.5113 31.1569C47.0294 31.0893 46.5908 30.898 46.2201 30.6142L47.1252 29.697C47.2438 29.7675 47.375 29.819 47.5113 29.8548V31.1569ZM47.5113 26.8536C47.371 26.8894 47.2399 26.9467 47.1184 27.0201L46.211 26.1006C46.5834 25.8139 47.0266 25.6238 47.5113 25.5556V26.8536ZM48.2818 25.5556C48.7678 25.6238 49.2098 25.8139 49.5816 26.1011L48.6748 27.0201C48.5527 26.9467 48.4216 26.8894 48.2818 26.8536V25.5556ZM48.2818 31.1563V29.8548C48.4181 29.8184 48.5488 29.767 48.668 29.6959L49.5736 30.6142C49.2023 30.8962 48.7643 31.0881 48.2818 31.1563ZM50.1263 30.0686L49.2132 29.1422C49.2839 29.0214 49.3426 28.8914 49.3791 28.7515H50.6584C50.5899 29.241 50.408 29.693 50.1263 30.0686ZM49.3803 27.9707C49.3444 27.8297 49.2896 27.6968 49.2189 27.5737L50.1274 26.6531C50.4086 27.0305 50.5939 27.4789 50.6612 27.9696L49.3803 27.9707Z" fill="#808080"/>
<path d="M57.3738 22.4086L56.5183 21.5805L56.52 18.9677C56.5206 18.2817 56.2702 17.6205 55.8168 17.1119L52.6543 13.5629V13.5611C52.6389 12.8237 52.1165 12.2007 51.4013 12.0649C47.6412 11.3488 35.9746 9.49769 26.7404 12.0117C21.0355 13.5646 15.2353 16.6906 15.2353 16.6906C15.2353 16.6906 5.1633 17.991 2.74968 21.1788C1.90902 22.2884 1.55656 23.746 1.42881 25.059C1.2503 26.894 2.44114 28.5694 4.21542 28.9745L5.14676 29.1872C5.13878 29.1358 5.1268 29.0855 5.12053 29.0323C5.08973 28.7919 5.07433 28.5676 5.07433 28.3521C5.07433 25.3648 7.47312 22.9346 10.4211 22.9346C13.3697 22.9346 15.7685 25.3648 15.7685 28.3521C15.7685 28.5087 15.7582 28.6601 15.7457 28.8133C15.7303 28.9976 15.7046 29.1791 15.671 29.3571L42.6605 29.4126C42.636 29.2866 42.6115 29.1612 42.5955 29.0323C42.5647 28.7919 42.5493 28.5676 42.5493 28.3521C42.5493 25.3648 44.9481 22.9346 47.8961 22.9346C50.8447 22.9346 53.2435 25.3648 53.2435 28.3521C53.2435 28.5087 53.2332 28.6601 53.2207 28.8133C53.2036 29.0242 53.1693 29.2311 53.1283 29.434L53.4967 29.4345L55.032 28.5821C56.6335 27.6938 57.6567 26.0172 57.7257 24.169L57.7565 23.3605C57.769 23.0033 57.6304 22.6577 57.3738 22.4086ZM20.541 17.0582L20.9539 15.3862C20.9539 15.3862 27.2053 12.0724 37.6679 12.433V17.3737L20.9111 18.7134C20.9111 18.7134 21.0012 17.6534 20.541 17.0582ZM47.3908 16.597L39.5117 17.2269V12.537C42.1027 12.7277 44.9184 13.1421 47.9406 13.8819C48.2463 13.9564 48.4915 14.1864 48.589 14.4893C48.6871 14.7921 48.6233 15.125 48.4197 15.3677L47.3908 16.597Z" fill="#808080"/>
</svg>
