<svg width="60" height="40" viewBox="0 0 60 40" fill="none" xmlns="http://www.w3.org/2000/svg">
<g clip-path="url(#clip0_413_47132)">
<path d="M59.9856 26.3921C59.9814 26.1462 59.7959 25.9421 59.5513 25.9137L58.7503 25.8231L58.7346 25.0057L59.1218 24.6493C59.335 24.4518 59.454 24.1733 59.4486 23.8828L59.4003 21.3342C59.3912 20.8503 59.0414 20.4407 58.5654 20.3549C58.5654 20.3549 58.119 10.4698 56.0561 8.6443C53.7908 6.63816 15.7315 6.40982 7.4943 8.14714C6.81954 8.2891 6.2064 8.64007 5.74368 9.15112C4.02568 11.0479 2.28594 14.8935 2.28594 14.8935C2.28594 14.8935 1.24874 15.1816 0.834946 16.6598C0.686947 17.1896 0.669428 18.5337 0.710506 20.0988L0.657347 20.1C0.287047 20.1079 -0.00653425 20.4129 0.000110607 20.782L0.0285023 22.262C0.0315226 22.4396 0.10522 22.6075 0.233285 22.7314C0.361349 22.854 0.532907 22.9205 0.710506 22.9186L0.828905 22.9168C0.872399 23.7191 0.921329 24.4941 0.967239 25.1713C1.05543 26.4755 2.14096 27.4879 3.44879 27.4873L7.59699 27.4849L9.14343 24.0392C9.43097 23.3989 10.0622 22.9821 10.7636 22.9694L14.3681 22.9005C15.035 22.8878 15.6554 23.243 15.9828 23.8248L18.0403 27.4794L41.5957 27.4661L43.478 23.8743C43.7981 23.2624 44.4318 22.88 45.1223 22.8806L48.5583 22.8848C49.2379 22.8854 49.8631 23.2581 50.1863 23.8562L53.1064 29.2554L56.6928 29.2107C57.3349 29.198 57.9076 28.7993 58.1426 28.2025L59.6812 27.6347C59.8769 27.5622 60.0055 27.3743 60.0007 27.1671L59.9856 26.3921ZM6.01733 14.9925C5.6881 14.9992 5.37821 14.8367 5.19518 14.563C5.01214 14.2894 4.98194 13.9408 5.11423 13.6394L6.60026 10.2524C6.73678 9.94065 7.04124 9.73768 7.38073 9.73164L7.92138 9.72137L7.97152 14.9551L6.01733 14.9925ZM16.9699 14.0115C16.9342 14.4513 16.5718 14.792 16.1308 14.8005L8.40827 14.9472L8.35873 9.71231L16.3833 9.55948C16.6255 9.55464 16.8587 9.65311 17.0248 9.82889C17.1909 10.0059 17.2743 10.2445 17.255 10.4867L16.9699 14.0115ZM34.6053 14.5467C34.4428 14.7104 34.2211 14.8029 33.9897 14.8017L20.7834 14.7316C20.3177 14.7292 19.9395 14.3559 19.9304 13.8901L19.8634 10.3756C19.8592 10.1442 19.9486 9.92011 20.1111 9.75641C20.2736 9.59149 20.4959 9.49907 20.7278 9.50148L33.9348 9.60659C34.3999 9.61022 34.7775 9.98354 34.7859 10.4487L34.8518 13.9288C34.8572 14.1583 34.7678 14.3818 34.6053 14.5467ZM52.4413 14.4688C52.2776 14.6682 52.0323 14.7835 51.7744 14.7835L37.7803 14.7298C37.3146 14.728 36.9358 14.354 36.9262 13.8877L36.8603 10.3744C36.8555 10.143 36.9449 9.91951 37.1074 9.7558C37.2711 9.59089 37.4934 9.49846 37.7241 9.50028L50.1313 9.59934C51.0851 9.6072 51.9037 10.2795 52.0951 11.214L52.6177 13.7524C52.6696 14.0049 52.605 14.2677 52.4413 14.4688Z" fill="#808080"/>
<path d="M12.6438 23.8507C10.1115 23.8755 8.07821 25.9469 8.10177 28.4792C8.10358 28.6755 8.1217 28.8664 8.14768 29.0555C8.45273 31.3129 10.3936 33.0442 12.7302 33.0206C15.132 32.9983 17.0802 31.1347 17.2572 28.7836C17.2668 28.6538 17.2747 28.5227 17.2735 28.3916C17.2499 25.8593 15.1773 23.8272 12.6438 23.8507ZM12.2639 25.5959L12.2765 26.9152C12.1322 26.9533 11.9981 27.0119 11.873 27.088L10.9295 26.1638C11.3106 25.8672 11.7649 25.6696 12.2639 25.5959ZM10.3743 26.7304L11.3191 27.6564C11.2466 27.7833 11.1916 27.918 11.156 28.0618L9.83788 28.0745C9.90131 27.5737 10.0886 27.1164 10.3743 26.7304ZM9.8409 28.8676L11.1687 28.8549C11.2073 28.9957 11.2641 29.1298 11.3384 29.2512L10.4099 30.1966C10.1176 29.819 9.91581 29.3648 9.8409 28.8676ZM10.982 30.7499L11.9056 29.8082C12.0283 29.8776 12.1642 29.9296 12.3049 29.9652L12.3176 31.2869C11.8211 31.2241 11.3668 31.0338 10.982 30.7499ZM15.5307 28.0195L14.212 28.0322C14.174 27.889 14.116 27.7555 14.0423 27.6305L14.9689 26.6863C15.2625 27.0675 15.457 27.5205 15.5307 28.0195ZM13.0576 25.5881C13.559 25.6521 14.0163 25.8418 14.4023 26.1293L13.4775 27.0729C13.3512 26.9992 13.2153 26.943 13.0703 26.9068L13.0576 25.5881ZM13.1114 31.2803L13.0987 29.9586C13.24 29.9211 13.3736 29.8668 13.4956 29.7931L14.4367 30.7185C14.0586 31.0091 13.6079 31.2084 13.1114 31.2803ZM15.0009 30.1561L14.0519 29.2252C14.1226 29.1014 14.1824 28.9691 14.2187 28.8259L15.5361 28.8132C15.4709 29.3116 15.2879 29.7731 15.0009 30.1561Z" fill="#808080"/>
<path d="M46.8255 23.8508C44.2938 23.8756 42.2598 25.9469 42.2834 28.4792C42.2852 28.6756 42.3033 28.8664 42.3293 29.0555C42.6344 31.313 44.5753 33.0442 46.9118 33.0207C49.3137 32.9983 51.2618 31.1348 51.4388 28.7837C51.4485 28.6538 51.4557 28.5227 51.4545 28.3916C51.4316 25.8593 49.359 23.8272 46.8255 23.8508ZM46.4455 25.596L46.4582 26.9153C46.3138 26.9533 46.1797 27.0119 46.0547 27.088L45.1111 26.1638C45.4923 25.8672 45.9471 25.6697 46.4455 25.596ZM44.5559 26.7304L45.5007 27.6565C45.4282 27.7833 45.3733 27.918 45.337 28.0618L44.0189 28.0745C44.0836 27.5737 44.2702 27.1164 44.5559 26.7304ZM44.0225 28.8677L45.3503 28.855C45.3884 28.9957 45.4457 29.1298 45.52 29.2512L44.5916 30.1966C44.2992 29.8191 44.0974 29.3648 44.0225 28.8677ZM45.1636 30.75L46.0873 29.8082C46.2099 29.8777 46.3458 29.9296 46.4866 29.9653L46.4993 31.287C46.0027 31.2242 45.5484 31.0339 45.1636 30.75ZM49.7123 28.0195L48.3936 28.0328C48.3556 27.8897 48.2976 27.7561 48.2239 27.6311L49.1506 26.6869C49.4447 27.0675 49.6393 27.5206 49.7123 28.0195ZM47.2393 25.5881C47.7406 25.6521 48.1979 25.8418 48.5839 26.1294L47.6597 27.0729C47.5334 26.9992 47.3969 26.9431 47.2519 26.9068L47.2393 25.5881ZM47.293 31.2803L47.2803 29.9586C47.4211 29.9212 47.5546 29.8668 47.6766 29.7931L48.6184 30.7185C48.2402 31.0091 47.7896 31.2085 47.293 31.2803ZM49.1826 30.1561L48.2336 29.2253C48.3042 29.1014 48.3647 28.9691 48.4003 28.826L49.7178 28.8133C49.6525 29.3116 49.4701 29.7732 49.1826 30.1561Z" fill="#808080"/>
</g>
<defs>
<clipPath id="clip0_413_47132">
<rect width="60" height="40" fill="white"/>
</clipPath>
</defs>
</svg>
