<svg width="61" height="40" viewBox="0 0 61 40" fill="none" xmlns="http://www.w3.org/2000/svg">
<g clip-path="url(#clip0_413_47129)">
<path d="M11.856 24.0378C9.33695 24.0378 7.29395 26.079 7.29395 28.5993C7.29395 28.7948 7.30963 28.9861 7.33377 29.1731C7.61675 31.4231 9.53123 33.162 11.8554 33.162C14.2441 33.162 16.2008 31.3265 16.3987 28.9891C16.4096 28.86 16.4187 28.7308 16.4187 28.5993C16.4193 26.079 14.3769 24.0378 11.856 24.0378ZM9.57105 26.8803L10.502 27.8113C10.429 27.9356 10.3729 28.0701 10.3367 28.2125H9.025C9.09318 27.7148 9.28325 27.2622 9.57105 26.8803ZM9.02018 29.0017H10.3409C10.3784 29.1423 10.4333 29.2757 10.5063 29.3975L9.57346 30.3304C9.28626 29.9508 9.09017 29.4971 9.02018 29.0017ZM11.4614 31.4333C10.9678 31.3657 10.5177 31.1714 10.1382 30.8855L11.0656 29.9575C11.1875 30.0287 11.3214 30.0812 11.4614 30.118V31.4333ZM11.4614 27.0818C11.3178 27.1192 11.1832 27.1766 11.0584 27.2502L10.1286 26.3204C10.5105 26.0308 10.9642 25.8377 11.4614 25.7695V27.0818ZM12.2512 25.7695C12.7496 25.8377 13.2027 26.0308 13.584 26.321L12.6549 27.2502C12.53 27.1766 12.3954 27.1186 12.2512 27.0818V25.7695ZM12.2512 31.4333V30.1168C12.3918 30.08 12.5251 30.0281 12.6476 29.9551L13.5756 30.8842C13.1955 31.1714 12.746 31.3645 12.2512 31.4333ZM14.1416 30.3328L13.2057 29.3969C13.2781 29.2745 13.3385 29.1435 13.3759 29.0017H14.6864C14.617 29.4971 14.4306 29.9532 14.1416 30.3328ZM13.3765 28.2125C13.3403 28.0701 13.2842 27.9356 13.2112 27.8113L14.1422 26.8803C14.4306 27.2622 14.62 27.7148 14.6882 28.2125H13.3765Z" fill="#808080"/>
<path d="M50.9947 24.0378C48.475 24.0378 46.4326 26.079 46.4326 28.5993C46.4326 28.7948 46.4477 28.986 46.4718 29.1731C46.7542 31.423 48.6699 33.1619 50.9935 33.1619C53.3816 33.1619 55.3383 31.3265 55.5368 28.989C55.5477 28.8599 55.5555 28.7308 55.5555 28.5993C55.5567 26.079 53.5149 24.0378 50.9947 24.0378ZM48.7091 26.8803L49.6401 27.8113C49.5677 27.9356 49.511 28.0701 49.4754 28.2125H48.1631C48.2313 27.7147 48.4213 27.2622 48.7091 26.8803ZM48.1588 29.0017H49.4802C49.5176 29.1423 49.5719 29.2756 49.6443 29.3975L48.7121 30.3303C48.4243 29.9508 48.2282 29.4971 48.1588 29.0017ZM50.5995 31.4333C50.1059 31.3657 49.6564 31.1714 49.2769 30.8854L50.2043 29.9574C50.3255 30.0286 50.4601 30.0811 50.5995 30.1179V31.4333ZM50.5995 27.0818C50.4565 27.1192 50.3213 27.1765 50.1958 27.2501L49.266 26.3203C49.6486 26.0307 50.1017 25.8377 50.5989 25.7695L50.5995 27.0818ZM51.3899 25.7695C51.8871 25.8377 52.3408 26.0307 52.7227 26.321L51.7929 27.2501C51.668 27.1765 51.5329 27.1186 51.3899 27.0818V25.7695ZM51.3899 31.4333V30.1167C51.5293 30.0799 51.6638 30.028 51.7851 29.955L52.7131 30.8842C52.3335 31.1714 51.8834 31.3645 51.3899 31.4333ZM53.2796 30.3327L52.3438 29.3969C52.4162 29.2744 52.4765 29.1435 52.5133 29.0017H53.8251C53.7551 29.4971 53.568 29.9532 53.2796 30.3327ZM52.514 28.2125C52.4777 28.0701 52.4222 27.9356 52.3498 27.8113L53.2802 26.8803C53.5686 27.2622 53.7581 27.7147 53.8269 28.2125H52.514Z" fill="#808080"/>
<path d="M60.1213 20.338C60.0875 19.3303 59.8099 18.3463 59.3134 17.4696L56.0371 11.6887C55.5001 10.742 54.516 10.1362 53.4293 10.0813C47.9387 9.8062 31.1035 9.10509 25.8036 10.5302C22.2184 11.495 13.1715 17.4424 13.1715 17.4424C13.1715 17.4424 3.21775 18.984 1.31895 23.5237C1.31895 23.5237 0.499579 24.0022 0.350547 25.2289C0.27392 25.86 0.460964 26.8181 0.667315 27.6212C0.893578 28.4997 1.62184 29.161 2.51784 29.3004L6.83795 29.9774C6.77339 29.7414 6.71969 29.5019 6.68831 29.2545C6.66116 29.0409 6.64306 28.8225 6.64306 28.5987C6.64306 25.7248 8.98111 23.3874 11.8555 23.3874C14.7306 23.3874 17.0686 25.7248 17.0686 28.5987C17.0686 28.7489 17.059 28.8961 17.0469 29.0421C17.0035 29.5514 16.8852 30.0383 16.7048 30.495L17.2128 30.5222L45.9138 29.7457C45.877 29.584 45.848 29.4211 45.8263 29.2545C45.7985 29.0409 45.7817 28.8225 45.7817 28.5987C45.7817 25.7248 48.1197 23.3874 50.9935 23.3874C53.8686 23.3874 56.2066 25.7248 56.2066 28.5987C56.2066 28.7489 56.197 28.8961 56.1843 29.0421C56.1765 29.1387 56.1596 29.2322 56.1469 29.3275L58.6237 28.8219C59.6452 28.6131 60.368 27.6996 60.3318 26.6564L60.1213 20.338ZM43.6035 11.1493L44.263 17.7326L34.1421 18.1465V11.1161C37.101 11.0479 40.4787 11.0787 43.6035 11.1493ZM18.0642 18.6172L17.0632 18.6733C16.7911 18.6884 16.5419 18.523 16.4502 18.266C16.3585 18.0102 16.4472 17.7248 16.6662 17.5637C17.2545 17.1341 17.9749 16.6206 18.7774 16.0782V17.758C18.2886 18.1713 18.0642 18.6172 18.0642 18.6172ZM20.5446 17.0762C20.4813 17.0786 20.4294 17.0943 20.3691 17.1003V15.035C22.4096 13.7414 24.7223 12.4568 26.711 11.813C27.6161 11.5204 29.2669 11.3333 31.3183 11.2217V18.2618L22.6226 18.6172C22.6226 18.6172 22.3209 17.0098 20.5446 17.0762ZM55.7028 16.4378C55.3993 16.9651 54.8466 17.3 54.239 17.3254L47.0879 17.6174L46.4472 11.2253C49.4025 11.3152 51.8714 11.4262 53.1222 11.4938C53.7008 11.5246 54.2228 11.8583 54.4925 12.3711L55.7336 14.7261C56.0178 15.2649 56.0057 15.9117 55.7028 16.4378Z" fill="#808080"/>
</g>
<defs>
<clipPath id="clip0_413_47129">
<rect width="60" height="40" fill="white" transform="translate(0.333008)"/>
</clipPath>
</defs>
</svg>
