<svg width="61" height="40" viewBox="0 0 61 40" fill="none" xmlns="http://www.w3.org/2000/svg">
<g clip-path="url(#clip0_413_47092)">
<path d="M60.5542 17.7416C60.4822 17.6702 60.3849 17.6291 60.2839 17.6297L33.9067 17.6654L33.444 12.2123C33.3007 10.5208 31.8469 9.24594 30.1517 9.32395L22.6303 9.66806C21.3821 9.72612 20.2845 10.5129 19.8315 11.6777L18.4823 15.143L5.95955 15.81C4.42043 15.8922 3.14076 17.0256 2.87346 18.5441L1.72321 25.0846L1.14082 25.5684C0.824534 25.8321 0.649154 26.2276 0.667297 26.6394C0.686044 27.0507 0.895896 27.4299 1.23456 27.6621L1.58593 27.904C2.10844 28.2638 2.81359 28.1991 3.26171 27.751L3.62699 27.3857C3.80056 27.2127 3.90034 26.9799 3.90639 26.7362C3.9457 25.2352 4.90122 21.4996 9.19501 21.4996C11.3449 21.4996 14.2974 23.2123 14.2974 26.9321C14.2974 27.7631 14.9463 28.7803 17.0623 28.7803H22.3086C23.6935 28.7803 25.0216 28.2306 26.0013 27.2514L42.8057 27.3863C42.455 24.5488 44.545 21.502 47.8119 21.502C53.0594 21.502 53.184 27.2611 55.897 27.2611C56.1256 27.2611 56.8126 27.2611 56.8126 27.2611C58.4654 27.2617 59.8085 25.924 59.8152 24.2718L59.8382 18.3947H60.2851C60.4962 18.3947 60.6661 18.2248 60.6661 18.0137C60.6673 17.9103 60.6262 17.8136 60.5542 17.7416ZM29.706 14.6954C29.697 15.1811 29.3105 15.5754 28.8255 15.5923L24.3509 15.7574L23.3609 13.8681C23.2031 13.5682 22.8323 13.4514 22.533 13.6087C22.2324 13.7659 22.1169 14.1366 22.2741 14.4366L22.992 15.8076L22.2397 15.8354C21.9947 15.8445 21.7607 15.7356 21.6101 15.5433C21.4589 15.351 21.4099 15.0976 21.4777 14.8617L22.1931 12.3774C22.38 11.7279 22.963 11.2713 23.6379 11.2459L28.808 11.0518C29.0595 11.0427 29.3033 11.1382 29.4829 11.3136C29.6625 11.4902 29.7617 11.7315 29.7568 11.9831L29.706 14.6954Z" fill="#808080"/>
<path d="M9.05171 22.6607C6.83708 22.6825 5.05969 24.4931 5.08025 26.7078C5.08207 26.8795 5.09779 27.047 5.12077 27.2115C5.38747 29.1867 7.08503 30.6992 9.12791 30.6792C11.2282 30.6599 12.9318 29.03 13.0861 26.9739C13.0945 26.8608 13.1012 26.7465 13.1 26.6316C13.08 24.4175 11.2669 22.6395 9.05171 22.6607ZM8.71909 24.1865L8.73058 25.3392C8.60479 25.3743 8.48687 25.4245 8.3774 25.4916L7.55251 24.6812C7.88573 24.4242 8.28246 24.2512 8.71909 24.1865ZM7.06689 25.1777L7.8936 25.9887C7.8301 26.0994 7.78172 26.2173 7.75087 26.3425L6.5982 26.3546C6.65384 25.9161 6.81712 25.5164 7.06689 25.1777ZM6.60062 27.0476L7.76115 27.0367C7.79502 27.1607 7.84461 27.2762 7.90992 27.3827L7.09834 28.2106C6.84252 27.8792 6.66593 27.4825 6.60062 27.0476ZM7.59847 28.6932L8.40583 27.8707C8.51347 27.9318 8.63201 27.9784 8.75538 28.008L8.76687 29.1649C8.33205 29.1081 7.93472 28.9417 7.59847 28.6932ZM11.576 26.3074L10.4227 26.3189C10.3894 26.1931 10.3386 26.0776 10.2739 25.9669L11.0843 25.1414C11.3413 25.4734 11.5119 25.8696 11.576 26.3074ZM9.41336 24.1799C9.85181 24.2379 10.2516 24.4024 10.589 24.6534L9.78045 25.4783C9.66977 25.4136 9.55064 25.3646 9.42364 25.3337L9.41336 24.1799ZM9.46053 29.157L9.44964 28.0013C9.57301 27.9681 9.68973 27.9203 9.79677 27.8562L10.6199 28.6654C10.2884 28.9194 9.89474 29.0947 9.46053 29.157ZM11.1127 28.1749L10.283 27.3609C10.3453 27.252 10.3973 27.1365 10.4294 27.0113L11.5808 26.9999C11.5234 27.4353 11.3637 27.8387 11.1127 28.1749Z" fill="#808080"/>
<path d="M47.9033 22.6607C45.6887 22.6825 43.9107 24.4931 43.9318 26.7078C43.9336 26.8795 43.9494 27.047 43.9717 27.2115C44.2384 29.1867 45.936 30.6992 47.9789 30.6792C50.0792 30.6599 51.7828 29.03 51.9376 26.9739C51.9461 26.8608 51.9528 26.7465 51.9515 26.6316C51.9322 24.4175 50.1185 22.6395 47.9033 22.6607ZM47.5713 24.1865L47.5822 25.3392C47.4564 25.3743 47.339 25.4245 47.229 25.4916L46.4041 24.6812C46.7385 24.4242 47.134 24.2512 47.5713 24.1865ZM45.9185 25.1777L46.7452 25.9887C46.6823 26.0994 46.6333 26.2173 46.6031 26.3425L45.451 26.3546C45.506 25.9161 45.6687 25.5164 45.9185 25.1777ZM45.4528 27.0476L46.6139 27.0367C46.6478 27.1607 46.6974 27.2762 46.7627 27.3827L45.9499 28.2106C45.6941 27.8792 45.5175 27.4825 45.4528 27.0476ZM46.45 28.6932L47.2574 27.8707C47.3657 27.9318 47.4836 27.9784 47.607 28.008L47.619 29.1649C47.1836 29.1081 46.7875 28.9417 46.45 28.6932ZM50.4282 26.3074L49.2749 26.3189C49.2416 26.1931 49.1908 26.0776 49.1267 25.9669L49.9371 25.1414C50.1935 25.4734 50.364 25.8696 50.4282 26.3074ZM48.2649 24.1799C48.704 24.2379 49.1037 24.4024 49.4406 24.6534L48.632 25.4783C48.5213 25.4136 48.4028 25.3646 48.2758 25.3337L48.2649 24.1799ZM48.3127 29.157L48.3018 28.0013C48.4252 27.9681 48.5413 27.9203 48.649 27.8562L49.4714 28.6654C49.1406 28.9194 48.7463 29.0947 48.3127 29.157ZM49.9649 28.1749L49.1352 27.3609C49.1975 27.252 49.2489 27.1365 49.2815 27.0113L50.4324 26.9999C50.3755 27.4353 50.2159 27.8387 49.9649 28.1749Z" fill="#808080"/>
</g>
<defs>
<clipPath id="clip0_413_47092">
<rect width="60" height="40" fill="white" transform="translate(0.666016)"/>
</clipPath>
</defs>
</svg>
