<svg width="60" height="40" viewBox="0 0 60 40" fill="none" xmlns="http://www.w3.org/2000/svg">
<path d="M10.4729 23.7244C7.97265 23.7244 5.94531 25.7511 5.94531 28.2519C5.94531 28.4447 5.96108 28.6345 5.98533 28.8206C6.26603 31.0523 8.16545 32.7783 10.4723 32.7783C12.8416 32.7783 14.784 30.9571 14.9811 28.6375C14.9914 28.5108 14.9998 28.3817 14.9998 28.2513C15.0005 25.7511 12.9737 23.7244 10.4729 23.7244ZM8.20667 26.5459L9.1294 27.4693C9.05787 27.5923 9.00148 27.7251 8.96511 27.867H7.66407C7.73076 27.3747 7.9193 26.9248 8.20667 26.5459ZM7.658 28.6509H8.96935C9.00633 28.7903 9.0609 28.9225 9.13365 29.0437L8.20849 29.9683C7.92173 29.5924 7.72894 29.1425 7.658 28.6509ZM10.0812 31.0644C9.59077 30.9959 9.14517 30.8037 8.76807 30.5194L9.68838 29.5984C9.80963 29.6694 9.9424 29.7215 10.0812 29.7579V31.0644ZM10.0812 26.746C9.93876 26.7836 9.80539 26.8393 9.6811 26.9127L8.75898 25.9906C9.13789 25.7026 9.58774 25.5122 10.0812 25.4437V26.746ZM10.8651 25.4425C11.3586 25.511 11.8091 25.7026 12.1874 25.99L11.2659 26.9121C11.1422 26.8387 11.0076 26.783 10.8657 26.7454L10.8651 25.4425ZM10.8651 31.0632V29.7585C11.0046 29.7215 11.1361 29.67 11.2574 29.5984L12.1783 30.5194C11.8012 30.8037 11.355 30.9947 10.8651 31.0632ZM12.7397 29.9725L11.8115 29.0431C11.8843 28.9213 11.9431 28.7909 11.9801 28.6515H13.2811C13.212 29.1413 13.0271 29.5948 12.7397 29.9725ZM11.9819 27.867C11.9449 27.7251 11.8891 27.5923 11.8176 27.4693L12.7415 26.5459C13.0271 26.9248 13.2156 27.3747 13.2835 27.8676H11.9819V27.867Z" fill="#808080"/>
<path d="M48.0666 23.7244C45.5664 23.7244 43.5391 25.7511 43.5391 28.2519C43.5391 28.4447 43.5548 28.6345 43.5791 28.8206C43.8598 31.0523 45.7592 32.7783 48.0654 32.7783C50.4347 32.7783 52.3772 30.9571 52.5748 28.6375C52.5851 28.5108 52.5936 28.3817 52.5936 28.2513C52.5948 25.7511 50.5675 23.7244 48.0666 23.7244ZM45.8004 26.5459L46.7225 27.4693C46.651 27.5923 46.5946 27.7251 46.5582 27.867H45.2572C45.3245 27.3747 45.5131 26.9248 45.8004 26.5459ZM45.2524 28.6509H46.5637C46.6007 28.7903 46.6552 28.9225 46.728 29.0437L45.8035 29.9683C45.5155 29.5924 45.3221 29.1425 45.2524 28.6509ZM47.675 31.0644C47.1845 30.9959 46.7389 30.8037 46.3618 30.5194L47.2821 29.5984C47.4034 29.6694 47.5362 29.7215 47.675 29.7579V31.0644ZM47.675 26.746C47.5325 26.7836 47.3991 26.8393 47.2749 26.9127L46.3527 25.9906C46.7316 25.7026 47.1809 25.5122 47.675 25.4437V26.746ZM48.4595 25.4425C48.953 25.511 49.4034 25.7026 49.7817 25.99L48.8596 26.9121C48.7359 26.8387 48.6014 26.7817 48.4595 26.7454V25.4425ZM48.4595 31.0632V29.7585C48.5989 29.7215 48.7305 29.67 48.8517 29.5984L49.7727 30.5194C49.3956 30.8037 48.9487 30.9947 48.4595 31.0632ZM50.3334 29.9725L49.4053 29.0443C49.478 28.9219 49.5374 28.7921 49.5738 28.6521H50.8748C50.8057 29.1413 50.6214 29.5948 50.3334 29.9725ZM49.5756 27.867C49.5386 27.7251 49.4835 27.5923 49.4113 27.4693L50.3347 26.5459C50.6208 26.9248 50.8088 27.3747 50.8773 27.8676H49.5756V27.867Z" fill="#808080"/>
<path d="M58.9388 21.3806V18.0304C58.9388 17.4915 58.5471 17.035 58.0148 16.9519C56.7374 16.7518 54.473 16.3741 53.4557 16.0607C51.9971 15.6108 46.3613 13.2246 44.4097 12.7766C42.4575 12.3285 33.6558 9.93622 25.2257 12.8584C23.7992 13.3525 17.3819 16.4202 13.6085 18.0153C12.4972 18.0395 1.49782 20.3324 0.912171 21.9038C0.326522 23.4759 0.142824 24.2386 0.0349094 24.6375C-0.0730053 25.0364 0.0349094 26.9455 0.852151 28.2751C1.68516 28.7461 3.28872 29.0626 5.14267 29.2748C5.12145 29.1614 5.09842 29.0499 5.08387 28.9353C5.05173 28.6903 5.03658 28.4666 5.03658 28.2532C5.03658 25.2553 7.47496 22.8157 10.4735 22.8157C13.4721 22.8157 15.9105 25.2547 15.9105 28.2532C15.9105 28.4072 15.9002 28.56 15.8887 28.7104C15.8602 29.0468 15.7996 29.3736 15.7116 29.6883C15.7159 29.6883 15.7262 29.6883 15.7262 29.6883L42.7146 29.145C42.7025 29.0753 42.6867 29.0062 42.6776 28.9353C42.6455 28.6916 42.6303 28.4672 42.6303 28.2532C42.6303 25.2553 45.0687 22.8163 48.0673 22.8163C51.0658 22.8163 53.5048 25.2547 53.5048 28.2532C53.5048 28.2648 53.5036 28.2745 53.503 28.2854L53.6182 28.2757L58.2325 27.4069C58.2325 27.4069 59.9997 26.466 59.9997 23.8772C60.0003 22.1506 58.9388 21.3806 58.9388 21.3806ZM32.1668 18.2044L22.0877 18.513C22.2732 17.0028 21.379 16.6639 21.379 16.6639C25.3858 13.0269 33.4612 12.9039 33.4612 12.9039L32.1668 18.2044ZM43.4785 17.7431L34.2936 18.0517L35.126 12.9045C39.873 12.8426 42.5848 13.8903 42.5848 13.8903L43.9411 16.0789L43.4785 17.7431ZM48.6566 17.7115H46.0975L43.5391 14.1982C45.4585 14.9621 46.9948 15.7151 47.9096 16.191C48.465 16.4796 48.7681 17.0962 48.6566 17.7115Z" fill="#808080"/>
</svg>
