<svg width="61" height="40" viewBox="0 0 61 40" fill="none" xmlns="http://www.w3.org/2000/svg">
<g clip-path="url(#clip0_413_47072)">
<path d="M11.1412 24.0171C8.77126 24.0171 6.84961 25.9369 6.84961 28.3081C6.84961 28.4923 6.86476 28.6716 6.88778 28.8485C7.15312 30.9634 8.95542 32.6009 11.1412 32.6009C13.3882 32.6009 15.228 30.8737 15.4158 28.6752C15.4255 28.5546 15.434 28.4329 15.434 28.3093C15.434 25.9369 13.513 24.0171 11.1412 24.0171ZM8.99117 26.6906L9.86718 27.566C9.79872 27.6829 9.74662 27.8089 9.71209 27.944H8.47804C8.54165 27.4757 8.72097 27.051 8.99117 26.6906ZM8.47441 28.6873H9.71694C9.75268 28.8194 9.80357 28.9454 9.87202 29.0587L8.9948 29.9365C8.724 29.5791 8.53862 29.1526 8.47441 28.6873ZM10.7704 30.9749C10.3058 30.9107 9.88232 30.7283 9.52489 30.4575L10.3973 29.5851C10.5118 29.6518 10.6378 29.7002 10.7698 29.7354L10.7704 30.9749ZM10.7704 26.8808C10.6347 26.9159 10.5081 26.9692 10.3906 27.0389L9.51702 26.1653C9.87566 25.8927 10.3028 25.7116 10.7704 25.6473V26.8808ZM11.512 25.6461C11.9809 25.7103 12.408 25.8915 12.7666 26.1641L11.893 27.0377C11.7749 26.9686 11.6483 26.9147 11.512 26.879V25.6461ZM11.512 30.9737V29.7354C11.6452 29.7002 11.7707 29.6506 11.8852 29.5845L12.7581 30.4575C12.4019 30.7271 11.9778 30.9095 11.512 30.9737ZM13.2912 29.9395L12.411 29.0587C12.4788 28.9436 12.5358 28.8194 12.5709 28.6873H13.8038C13.7383 29.1526 13.5633 29.5827 13.2912 29.9395ZM12.5715 27.944C12.537 27.8089 12.4849 27.6829 12.4165 27.566L13.2919 26.6906C13.5627 27.051 13.742 27.4757 13.8056 27.944H12.5715Z" fill="#808080"/>
<path d="M48.2187 23.7439C45.8494 23.7439 43.9277 25.6637 43.9277 28.0355C43.9277 28.2197 43.9423 28.399 43.9653 28.5759C44.2312 30.6902 46.0323 32.3277 48.2187 32.3277C50.4669 32.3277 52.3068 30.5999 52.494 28.402C52.5043 28.2815 52.5115 28.1597 52.5115 28.0361C52.5121 25.6631 50.5899 23.7439 48.2187 23.7439ZM46.0687 26.418L46.9447 27.2928C46.8762 27.4103 46.8241 27.5357 46.7896 27.6702H45.5556C45.6192 27.2025 45.7985 26.7772 46.0687 26.418ZM45.5525 28.4141H46.7951C46.8308 28.5468 46.8817 28.6722 46.9501 28.7855L46.0735 29.6633C45.8021 29.3065 45.6161 28.8788 45.5525 28.4141ZM47.848 30.7017C47.3833 30.6375 46.9604 30.4551 46.6024 30.1843L47.4748 29.3119C47.5893 29.3798 47.7147 29.4271 47.8474 29.4622L47.848 30.7017ZM47.848 26.607C47.7123 26.6421 47.5857 26.6954 47.4681 26.7651L46.5945 25.8915C46.9532 25.6195 47.3803 25.4378 47.8474 25.3735L47.848 26.607ZM48.5913 25.3723C49.059 25.4365 49.4867 25.6183 49.8447 25.8903L48.9711 26.7639C48.8536 26.6948 48.727 26.6409 48.5913 26.6058V25.3723ZM48.5913 30.7005V29.4622C48.7234 29.4271 48.8494 29.3774 48.9633 29.3113L49.8363 30.1843C49.4788 30.4539 49.056 30.6357 48.5913 30.7005ZM50.3694 29.6663L49.4891 28.7855C49.5564 28.671 49.6133 28.5468 49.6497 28.4141H50.8819C50.8159 28.8788 50.6402 29.3089 50.3694 29.6663ZM49.6497 27.6702C49.6139 27.5357 49.5618 27.4103 49.4934 27.2928L50.37 26.418C50.6396 26.7778 50.8195 27.2025 50.8837 27.6702H49.6497Z" fill="#808080"/>
<path d="M59.8972 24.3472L59.6082 24.2194V20.9765C59.6082 20.1526 59.361 19.3474 58.897 18.6665L56.3925 14.9831C55.5135 13.6903 54.1274 12.8325 52.5771 12.6217C47.4416 11.922 35.3919 10.6401 27.406 12.6629C21.503 14.1592 14.4083 18.6671 14.4083 18.6671C14.4083 18.6671 5.30225 20.1495 3.29034 21.2479C1.74975 22.0894 0.839812 23.1677 0.684723 24.715C0.611419 25.4571 0.744699 26.4391 0.903422 27.2606C1.0888 28.2166 1.83759 28.9642 2.79417 29.1483L6.14555 29.7923C6.06618 29.5245 6.00379 29.2483 5.96804 28.963C5.93775 28.7291 5.92321 28.5147 5.92321 28.3081C5.92321 25.4317 8.26227 23.092 11.1387 23.092C14.0157 23.092 16.356 25.4317 16.356 28.3081C16.356 28.4559 16.3463 28.6025 16.3354 28.7479C16.3033 29.1241 16.2263 29.4882 16.1185 29.8378H43.3323C43.1972 29.4718 43.0979 29.0908 43.0482 28.6897C43.0179 28.4559 43.0034 28.2414 43.0034 28.0348C43.0034 25.159 45.3418 22.8194 48.2182 22.8194C51.0953 22.8194 53.4355 25.159 53.4355 28.0348C53.4355 28.1827 53.4258 28.3293 53.4149 28.4753C53.3756 28.9508 53.2659 29.407 53.106 29.8378H53.1411L59.4549 27.9034C60.025 27.7295 60.443 27.2382 60.5236 26.6475L60.6526 25.7043C60.7308 25.133 60.423 24.5805 59.8972 24.3472ZM41.879 12.9343V18.1358L34.356 18.512V12.8464C34.396 12.8458 34.4353 12.8428 34.4765 12.8422C37.0585 12.8204 39.5763 12.8604 41.879 12.9343ZM20.7069 17.1041V16.5122C20.7069 16.5122 25.4105 13.6067 32.149 12.9712L31.4923 18.6556L20.7069 19.1954C20.7069 19.1954 21.2201 18.9585 21.2201 17.8141C21.2201 17.8141 21.1801 17.3016 20.7069 17.1041ZM43.3148 18.0649V15.3485L44.7197 17.9947L43.3148 18.0649ZM53.9329 17.218C53.4949 17.4464 53.0109 17.5803 52.5177 17.6051L46.333 17.9141L43.7261 13.0039C48.4963 13.2057 52.0325 13.5425 52.7304 13.7418C53.8342 14.0575 54.8356 15.5659 54.7962 16.3159C54.7768 16.6843 54.3552 16.9963 53.9329 17.218Z" fill="#808080"/>
</g>
<defs>
<clipPath id="clip0_413_47072">
<rect width="60" height="40" fill="white" transform="translate(0.666016)"/>
</clipPath>
</defs>
</svg>
