<svg width="60" height="40" viewBox="0 0 60 40" fill="none" xmlns="http://www.w3.org/2000/svg">
<path d="M9.12992 20.4578C5.59851 20.4578 2.73438 23.3207 2.73438 26.8533C2.73438 27.1264 2.75678 27.3928 2.79129 27.6574C3.18791 30.8092 5.87099 33.2483 9.12992 33.2483C12.476 33.2483 15.2203 30.6748 15.4976 27.3989C15.5121 27.2184 15.5249 27.0374 15.5249 26.8533C15.5249 23.3207 12.6619 20.4578 9.12992 20.4578ZM6.72539 25.0422L7.70452 26.0219C7.62822 26.1527 7.56828 26.2938 7.53073 26.444H6.15014C6.22098 25.922 6.42141 25.4436 6.72539 25.0422ZM6.14408 27.2766H7.53558C7.57433 27.4249 7.63246 27.5642 7.70936 27.6932L6.72781 28.6747C6.42383 28.2733 6.21856 27.7973 6.14408 27.2766ZM8.71453 29.8355C8.19439 29.7629 7.72087 29.5588 7.32122 29.2566L8.29672 28.2811C8.4257 28.3568 8.56618 28.4113 8.71393 28.4489L8.71453 29.8355ZM8.71453 25.2553C8.56255 25.2935 8.42206 25.3546 8.29006 25.4321L7.31214 24.453C7.71421 24.1478 8.19136 23.9456 8.71453 23.8729V25.2553ZM9.54652 23.8735C10.0697 23.9462 10.5475 24.1484 10.9489 24.4542L9.97039 25.4328C9.8396 25.3552 9.6973 25.2941 9.54652 25.2559V23.8735ZM9.54652 29.8343V28.4489C9.69427 28.4113 9.83415 28.355 9.96312 28.2799L10.9392 29.256C10.5396 29.5582 10.0655 29.7616 9.54652 29.8343ZM11.5345 28.6772L10.5499 27.692C10.6274 27.5624 10.6891 27.4255 10.7285 27.276H12.1091C12.0346 27.7961 11.839 28.2781 11.5345 28.6772ZM10.7303 26.4446C10.6922 26.2938 10.6322 26.1533 10.5565 26.0225L11.5363 25.0428C11.839 25.4449 12.0395 25.922 12.1109 26.4446H10.7303Z" fill="#808080"/>
<path d="M48.6163 20.4578C45.0854 20.4578 42.2207 23.3207 42.2207 26.8533C42.2207 27.1264 42.2431 27.3928 42.2782 27.6574C42.6748 30.8092 45.3573 33.2483 48.6163 33.2483C51.963 33.2483 54.7078 30.6748 54.9845 27.3989C54.9985 27.2184 55.0118 27.0374 55.0118 26.8533C55.0118 23.3207 52.1489 20.4578 48.6163 20.4578ZM46.2117 25.0422L47.1915 26.0219C47.1145 26.1527 47.0546 26.2938 47.0165 26.444H45.6371C45.7079 25.922 45.9077 25.4436 46.2117 25.0422ZM45.631 27.2766H47.0225C47.0601 27.4249 47.1194 27.5642 47.1963 27.6932L46.2141 28.6747C45.9102 28.2733 45.7055 27.7973 45.631 27.2766ZM48.2009 29.8355C47.6813 29.7629 47.2072 29.5588 46.8076 29.2566L47.7837 28.2811C47.912 28.3568 48.0525 28.4113 48.2003 28.4489L48.2009 29.8355ZM48.2009 25.2553C48.0495 25.2935 47.909 25.3546 47.777 25.4321L46.7991 24.453C47.2011 24.1478 47.6783 23.9456 48.2009 23.8729V25.2553ZM49.0335 23.8735C49.5572 23.9462 50.0338 24.1484 50.4352 24.4542L49.4579 25.4328C49.3259 25.3552 49.1836 25.2941 49.0335 25.2559V23.8735ZM49.0335 29.8343V28.4489C49.1812 28.4113 49.3217 28.355 49.4501 28.2799L50.4268 29.256C50.0265 29.5582 49.5524 29.7616 49.0335 29.8343ZM51.0214 28.6772L50.0362 27.692C50.1143 27.5624 50.1755 27.4255 50.216 27.276H51.5954C51.5216 27.7961 51.3266 28.2781 51.0214 28.6772ZM50.2173 26.4446C50.1791 26.2938 50.1192 26.1533 50.0435 26.0225L51.0238 25.0428C51.3266 25.4449 51.5264 25.922 51.5972 26.4446H50.2173Z" fill="#808080"/>
<path d="M45.968 4.97452L28.8105 5.19069C28.2958 5.19674 27.884 5.6194 27.8907 6.13409C27.8962 6.64092 28.3073 7.04783 28.8111 7.05388C28.8196 7.05388 28.8262 7.05388 28.8341 7.05388L45.9916 6.83771C46.5063 6.83166 46.9181 6.409 46.912 5.89431C46.9048 5.37961 46.4682 4.95514 45.968 4.97452Z" fill="#808080"/>
<path d="M39.1807 26.678H18.9235C18.4088 26.678 17.9922 27.0952 17.9922 27.6099C17.9922 28.1252 18.4088 28.5418 18.9235 28.5418H39.1807C39.6954 28.5418 40.112 28.1252 40.112 27.6099C40.112 27.0952 39.6954 26.678 39.1807 26.678Z" fill="#808080"/>
<path d="M59.7398 21.3605C59.5236 21.0965 59.1978 20.9439 58.8569 20.9439H57.7979L56.7219 9.16162C56.6625 8.51129 56.1127 8.01657 55.4587 8.02626L25.1656 8.48041C24.6945 8.48767 24.2512 8.70808 23.9618 9.08048L19.9466 14.2414L6.79822 15.0558C6.0831 15.1006 5.42852 15.473 5.02645 16.0658L4.2859 17.1551C4.2859 17.1551 3.01793 17.6014 2.67823 17.8824C2.38334 18.1264 1.79659 19.1352 1.79659 19.1352C1.68517 19.2926 1.67185 19.5003 1.76086 19.6705C1.84927 19.8419 2.02608 19.949 2.21925 19.949V21.0971H1.12506C0.503191 21.0977 0 21.6015 0 22.2222V24.2955C0 25.0657 0.624295 25.6912 1.39573 25.6912H2.14356L4.07094 20.3735C4.24654 19.8891 4.70674 19.5663 5.22143 19.5663H11.9488C12.3303 19.5663 12.6906 19.7444 12.9219 20.0483L17.4536 25.997H41.1078L44.4273 20.3959C44.6471 20.0241 45.0468 19.7964 45.4797 19.7964H51.6567C52.0926 19.7964 52.4953 20.0284 52.7151 20.405L55.9698 25.9976H57.1373C58.3646 25.9976 59.4219 25.1287 59.6593 23.9237L59.9766 22.3094C60.045 21.9733 59.9578 21.6257 59.7398 21.3605ZM30.9229 15.4312H23.9424V13.2871H22.5285L24.6442 10.4938C24.7351 10.3733 24.8767 10.3018 25.0275 10.2994L32.1085 10.194V13.2871L30.9229 15.4312ZM42.466 15.4312H34.9381V10.1517L44.0168 10.0166V13.8799L42.466 15.4312ZM46.3456 15.4312V9.9815L54.1611 9.86524C54.2943 9.86342 54.4045 9.96576 54.4148 10.0984L54.7818 15.4312H46.3456Z" fill="#808080"/>
</svg>
