<svg width="61" height="40" viewBox="0 0 61 40" fill="none" xmlns="http://www.w3.org/2000/svg">
<g clip-path="url(#clip0_413_47135)">
<path d="M9.10377 23.1175C6.90253 23.1387 5.13585 24.9392 5.15643 27.1399C5.15824 27.3099 5.17398 27.4764 5.19637 27.6398C5.46147 29.6026 7.14886 31.1066 9.17943 31.0866C11.2669 31.0678 12.9597 29.4482 13.1135 27.4037C13.1219 27.2918 13.1286 27.1786 13.1274 27.0636C13.1068 24.8636 11.305 23.0969 9.10377 23.1175ZM8.77271 24.6342L8.7836 25.7805C8.65832 25.815 8.54151 25.8652 8.43257 25.9318L7.61308 25.1275C7.94414 24.8708 8.33875 24.6983 8.77271 24.6342ZM7.1307 25.6195L7.95201 26.4251C7.88907 26.5358 7.84065 26.6527 7.81038 26.7767L6.66528 26.7888C6.72036 26.3525 6.88256 25.956 7.1307 25.6195ZM6.66709 27.477L7.82128 27.4655C7.85517 27.589 7.9042 27.7052 7.96896 27.8105L7.16218 28.6324C6.90798 28.3043 6.73186 27.9097 6.66709 27.477ZM7.65908 29.1141L8.46222 28.2947C8.56935 28.3564 8.68737 28.4018 8.80963 28.432L8.82052 29.5808C8.38778 29.5257 7.99317 29.3605 7.65908 29.1141ZM11.6125 26.7416L10.4662 26.7531C10.4335 26.6278 10.3826 26.5134 10.3185 26.4033L11.124 25.5838C11.3789 25.9124 11.5483 26.3071 11.6125 26.7416ZM9.46268 24.6269C9.89845 24.6838 10.2955 24.8478 10.6314 25.0978L9.82763 25.9173C9.71748 25.8537 9.59946 25.8047 9.47357 25.7732L9.46268 24.6269ZM9.50989 29.5747L9.49899 28.4266C9.62185 28.3921 9.73745 28.3455 9.84397 28.2819L10.6623 29.0863C10.3324 29.3387 9.94142 29.5124 9.50989 29.5747ZM11.1519 28.5979L10.327 27.7881C10.3893 27.6809 10.4407 27.566 10.4722 27.4419L11.6173 27.4304C11.5604 27.8631 11.4006 28.2644 11.1519 28.5979Z" fill="#808080"/>
<path d="M47.6715 23.1174C45.4703 23.1385 43.703 24.9391 43.7248 27.1398C43.726 27.3098 43.7418 27.4763 43.7642 27.6397C44.0292 29.6025 45.7166 31.1065 47.7472 31.0865C49.8347 31.0677 51.5275 29.4481 51.6812 27.4036C51.6897 27.2917 51.6964 27.1785 51.6952 27.0635C51.674 24.8635 49.8728 23.0968 47.6715 23.1174ZM47.3411 24.6341L47.352 25.7804C47.2267 25.8149 47.1105 25.8651 47.0016 25.9317L46.1821 25.1274C46.5125 24.8707 46.9065 24.6982 47.3411 24.6341ZM45.6985 25.6194L46.5192 26.425C46.4562 26.5357 46.4078 26.6525 46.3782 26.7766L45.2325 26.7887C45.2887 26.3523 45.4503 25.9559 45.6985 25.6194ZM45.2355 27.4769L46.3891 27.4654C46.4236 27.5888 46.472 27.705 46.5367 27.8104L45.73 28.6323C45.4758 28.3042 45.3002 27.9096 45.2355 27.4769ZM46.2269 29.114L47.0294 28.2945C47.1371 28.3563 47.2551 28.4017 47.3768 28.4319L47.3877 29.5807C46.9562 29.5256 46.5615 29.3604 46.2269 29.114ZM50.1802 26.7415L49.0339 26.753C49.0013 26.6277 48.9504 26.5133 48.8863 26.4032L49.6918 25.5837C49.9466 25.9123 50.1167 26.307 50.1802 26.7415ZM48.0311 24.6268C48.4674 24.6837 48.8639 24.8477 49.2004 25.0977L48.3966 25.9172C48.2859 25.8536 48.1684 25.8046 48.042 25.7731L48.0311 24.6268ZM48.0783 29.5746L48.0674 28.4265C48.1902 28.392 48.3058 28.3454 48.4124 28.2818L49.2306 29.0862C48.9008 29.3386 48.5092 29.5123 48.0783 29.5746ZM49.7197 28.5978L48.8953 27.788C48.9577 27.6808 49.0091 27.5658 49.04 27.4418L50.1851 27.4303C50.1282 27.863 49.969 28.2643 49.7197 28.5978Z" fill="#808080"/>
<path d="M60.1855 24.6082L58.8104 24.0047C58.8104 24.0047 60.0087 16.8745 56.8288 10.4317C56.6932 10.1576 56.4499 9.95179 56.157 9.86524C51.6438 8.53312 25.3862 8.68685 19.0646 9.78717C18.518 9.88279 18.0018 10.1158 17.5702 10.4644C15.7497 11.9364 11.0543 16.0441 11.0543 16.0441C11.0543 16.0441 5.6931 16.9913 3.91008 17.3302C2.35583 17.6256 1.62471 18.442 1.63137 19.5333C1.63802 20.5004 1.65679 23.4025 1.65679 23.4025L1.06426 23.5811C0.827613 23.6513 0.666016 23.8698 0.666016 24.1173V25.7339C0.666016 25.7339 0.847586 26.6738 1.65739 27.2597C1.77602 27.3463 2.72926 27.405 4.26414 27.4473C4.25627 27.3493 4.24235 27.253 4.24114 27.152C4.21572 24.4502 6.39275 22.2308 9.09452 22.2048C11.8193 22.2048 14.0175 24.3818 14.0423 27.0588C14.0435 27.1986 14.026 27.4752 14.026 27.4752L42.8213 27.2875C42.8213 27.2875 42.811 27.1992 42.8104 27.1508C42.7849 24.449 44.962 22.2296 47.6644 22.2036C50.3891 22.2036 52.5873 24.3806 52.6115 27.0576C52.6134 27.184 52.5976 27.434 52.5976 27.434L56.4233 26.8021V27.5206C56.4233 27.6846 56.5571 27.8183 56.7217 27.8183H57.3953C57.5593 27.8183 57.6931 27.6846 57.6931 27.5206V26.7513H59.8647C60.3071 26.7513 60.666 26.3918 60.666 25.9494V25.3447C60.6654 25.0246 60.4766 24.7359 60.1855 24.6082ZM23.4549 16.3189C23.4434 16.5059 23.2885 16.6517 23.1009 16.6517H16.4881C16.4881 16.6517 16.4953 14.8905 16.4596 14.4493C16.4033 13.7563 16.1165 13.493 16.1165 13.493L18.5416 11.2609C18.8303 10.9958 19.2062 10.8445 19.5978 10.8366L23.4198 10.7568C23.5191 10.7549 23.6147 10.7949 23.6837 10.8663C23.7527 10.9377 23.7878 11.0352 23.7824 11.1344L23.4549 16.3189Z" fill="#808080"/>
</g>
<defs>
<clipPath id="clip0_413_47135">
<rect width="60" height="40" fill="white" transform="translate(0.666016)"/>
</clipPath>
</defs>
</svg>
