<svg  viewBox="0 0 24 24" fill="none" xmlns="http://www.w3.org/2000/svg">
<path d="M6 20L5 22M18 20L19 22M2 12H22M3 13V4.38516C3 3.06787 4.06787 2 5.38516 2C6.36047 2 7.23752 2.59379 7.59973 3.49934L7.97885 4.44713M7.97885 4.44713C7.27582 4.78938 6.68686 5.39266 6.36212 6.19232C6.01665 7.04303 6.03563 7.95493 6.34559 8.74156L12.3063 6.17548C11.9964 5.38885 11.3955 4.72748 10.577 4.37783C9.70946 4.0072 8.77163 4.0612 7.97885 4.44713ZM12 20.5C12.6493 20.5 13.364 20.4831 14.0982 20.4555C14.3558 20.4458 14.4845 20.441 14.7053 20.4186C17.983 20.0867 20.7773 17.1854 20.9859 13.8977C21 13.6762 21 13.4784 21 13.0827C21 13.0059 21 12.9675 20.9979 12.9351C20.9653 12.4339 20.5661 12.0347 20.0649 12.0021C20.0325 12 19.9941 12 19.9173 12H4.08268C4.00591 12 3.96752 12 3.93511 12.0021C3.43395 12.0347 3.0347 12.4339 3.00211 12.9351C3 12.9675 3 13.0059 3 13.0827C3 13.4784 3 13.6762 3.01406 13.8977C3.22272 17.1854 6.01705 20.0867 9.29467 20.4186C9.51545 20.441 9.64425 20.4458 9.90183 20.4555C10.636 20.4831 11.3507 20.5 12 20.5Z" stroke="black" stroke-width="1.15" stroke-linecap="round" stroke-linejoin="round"/>
</svg>
