<svg width="80" height="40" viewBox="0 0 80 40" fill="none" xmlns="http://www.w3.org/2000/svg">
<path fill-rule="evenodd" clip-rule="evenodd" d="M29.7553 25.2857C30.8755 24.2649 31.2606 22.716 30.9105 20.7447C30.5955 19.0198 30.0004 17.8582 29.0552 17.2245C28.145 16.6261 27.0248 16.5909 25.6596 17.1189L19.3234 19.5126L21.8089 35.1774L29.4052 35.107C30.9105 35.107 31.9957 34.6493 32.6608 33.6989C33.3259 32.7484 33.466 31.3756 33.1509 29.5803C32.6958 27.1866 31.5406 25.7433 29.7553 25.2857ZM22.299 21.0617L25.6946 19.9704C27.1298 19.5128 28.005 20.1464 28.32 21.8713C28.6351 23.5962 28.04 24.6522 26.5697 24.9338L23.0341 25.6731L22.299 21.0617ZM28.4251 32.4316L24.1893 32.678L23.4192 28.0666L27.5499 27.3977C29.0552 27.1513 29.9654 27.9258 30.2804 29.7211C30.6305 31.4107 30.0004 32.326 28.4251 32.4316ZM44.668 22.4344C45.7182 21.1671 45.9982 19.2662 45.5081 16.7669C45.0881 14.5844 44.3529 13.0356 43.3728 12.1907C42.3926 11.3459 41.2374 11.2051 39.8721 11.7331L33.536 14.1268L37.4217 35.0718L45.0181 35.0014C46.5233 35.0014 47.5735 34.4029 48.1686 33.2413C48.7637 32.0444 48.7987 30.2843 48.3787 28.0314C47.7835 24.9689 46.5233 23.1032 44.668 22.4344ZM36.7566 16.4151L40.1522 15.3238C41.5875 14.8662 42.5326 15.7462 42.9527 17.9639C43.3728 20.1816 42.8827 21.4841 41.3774 21.8009L37.9118 22.5401L36.7566 16.4151ZM43.8978 31.5165L39.6621 31.7629L38.4719 25.673L42.6026 25.0042C44.1079 24.7578 45.088 25.7786 45.5431 28.0667C45.9982 30.2844 45.4381 31.4109 43.8978 31.5165ZM61.9961 18.8086L65.3567 34.8606H63.8164L62.3811 32.0796C61.821 34.3677 60.6308 35.4942 58.8805 35.4942C56.9552 35.4942 55.2399 34.6494 53.8396 32.9949C52.4394 31.3756 51.4242 29.1227 50.8641 26.2362L49.1488 17.7174C48.5537 14.7605 48.6237 12.2963 49.3588 10.2547C50.0589 8.17776 51.3542 6.73449 53.2445 6.03046C54.8198 5.39683 56.3601 5.74885 57.7953 7.05131C59.2656 8.42417 60.3508 10.8179 61.0509 14.162L61.0859 14.338L58.4254 15.0069L58.3904 14.8309C58.0404 13.2116 57.4803 11.9795 56.7101 11.1699C55.94 10.3955 55.0298 10.149 54.0497 10.4659C53.0345 10.7827 52.3344 11.5219 51.9143 12.6484C51.4942 13.7748 51.4592 15.1125 51.7743 16.6965L53.6296 25.849C53.9796 27.5386 54.5397 28.8059 55.3449 29.7211C56.15 30.6364 57.0952 31.094 58.1804 31.0236C58.9505 30.9884 59.5806 30.6364 60.0707 29.9675C60.5608 29.2987 60.8759 28.3835 60.9809 27.257L60.2108 23.4553L57.0602 23.9129L56.22 19.8647L61.9961 18.8086ZM79.2541 22.5752L76.7337 10.9587C75.8585 6.9457 74.6333 3.95356 73.058 2.01747C71.4827 0.15179 69.8024 -0.411435 67.9821 0.292596C66.1618 0.996628 64.9366 2.6159 64.3065 5.08001C63.6763 7.50892 63.7114 10.4307 64.4465 13.986L66.6169 24.1945C67.352 27.7146 68.5072 30.4604 70.1175 32.4669C71.7278 34.5086 73.5481 35.5646 75.5435 35.5646C77.5388 35.5646 78.9041 34.4381 79.5692 32.15C80.2343 29.7563 80.1293 26.5882 79.2541 22.5752ZM76.6987 28.2076C76.3136 29.4748 75.5785 30.1437 74.4233 30.2141C73.3031 30.2845 72.2879 29.7213 71.3778 28.5948C70.5026 27.4684 69.8375 25.9547 69.4524 24.089L67.107 13.0005C66.7219 11.0996 66.6869 9.48034 67.037 8.14268C67.387 6.76982 68.0872 5.92498 69.1374 5.57296C70.1875 5.22095 71.1677 5.57296 72.0429 6.62901C72.918 7.68506 73.5831 9.26913 74.0032 11.2756L76.5937 23.209C77.0138 25.2507 77.0488 26.9051 76.6987 28.2076ZM18.7984 35.5294H8.9966L5.70602 40L4.02572 35.5294H1.43526L0 26.8346L16.2779 21.0263L18.7984 35.5294Z" fill="black"/>
</svg>
