<svg width="25" height="24" viewBox="0 0 25 24" fill="none" xmlns="http://www.w3.org/2000/svg">
<path d="M16.5 8V5.2C16.5 4.0799 16.5 3.51984 16.282 3.09202C16.0903 2.71569 15.7843 2.40973 15.408 2.21799C14.9802 2 14.4201 2 13.3 2H5.7C4.5799 2 4.01984 2 3.59202 2.21799C3.21569 2.40973 2.90973 2.71569 2.71799 3.09202C2.5 3.51984 2.5 4.0799 2.5 5.2V12.8C2.5 13.9201 2.5 14.4802 2.71799 14.908C2.90973 15.2843 3.21569 15.5903 3.59202 15.782C4.01984 16 4.5799 16 5.7 16H8.5M12.5 15L14.5 17L19 12.5M11.7 22H19.3C20.4201 22 20.9802 22 21.408 21.782C21.7843 21.5903 22.0903 21.2843 22.282 20.908C22.5 20.4802 22.5 19.9201 22.5 18.8V11.2C22.5 10.0799 22.5 9.51984 22.282 9.09202C22.0903 8.71569 21.7843 8.40973 21.408 8.21799C20.9802 8 20.4201 8 19.3 8H11.7C10.5799 8 10.0198 8 9.59202 8.21799C9.21569 8.40973 8.90973 8.71569 8.71799 9.09202C8.5 9.51984 8.5 10.0799 8.5 11.2V18.8C8.5 19.9201 8.5 20.4802 8.71799 20.908C8.90973 21.2843 9.21569 21.5903 9.59202 21.782C10.0198 22 10.5799 22 11.7 22Z" stroke="black" stroke-width="1.15" stroke-linecap="round" stroke-linejoin="round"/>
</svg>
