<svg width="41" height="40" viewBox="0 0 41 40" fill="none" xmlns="http://www.w3.org/2000/svg">
<rect x="0.5" width="40" height="40" rx="20" fill="#F5F5F7"/>
<path d="M28.5 29C28.5 27.6044 28.5 26.9067 28.3278 26.3389C27.94 25.0605 26.9395 24.06 25.6611 23.6722C25.0933 23.5 24.3956 23.5 23 23.5H18C16.6044 23.5 15.9067 23.5 15.3389 23.6722C14.0605 24.06 13.06 25.0605 12.6722 26.3389C12.5 26.9067 12.5 27.6044 12.5 29M25 15.5C25 17.9853 22.9853 20 20.5 20C18.0147 20 16 17.9853 16 15.5C16 13.0147 18.0147 11 20.5 11C22.9853 11 25 13.0147 25 15.5Z" stroke="black" stroke-width="1.15" stroke-linecap="round" stroke-linejoin="round"/>
</svg>
