<svg viewBox="0 0 44 44" fill="none" xmlns="http://www.w3.org/2000/svg">
<path d="M7.33203 14.6667C7.33203 9.4813 7.33203 6.88857 8.94294 5.27766C10.5539 3.66675 13.1466 3.66675 18.332 3.66675H25.6654C30.8508 3.66675 33.4435 3.66675 35.0545 5.27766C36.6654 6.88857 36.6654 9.4813 36.6654 14.6667V29.3334C36.6654 34.5189 36.6654 37.1116 35.0545 38.7225C33.4435 40.3334 30.8508 40.3334 25.6654 40.3334H18.332C13.1466 40.3334 10.5539 40.3334 8.94294 38.7225C7.33203 37.1116 7.33203 34.5189 7.33203 29.3334V14.6667Z" stroke="#5BB75F" stroke-width="2"/>
<path d="M36.478 29.3333H14.478C12.773 29.3333 11.9205 29.3333 11.2211 29.5207C9.32311 30.0292 7.8406 31.5117 7.33203 33.4097" stroke="#5BB75F" stroke-width="2"/>
<path d="M14.668 12.8333H29.3346" stroke="#5BB75F" stroke-width="2" stroke-linecap="round"/>
<path d="M14.668 19.25H23.8346" stroke="#5BB75F" stroke-width="2" stroke-linecap="round"/>
</svg>
