<svg width="84" height="84" viewBox="0 0 84 84" fill="none" xmlns="http://www.w3.org/2000/svg">
<rect width="84" height="84" rx="42" fill="#EBFAEC"/>
<path d="M60.3346 39.2501V42.0001C60.3346 50.6425 60.3346 54.9637 57.6498 57.6486C54.9649 60.3334 50.6437 60.3334 42.0013 60.3334C33.3589 60.3334 29.0377 60.3334 26.3528 57.6486C23.668 54.9637 23.668 50.6425 23.668 42.0001C23.668 33.3577 23.668 29.0365 26.3528 26.3516C29.0377 23.6667 33.3589 23.6667 42.0013 23.6667H44.7513M49.3346 31.7334L51.9537 34.6667L58.5013 27.3334M32.8346 45.6667H49.3346M32.8346 38.8696H43.8346M32.8346 52.0834H43.8346" stroke="#5BB75F" stroke-width="2" stroke-linecap="round" stroke-linejoin="round"/>
</svg>
