<svg width="44" height="44" viewBox="0 0 44 44" fill="none" xmlns="http://www.w3.org/2000/svg">
<path d="M29.3332 14.6665V9.53317C29.3332 7.47964 29.3332 6.45288 28.9335 5.66854C28.582 4.97861 28.0211 4.41768 27.3311 4.06615C26.5468 3.6665 25.52 3.6665 23.4665 3.6665H9.53317C7.47964 3.6665 6.45288 3.6665 5.66854 4.06615C4.97861 4.41768 4.41768 4.97861 4.06615 5.66854C3.6665 6.45288 3.6665 7.47964 3.6665 9.53317V23.4665C3.6665 25.52 3.6665 26.5468 4.06615 27.3311C4.41768 28.0211 4.97861 28.582 5.66854 28.9335C6.45288 29.3332 7.47964 29.3332 9.53317 29.3332H14.6665M20.5332 40.3332H34.4665C36.52 40.3332 37.5468 40.3332 38.3311 39.9335C39.0211 39.582 39.582 39.0211 39.9335 38.3311C40.3332 37.5468 40.3332 36.52 40.3332 34.4665V20.5332C40.3332 18.4796 40.3332 17.4529 39.9335 16.6685C39.582 15.9786 39.0211 15.4177 38.3311 15.0661C37.5468 14.6665 36.52 14.6665 34.4665 14.6665H20.5332C18.4796 14.6665 17.4529 14.6665 16.6685 15.0661C15.9786 15.4177 15.4177 15.9786 15.0661 16.6685C14.6665 17.4529 14.6665 18.4796 14.6665 20.5332V34.4665C14.6665 36.52 14.6665 37.5468 15.0661 38.3311C15.4177 39.0211 15.9786 39.582 16.6685 39.9335C17.4529 40.3332 18.4796 40.3332 20.5332 40.3332Z" stroke="#FF5A27" stroke-width="2" stroke-linecap="round" stroke-linejoin="round"/>
<path d="M23.5 31.75L31.75 23.5" stroke="#FF5A27" stroke-width="2" stroke-linecap="round" stroke-linejoin="round"/>
<path d="M31.75 31.75L23.5 23.5" stroke="#FF5A27" stroke-width="2" stroke-linecap="round" stroke-linejoin="round"/>
</svg>
