<svg width="25" height="24" viewBox="0 0 25 24" fill="none" xmlns="http://www.w3.org/2000/svg">
<path d="M16.168 7C16.168 6.07003 16.168 5.60504 16.0657 5.22354C15.7883 4.18827 14.9797 3.37962 13.9444 3.10222C13.5629 3 13.0979 3 12.168 3C11.238 3 10.773 3 10.3915 3.10222C9.35624 3.37962 8.54759 4.18827 8.27019 5.22354C8.16797 5.60504 8.16797 6.07003 8.16797 7M5.36797 21H18.968C20.0881 21 20.6481 21 21.076 20.782C21.4523 20.5903 21.7582 20.2843 21.95 19.908C22.168 19.4802 22.168 18.9201 22.168 17.8V10.2C22.168 9.07989 22.168 8.51984 21.95 8.09202C21.7582 7.71569 21.4523 7.40973 21.076 7.21799C20.6481 7 20.0881 7 18.968 7H5.36797C4.24786 7 3.68781 7 3.25999 7.21799C2.88366 7.40973 2.5777 7.71569 2.38596 8.09202C2.16797 8.51984 2.16797 9.07989 2.16797 10.2V17.8C2.16797 18.9201 2.16797 19.4802 2.38596 19.908C2.5777 20.2843 2.88366 20.5903 3.25999 20.782C3.68781 21 4.24786 21 5.36797 21Z" stroke="#808080" stroke-width="1.15" stroke-linecap="round" stroke-linejoin="round"/>
</svg>
