<svg width="44" height="45" viewBox="0 0 44 45" fill="none" xmlns="http://www.w3.org/2000/svg">
<path fill-rule="evenodd" clip-rule="evenodd" d="M14.1775 38.6865C13.2483 39.1716 12.1241 39.0862 11.2788 38.4663C10.4335 37.8464 10.0141 36.7999 10.1974 35.7678L11.6805 27.2667L5.4362 21.2827C4.67293 20.5548 4.39321 19.4545 4.71617 18.4505C5.03913 17.4464 5.90788 16.7156 6.95236 16.5692L15.6222 15.3298L19.5364 7.52168C20.0005 6.58525 20.9552 5.99283 22.0004 5.99283C23.0455 5.99283 24.0003 6.58525 24.4644 7.52168L28.3785 15.3298L37.0484 16.5692C38.0929 16.7156 38.9616 17.4464 39.2846 18.4505C39.6075 19.4545 39.3278 20.5548 38.5645 21.2827L32.3202 27.2667L33.8034 35.7697C33.9866 36.8018 33.5672 37.8483 32.7219 38.4681C31.8766 39.088 30.7524 39.1734 29.8232 38.6883L22.0004 34.6458L14.1775 38.6865Z" stroke="#FF5A27" stroke-width="2" stroke-linecap="round" stroke-linejoin="round"/>
</svg>
