<svg width="24" height="25" viewBox="0 0 24 25" fill="none" xmlns="http://www.w3.org/2000/svg">
<path d="M8.41421 18.9142C8.78929 18.5391 9 18.0304 9 17.5C9 16.9696 8.78929 16.4609 8.41421 16.0858C8.03914 15.7107 7.53043 15.5 7 15.5C6.46957 15.5 5.96086 15.7107 5.58579 16.0858C5.21071 16.4609 5 16.9696 5 17.5C5 18.0304 5.21071 18.5391 5.58579 18.9142C5.96086 19.2893 6.46957 19.5 7 19.5C7.53043 19.5 8.03914 19.2893 8.41421 18.9142Z" stroke="#42526E" stroke-opacity="0.86"/>
<path d="M18.4142 18.9142C18.7893 18.5391 19 18.0304 19 17.5C19 16.9696 18.7893 16.4609 18.4142 16.0858C18.0391 15.7107 17.5304 15.5 17 15.5C16.4696 15.5 15.9609 15.7107 15.5858 16.0858C15.2107 16.4609 15 16.9696 15 17.5C15 18.0304 15.2107 18.5391 15.5858 18.9142C15.9609 19.2893 16.4696 19.5 17 19.5C17.5304 19.5 18.0391 19.2893 18.4142 18.9142Z" stroke="#42526E" stroke-opacity="0.86"/>
<path d="M13 16.5V6.5C13 6.23478 12.8946 5.98043 12.7071 5.79289C12.5196 5.60536 12.2652 5.5 12 5.5H4C3.73478 5.5 3.48043 5.60536 3.29289 5.79289C3.10536 5.98043 3 6.23478 3 6.5V16.5C3 16.7652 3.10536 17.0196 3.29289 17.2071C3.48043 17.3946 3.73478 17.5 4 17.5H5M13 16.5C13 16.7652 12.8946 17.0196 12.7071 17.2071C12.5196 17.3946 12.2652 17.5 12 17.5H9M13 16.5V8.5C13 8.23478 13.1054 7.98043 13.2929 7.79289C13.4804 7.60536 13.7348 7.5 14 7.5H16.586C16.8512 7.50006 17.1055 7.60545 17.293 7.793L20.707 11.207C20.8946 11.3945 20.9999 11.6488 21 11.914V16.5C21 16.7652 20.8946 17.0196 20.7071 17.2071C20.5196 17.3946 20.2652 17.5 20 17.5H19M13 16.5C13 16.7652 13.1054 17.0196 13.2929 17.2071C13.4804 17.3946 13.7348 17.5 14 17.5H15M5 17.5C5 18.0304 5.21071 18.5391 5.58579 18.9142C5.96086 19.2893 6.46957 19.5 7 19.5C7.53043 19.5 8.03914 19.2893 8.41421 18.9142C8.78929 18.5391 9 18.0304 9 17.5M5 17.5C5 16.9696 5.21071 16.4609 5.58579 16.0858C5.96086 15.7107 6.46957 15.5 7 15.5C7.53043 15.5 8.03914 15.7107 8.41421 16.0858C8.78929 16.4609 9 16.9696 9 17.5M19 17.5C19 18.0304 18.7893 18.5391 18.4142 18.9142C18.0391 19.2893 17.5304 19.5 17 19.5C16.4696 19.5 15.9609 19.2893 15.5858 18.9142C15.2107 18.5391 15 18.0304 15 17.5M19 17.5C19 16.9696 18.7893 16.4609 18.4142 16.0858C18.0391 15.7107 17.5304 15.5 17 15.5C16.4696 15.5 15.9609 15.7107 15.5858 16.0858C15.2107 16.4609 15 16.9696 15 17.5" stroke="#38953C" stroke-width="1.15" stroke-linecap="round" stroke-linejoin="round"/>
</svg>
