<svg viewBox="0 0 24 24" fill="none" xmlns="http://www.w3.org/2000/svg">
<path d="M12 12.9375C12.5178 12.9375 12.9375 12.5178 12.9375 12C12.9375 11.4822 12.5178 11.0625 12 11.0625C11.4822 11.0625 11.0625 11.4822 11.0625 12C11.0625 12.5178 11.4822 12.9375 12 12.9375Z" fill="#808080"/>
<path d="M12 6.375C12.5178 6.375 12.9375 5.95527 12.9375 5.4375C12.9375 4.91973 12.5178 4.5 12 4.5C11.4822 4.5 11.0625 4.91973 11.0625 5.4375C11.0625 5.95527 11.4822 6.375 12 6.375Z" fill="#808080"/>
<path d="M12 19.5C12.5178 19.5 12.9375 19.0803 12.9375 18.5625C12.9375 18.0447 12.5178 17.625 12 17.625C11.4822 17.625 11.0625 18.0447 11.0625 18.5625C11.0625 19.0803 11.4822 19.5 12 19.5Z" fill="#808080"/>
<path d="M12 12.9375C12.5178 12.9375 12.9375 12.5178 12.9375 12C12.9375 11.4822 12.5178 11.0625 12 11.0625C11.4822 11.0625 11.0625 11.4822 11.0625 12C11.0625 12.5178 11.4822 12.9375 12 12.9375Z" stroke="#808080" stroke-width="1.15" stroke-linecap="round" stroke-linejoin="round"/>
<path d="M12 6.375C12.5178 6.375 12.9375 5.95527 12.9375 5.4375C12.9375 4.91973 12.5178 4.5 12 4.5C11.4822 4.5 11.0625 4.91973 11.0625 5.4375C11.0625 5.95527 11.4822 6.375 12 6.375Z" stroke="#808080" stroke-width="1.15" stroke-linecap="round" stroke-linejoin="round"/>
<path d="M12 19.5C12.5178 19.5 12.9375 19.0803 12.9375 18.5625C12.9375 18.0447 12.5178 17.625 12 17.625C11.4822 17.625 11.0625 18.0447 11.0625 18.5625C11.0625 19.0803 11.4822 19.5 12 19.5Z" stroke="#808080" stroke-width="1.15" stroke-linecap="round" stroke-linejoin="round"/>
</svg>
