<svg width="24" height="24" viewBox="0 0 24 24" fill="none" xmlns="http://www.w3.org/2000/svg">
<path d="M2.52851 6.7735C2.40341 6.48161 2.06538 6.3464 1.7735 6.47149C1.48161 6.59659 1.3464 6.93462 1.47149 7.2265L2.52851 6.7735ZM15.5872 13.3287L15.3766 12.7937L15.5872 13.3287ZM8.89477 13.6423C9.06796 13.3761 8.99259 13.0199 8.72641 12.8467C8.46023 12.6735 8.10405 12.7489 7.93085 13.0151L8.89477 13.6423ZM6.51804 15.1864C6.34485 15.4526 6.42023 15.8088 6.6864 15.982C6.95258 16.1552 7.30876 16.0798 7.48196 15.8136L6.51804 15.1864ZM22.5285 7.2265C22.6536 6.93462 22.5184 6.59659 22.2265 6.47149C21.9346 6.3464 21.5966 6.48161 21.4715 6.7735L22.5285 7.2265ZM19 11.1288L18.6065 10.7096V10.7096L19 11.1288ZM20.0934 13.0354C20.318 13.26 20.682 13.26 20.9066 13.0354C21.1311 12.8109 21.1311 12.4468 20.9066 12.2223L20.0934 13.0354ZM11.425 16.5C11.425 16.8176 11.6824 17.075 12 17.075C12.3176 17.075 12.575 16.8176 12.575 16.5H11.425ZM16.518 15.8136C16.6912 16.0798 17.0474 16.1552 17.3136 15.982C17.5798 15.8088 17.6552 15.4526 17.482 15.1864L16.518 15.8136ZM5.40659 11.5354C5.63114 11.3109 5.63114 10.9468 5.40659 10.7223C5.18203 10.4977 4.81797 10.4977 4.59341 10.7223L5.40659 11.5354ZM3.09341 12.2223C2.86886 12.4468 2.86886 12.8109 3.09341 13.0354C3.31797 13.26 3.68203 13.26 3.90659 13.0354L3.09341 12.2223ZM12 13.425C8.71168 13.425 6.35368 11.7859 4.79636 10.1087C4.01786 9.27036 3.44753 8.43018 3.07222 7.79965C2.88489 7.48493 2.74703 7.22395 2.65687 7.04363C2.61182 6.95352 2.57874 6.88368 2.5574 6.8375C2.54674 6.81441 2.53902 6.79725 2.53421 6.78644C2.53181 6.78103 2.53013 6.77722 2.52918 6.77504C2.52871 6.77395 2.52842 6.77328 2.5283 6.77302C2.52825 6.77289 2.52824 6.77286 2.52827 6.77294C2.52829 6.77298 2.52835 6.77312 2.52836 6.77314C2.52843 6.7733 2.52851 6.7735 2 7C1.47149 7.2265 1.4716 7.22675 1.47171 7.22702C1.47177 7.22715 1.4719 7.22745 1.472 7.2277C1.47222 7.2282 1.47249 7.22881 1.4728 7.22953C1.47342 7.23097 1.47422 7.23283 1.47522 7.23511C1.47721 7.23966 1.47994 7.24588 1.48343 7.25372C1.4904 7.2694 1.50038 7.29155 1.5134 7.31973C1.53943 7.37609 1.57764 7.45664 1.62828 7.55793C1.72953 7.76042 1.88074 8.04632 2.08403 8.38785C2.48997 9.06982 3.10714 9.97964 3.95364 10.8913C5.64632 12.7141 8.28832 14.575 12 14.575V13.425ZM15.3766 12.7937C14.3867 13.1833 13.2646 13.425 12 13.425V14.575C13.4153 14.575 14.68 14.3037 15.7978 13.8637L15.3766 12.7937ZM7.93085 13.0151L6.51804 15.1864L7.48196 15.8136L8.89477 13.6423L7.93085 13.0151ZM22 7C21.4715 6.7735 21.4715 6.77338 21.4716 6.77328C21.4716 6.77325 21.4716 6.77316 21.4717 6.77311C21.4717 6.77301 21.4717 6.77295 21.4717 6.77292C21.4718 6.77286 21.4717 6.77293 21.4716 6.77313C21.4715 6.77353 21.4711 6.77446 21.4704 6.7759C21.4692 6.77878 21.467 6.78371 21.4639 6.79062C21.4578 6.80444 21.4479 6.82616 21.4344 6.85519C21.4073 6.91327 21.3655 7.00051 21.3085 7.11218C21.1945 7.33563 21.0205 7.65608 20.784 8.03575C20.3098 8.79674 19.59 9.78648 18.6065 10.7096L19.3935 11.5481C20.4686 10.539 21.2488 9.46429 21.76 8.64392C22.0161 8.2329 22.2061 7.88344 22.333 7.63465C22.3964 7.51019 22.4442 7.41073 22.4767 7.34113C22.4929 7.30632 22.5053 7.27896 22.5139 7.25966C22.5182 7.25001 22.5216 7.24237 22.524 7.23682C22.5252 7.23405 22.5262 7.23179 22.527 7.23007C22.5273 7.22921 22.5277 7.22848 22.5279 7.22788C22.528 7.22759 22.5282 7.22732 22.5283 7.22709C22.5283 7.22698 22.5284 7.22683 22.5284 7.22677C22.5285 7.22663 22.5285 7.2265 22 7ZM18.6065 10.7096C17.7349 11.5276 16.6627 12.2874 15.3766 12.7937L15.7978 13.8637C17.2466 13.2935 18.4394 12.4436 19.3935 11.5481L18.6065 10.7096ZM18.5934 11.5354L20.0934 13.0354L20.9066 12.2223L19.4066 10.7223L18.5934 11.5354ZM11.425 14V16.5H12.575V14H11.425ZM15.1052 13.6423L16.518 15.8136L17.482 15.1864L16.0691 13.0151L15.1052 13.6423ZM4.59341 10.7223L3.09341 12.2223L3.90659 13.0354L5.40659 11.5354L4.59341 10.7223Z" fill="#808080"/>
</svg>
