<svg  viewBox="0 0 24 24" fill="none" xmlns="http://www.w3.org/2000/svg">
<path d="M22.5005 12.2331C22.5005 11.3698 22.4291 10.7398 22.2744 10.0864H12.2148V13.983H18.1196C18.0006 14.9514 17.3577 16.4097 15.9291 17.3897L15.9091 17.5202L19.0897 19.9349L19.3101 19.9564C21.3338 18.1247 22.5005 15.4297 22.5005 12.2331" fill="#4285F4"/>
<path d="M12.2159 22.5001C15.1088 22.5001 17.5373 21.5667 19.3111 19.9567L15.9302 17.39C15.0255 18.0083 13.8111 18.44 12.2159 18.44C9.38264 18.44 6.97791 16.6083 6.12069 14.0767L5.99504 14.0871L2.68778 16.5955L2.64453 16.7133C4.40641 20.1433 8.02545 22.5001 12.2159 22.5001Z" fill="#34A853"/>
<path d="M6.119 14.0767C5.89281 13.4234 5.76191 12.7233 5.76191 12C5.76191 11.2767 5.89281 10.5767 6.1071 9.92337L6.10111 9.78423L2.75239 7.2356L2.64283 7.28667C1.91667 8.71002 1.5 10.3084 1.5 12C1.5 13.6917 1.91667 15.29 2.64283 16.7133L6.119 14.0767" fill="#FBBC05"/>
<path d="M12.216 5.55997C14.2279 5.55997 15.585 6.41163 16.3588 7.12335L19.3826 4.23C17.5256 2.53834 15.1088 1.5 12.216 1.5C8.02548 1.5 4.40642 3.85665 2.64453 7.28662L6.10881 9.92332C6.97794 7.39166 9.38268 5.55997 12.216 5.55997" fill="#EB4335"/>
</svg>
