<svg width="24" height="24" viewBox="0 0 24 24" fill="none" xmlns="http://www.w3.org/2000/svg">
<path d="M22.5 10.8734C22.5 6.11844 17.7899 2.25 11.9999 2.25C6.2107 2.25 1.5 6.11844 1.5 10.8734C1.5 15.1362 5.23547 18.7062 10.2813 19.3813C10.6233 19.4559 11.0887 19.6095 11.2064 19.9053C11.3123 20.174 11.2757 20.5948 11.2402 20.8662C11.2402 20.8662 11.1171 21.616 11.0905 21.7757C11.0448 22.0444 10.8795 22.8265 11.9999 22.3486C13.1207 21.8707 18.0469 18.7452 20.2498 16.179C21.7715 14.4903 22.5 12.7765 22.5 10.8734Z" fill="#2CCF54"/>
<path d="M9.867 8.56841H9.13049C9.01757 8.56841 8.92578 8.66099 8.92578 8.77473V13.3996C8.92578 13.5136 9.01757 13.606 9.13049 13.606H9.867C9.97992 13.606 10.0715 13.5136 10.0715 13.3996V8.77473C10.0715 8.66099 9.97992 8.56841 9.867 8.56841Z" fill="white"/>
<path d="M14.9341 8.56841H14.1976C14.0846 8.56841 13.9931 8.66099 13.9931 8.77473V11.5224L11.8965 8.66018C11.8577 8.60138 11.7948 8.57227 11.7262 8.56841H10.9899C10.8769 8.56841 10.7852 8.66099 10.7852 8.77473V13.3996C10.7852 13.5136 10.8769 13.606 10.9899 13.606H11.7262C11.8393 13.606 11.9309 13.5136 11.9309 13.3996V10.6528L14.0301 13.5187C14.0678 13.5726 14.1318 13.606 14.1976 13.606H14.9341C15.0472 13.606 15.1386 13.5136 15.1386 13.3996V8.77473C15.1386 8.66099 15.0472 8.56841 14.9341 8.56841Z" fill="white"/>
<path d="M8.09202 12.4478H6.09083V8.77494C6.09083 8.66079 5.99925 8.56821 5.88653 8.56821H5.14982C5.0369 8.56821 4.94531 8.66079 4.94531 8.77494V13.399C4.94531 13.5113 5.03649 13.606 5.14962 13.606H8.09202C8.20494 13.606 8.29613 13.5132 8.29613 13.399V12.6545C8.29613 12.5404 8.20494 12.4478 8.09202 12.4478Z" fill="white"/>
<path d="M19.0022 9.72637C19.1151 9.72637 19.2063 9.63399 19.2063 9.51964V8.77514C19.2063 8.66099 19.1151 8.56821 19.0022 8.56821H16.06C15.947 8.56821 15.8555 8.66271 15.8555 8.77494V13.3992C15.8555 13.5112 15.9467 13.606 16.0596 13.606H19.0022C19.1151 13.606 19.2063 13.5132 19.2063 13.3992V12.6545C19.2063 12.5406 19.1151 12.4478 19.0022 12.4478H17.0012V11.6661H19.0022C19.1151 11.6661 19.2063 11.5735 19.2063 11.4593V10.7148C19.2063 10.6007 19.1151 10.5079 19.0022 10.5079H17.0012V9.72637H19.0022Z" fill="white"/>
</svg>
