<svg width="45" height="45" viewBox="0 0 45 45" fill="none" xmlns="http://www.w3.org/2000/svg">
<path d="M25.6986 5.32825L39.4999 14.2991C39.9876 14.6161 40.2314 14.7746 40.4081 14.986C40.5645 15.1732 40.682 15.3896 40.7537 15.6228C40.8346 15.8861 40.8346 16.1769 40.8346 16.7586V30.2C40.8346 33.2803 40.8346 34.8205 40.2352 35.997C39.7079 37.0319 38.8665 37.8733 37.8316 38.4006C36.6551 39 35.1149 39 32.0346 39H12.968C9.88768 39 8.34754 39 7.17102 38.4006C6.13613 37.8733 5.29474 37.0319 4.76743 35.997C4.16797 34.8205 4.16797 33.2803 4.16797 30.2V16.7586C4.16797 16.1769 4.16797 15.8861 4.24895 15.6228C4.32063 15.3896 4.4381 15.1732 4.59449 14.986C4.77116 14.7746 5.01499 14.6161 5.50267 14.2991L19.304 5.32825M25.6986 5.32825C24.5413 4.57602 23.9626 4.1999 23.3392 4.05356C22.7881 3.9242 22.2145 3.9242 21.6634 4.05356C21.04 4.1999 20.4613 4.57602 19.304 5.32825M25.6986 5.32825L38.9428 13.937C39.5733 14.3468 39.8886 14.5517 39.9977 14.8116C40.0932 15.0387 40.0932 15.2947 39.9977 15.5218C39.8886 15.7816 39.5733 15.9866 38.9428 16.3964L25.6986 25.0051C24.5413 25.7574 23.9626 26.1335 23.3392 26.2798C22.7881 26.4092 22.2145 26.4092 21.6634 26.2798C21.04 26.1335 20.4613 25.7574 19.304 25.0051L6.05984 16.3964C5.42931 15.9866 5.11405 15.7816 5.00486 15.5218C4.90944 15.2947 4.90944 15.0387 5.00486 14.8116C5.11405 14.5517 5.42931 14.3468 6.05984 13.937L19.304 5.32825" stroke="#5BB75F" stroke-width="2" stroke-linecap="round" stroke-linejoin="round"/>
</svg>
