<svg  viewBox="0 0 24 24" fill="none" xmlns="http://www.w3.org/2000/svg">
<path d="M6 13.1531C4.163 13.9771 3 15.1691 3 16.5001C3 18.9851 7.029 21.0001 12 21.0001C16.971 21.0001 21 18.9851 21 16.5001C21 15.1691 19.837 13.9771 18 13.1531" stroke="#808080" stroke-width="1.15" stroke-linecap="round" stroke-linejoin="round"/>
<path d="M15.6517 17C14.568 17.7051 13.2914 18.0547 11.9997 18C10.7079 18.0547 9.43132 17.7051 8.34766 17" stroke="#808080" stroke-width="1.15" stroke-linecap="round" stroke-linejoin="round"/>
<path d="M14.2 3.91307C15.0915 4.80451 15.3582 6.1452 14.8757 7.30996C14.3933 8.47472 13.2567 9.23417 11.996 9.23417C10.7353 9.23417 9.59869 8.47472 9.11625 7.30996C8.63381 6.1452 8.90051 4.80451 9.792 3.91307C10.3764 3.3283 11.1693 2.99976 11.996 2.99976C12.8227 2.99976 13.6156 3.3283 14.2 3.91307" stroke="#808080" stroke-width="1.15" stroke-linecap="round" stroke-linejoin="round"/>
<path d="M12 9.23193V14.9999" stroke="#808080" stroke-width="1.15" stroke-linecap="round" stroke-linejoin="round"/>
</svg>
