<svg width="44" height="44" viewBox="0 0 44 44" fill="none" xmlns="http://www.w3.org/2000/svg">
<path d="M3.66669 12.8333L13.1887 19.1813C13.7381 19.5476 14.0127 19.7307 14.3099 19.8604C14.5737 19.9756 14.8501 20.0592 15.1334 20.1097C15.4526 20.1666 15.7827 20.1666 16.443 20.1666H27.5571C28.2173 20.1666 28.5474 20.1666 28.8666 20.1097C29.15 20.0592 29.4264 19.9756 29.6901 19.8604C29.9873 19.7307 30.262 19.5476 30.8113 19.1813L40.3334 12.8333M12.4667 36.6666H31.5334C34.6136 36.6666 36.1538 36.6666 37.3303 36.0672C38.3652 35.5399 39.2066 34.6985 39.7339 33.6636C40.3334 32.4871 40.3334 30.9469 40.3334 27.8666V16.1333C40.3334 13.053 40.3334 11.5129 39.7339 10.3364C39.2066 9.30147 38.3652 8.46008 37.3303 7.93278C36.1538 7.33331 34.6136 7.33331 31.5334 7.33331H12.4667C9.3864 7.33331 7.84625 7.33331 6.66974 7.93278C5.63485 8.46008 4.79345 9.30147 4.26615 10.3364C3.66669 11.5129 3.66669 13.053 3.66669 16.1333V27.8666C3.66669 30.9469 3.66669 32.4871 4.26615 33.6636C4.79345 34.6985 5.63485 35.5399 6.66974 36.0672C7.84625 36.6666 9.3864 36.6666 12.4667 36.6666Z" stroke="#5BB75F" stroke-width="2" stroke-linecap="round" stroke-linejoin="round"/>
</svg>
