<svg viewBox="0 0 25 24" fill="none" xmlns="http://www.w3.org/2000/svg">
<path d="M2.5 7L7.69384 10.4626C7.99349 10.6623 8.14331 10.7622 8.3054 10.833C8.44927 10.8958 8.60003 10.9414 8.75458 10.969C8.92869 11 9.10876 11 9.46888 11H15.5311C15.8912 11 16.0713 11 16.2454 10.969C16.4 10.9414 16.5507 10.8958 16.6946 10.833C16.8567 10.7622 17.0065 10.6623 17.3062 10.4626L22.5 7M7.3 20H17.7C19.3802 20 20.2202 20 20.862 19.673C21.4265 19.3854 21.8854 18.9265 22.173 18.362C22.5 17.7202 22.5 16.8802 22.5 15.2V8.8C22.5 7.11984 22.5 6.27976 22.173 5.63803C21.8854 5.07354 21.4265 4.6146 20.862 4.32698C20.2202 4 19.3802 4 17.7 4H7.3C5.61984 4 4.77976 4 4.13803 4.32698C3.57354 4.6146 3.1146 5.07354 2.82698 5.63803C2.5 6.27976 2.5 7.11984 2.5 8.8V15.2C2.5 16.8802 2.5 17.7202 2.82698 18.362C3.1146 18.9265 3.57354 19.3854 4.13803 19.673C4.77976 20 5.61984 20 7.3 20Z" stroke="black" stroke-width="1.15" stroke-linecap="round" stroke-linejoin="round"/>
</svg>
