<svg width="20" height="20" viewBox="0 0 20 20" fill="none" xmlns="http://www.w3.org/2000/svg">
<path d="M1.66675 6.98101C1.66675 6.68908 1.66675 6.54311 1.67893 6.42017C1.79642 5.23438 2.73447 4.29632 3.92026 4.17884C4.0432 4.16666 4.19705 4.16666 4.50473 4.16666C4.62329 4.16666 4.68257 4.16666 4.7329 4.16361C5.37559 4.12469 5.93837 3.71905 6.17854 3.12166C6.19734 3.07487 6.21492 3.02213 6.25008 2.91666C6.28524 2.81118 6.30282 2.75844 6.32163 2.71166C6.56179 2.11426 7.12457 1.70863 7.76726 1.6697C7.81759 1.66666 7.87318 1.66666 7.98436 1.66666H12.0158C12.127 1.66666 12.1826 1.66666 12.2329 1.6697C12.8756 1.70863 13.4384 2.11426 13.6785 2.71166C13.6973 2.75844 13.7149 2.81118 13.7501 2.91666C13.7852 3.02213 13.8028 3.07487 13.8216 3.12166C14.0618 3.71905 14.6246 4.12469 15.2673 4.16361C15.3176 4.16666 15.3769 4.16666 15.4954 4.16666C15.8031 4.16666 15.957 4.16666 16.0799 4.17884C17.2657 4.29632 18.2037 5.23438 18.3212 6.42017C18.3334 6.54311 18.3334 6.68908 18.3334 6.98101V13.5C18.3334 14.9001 18.3334 15.6002 18.0609 16.135C17.8212 16.6054 17.4388 16.9878 16.9684 17.2275C16.4336 17.5 15.7335 17.5 14.3334 17.5H5.66675C4.26662 17.5 3.56655 17.5 3.03177 17.2275C2.56137 16.9878 2.17892 16.6054 1.93923 16.135C1.66675 15.6002 1.66675 14.9001 1.66675 13.5V6.98101Z" stroke="white" stroke-width="1.15" stroke-linecap="round" stroke-linejoin="round"/>
<path d="M10.0001 13.75C11.841 13.75 13.3334 12.2576 13.3334 10.4167C13.3334 8.57571 11.841 7.08332 10.0001 7.08332C8.15913 7.08332 6.66675 8.57571 6.66675 10.4167C6.66675 12.2576 8.15913 13.75 10.0001 13.75Z" stroke="white" stroke-width="1.15" stroke-linecap="round" stroke-linejoin="round"/>
</svg>
