<svg width="24" height="24" viewBox="0 0 24 24" fill="none" xmlns="http://www.w3.org/2000/svg">
<path d="M5 9H1.5" stroke="#808080" stroke-width="1.15" stroke-linecap="round" stroke-linejoin="round"/>
<path d="M5 15H3.5" stroke="#808080" stroke-width="1.15" stroke-linecap="round" stroke-linejoin="round"/>
<path d="M5 12H2.5" stroke="#808080" stroke-width="1.15" stroke-linecap="round" stroke-linejoin="round"/>
<path d="M5.63574 5.63606C8.20972 3.06208 12.0808 2.29207 15.4439 3.6851C18.8069 5.07813 20.9997 8.35986 20.9997 12C20.9997 15.6402 18.8069 18.9219 15.4439 20.3149C12.0808 21.708 8.20972 20.938 5.63574 18.364" stroke="#808080" stroke-width="1.15" stroke-linecap="round" stroke-linejoin="round"/>
<path d="M12 7.5V8.5" stroke="#808080" stroke-width="1.15" stroke-linecap="round" stroke-linejoin="round"/>
<path d="M12 16.5V15.5" stroke="#808080" stroke-width="1.15" stroke-linecap="round" stroke-linejoin="round"/>
<path d="M14.1927 9.92122C13.8542 9.01661 12.964 8.43968 12 8.5001C10.8807 8.39391 9.88145 9.20114 9.75 10.3178V10.3178C9.75 11.0343 10.2558 11.6513 10.9584 11.7918L13.0416 12.2084C13.7442 12.349 14.25 12.9659 14.25 13.6824V13.6824C14.1186 14.7991 13.1193 15.6063 12 15.5001C11.036 15.5605 10.1458 14.9836 9.80729 14.079" stroke="#808080" stroke-width="1.15" stroke-linecap="round" stroke-linejoin="round"/>
</svg>
