<svg width="25" height="24" viewBox="0 0 25 24" fill="none" xmlns="http://www.w3.org/2000/svg">
<path d="M5.5 9H2" stroke="black" stroke-width="1.15" stroke-linecap="round" stroke-linejoin="round"/>
<path d="M5.5 15H4" stroke="black" stroke-width="1.15" stroke-linecap="round" stroke-linejoin="round"/>
<path d="M5.5 12H3" stroke="black" stroke-width="1.15" stroke-linecap="round" stroke-linejoin="round"/>
<path d="M6.13672 5.636C8.7107 3.06202 12.5818 2.29201 15.9448 3.68504C19.3079 5.07807 21.5007 8.3598 21.5007 12C21.5007 15.6401 19.3079 18.9218 15.9448 20.3149C12.5818 21.7079 8.7107 20.9379 6.13672 18.3639" stroke="black" stroke-width="1.15" stroke-linecap="round" stroke-linejoin="round"/>
<path d="M12.5 7.5V8.5" stroke="black" stroke-width="1.15" stroke-linecap="round" stroke-linejoin="round"/>
<path d="M12.5 16.5V15.5" stroke="black" stroke-width="1.15" stroke-linecap="round" stroke-linejoin="round"/>
<path d="M14.6927 9.92113C14.3542 9.01652 13.464 8.43959 12.5 8.50001C11.3807 8.39382 10.3814 9.20105 10.25 10.3177V10.3177C10.25 11.0342 10.7558 11.6512 11.4584 11.7917L13.5416 12.2083C14.2442 12.3489 14.75 12.9658 14.75 13.6823V13.6823C14.6186 14.799 13.6193 15.6062 12.5 15.5C11.536 15.5604 10.6458 14.9835 10.3073 14.0789" stroke="black" stroke-width="1.15" stroke-linecap="round" stroke-linejoin="round"/>
</svg>
