<svg width="45" height="44" viewBox="0 0 45 44" fill="none" xmlns="http://www.w3.org/2000/svg">
<path d="M39 38.5L31.025 30.525M20.6667 11C22.98 11 25.0933 11.857 26.7062 13.2707M29.8333 20.1667C29.8333 18.3464 29.3028 16.65 28.3878 15.2238M30.5 9.28457C27.8986 6.93245 24.4499 5.5 20.6667 5.5C12.5665 5.5 6 12.0665 6 20.1667C6 23.7949 7.31742 27.1154 9.5 29.6759C9.61736 29.8136 9.73721 29.949 9.8595 30.0823M32.4617 11.4479C34.2662 13.8851 35.3333 16.9013 35.3333 20.1667C35.3333 28.2668 28.7668 34.8333 20.6667 34.8333C17.4245 34.8333 14.428 33.7813 12 32" stroke="#5BB75F" stroke-width="2" stroke-linecap="round" stroke-linejoin="round"/>
<line x1="7" y1="36.5858" x2="37.5858" y2="6" stroke="#5BB75F" stroke-width="2" stroke-linecap="round" stroke-linejoin="round"/>
</svg>
