<svg width="24" height="25" viewBox="0 0 24 25" fill="none" xmlns="http://www.w3.org/2000/svg">
<path d="M10.5004 12.5H5.00043M4.91577 12.7915L2.58085 19.7662C2.39742 20.3142 2.3057 20.5881 2.37152 20.7569C2.42868 20.9034 2.55144 21.0145 2.70292 21.0567C2.87736 21.1054 3.14083 20.9869 3.66776 20.7497L20.3792 13.2296C20.8936 12.9981 21.1507 12.8824 21.2302 12.7216C21.2993 12.582 21.2993 12.4181 21.2302 12.2784C21.1507 12.1177 20.8936 12.0019 20.3792 11.7705L3.66193 4.24776C3.13659 4.01135 2.87392 3.89315 2.69966 3.94164C2.54832 3.98375 2.42556 4.09454 2.36821 4.24078C2.30216 4.40917 2.3929 4.68255 2.57437 5.22931L4.91642 12.2856C4.94759 12.3795 4.96317 12.4264 4.96933 12.4744C4.97479 12.5171 4.97473 12.5602 4.96916 12.6028C4.96289 12.6508 4.94718 12.6977 4.91577 12.7915Z" stroke="#808080" stroke-width="1.15" stroke-linecap="round" stroke-linejoin="round"/>
</svg>
