<svg width="25" height="24" viewBox="0 0 25 24" fill="none" xmlns="http://www.w3.org/2000/svg">
<path d="M9.89504 19.3711L10.4795 20.6856C10.6532 21.0768 10.9368 21.4093 11.2957 21.6426C11.6547 21.8759 12.0736 22.0001 12.5017 22C12.9298 22.0001 13.3488 21.8759 13.7077 21.6426C14.0667 21.4093 14.3502 21.0768 14.5239 20.6856L15.1084 19.3711C15.3164 18.9047 15.6664 18.5159 16.1084 18.26C16.5532 18.0034 17.0677 17.8941 17.5784 17.9478L19.0084 18.1C19.434 18.145 19.8636 18.0656 20.2451 17.8713C20.6265 17.6771 20.9434 17.3763 21.1573 17.0056C21.3714 16.635 21.4735 16.2103 21.451 15.7829C21.4285 15.3555 21.2825 14.9438 21.0306 14.5978L20.1839 13.4344C19.8825 13.0171 19.7214 12.5148 19.7239 12C19.7238 11.4866 19.8864 10.9864 20.1884 10.5711L21.035 9.40778C21.2869 9.06175 21.433 8.65007 21.4554 8.22267C21.4779 7.79528 21.3759 7.37054 21.1617 7C20.9478 6.62923 20.6309 6.32849 20.2495 6.13423C19.8681 5.93997 19.4385 5.86053 19.0128 5.90556L17.5828 6.05778C17.0722 6.11141 16.5576 6.00212 16.1128 5.74556C15.6699 5.48825 15.3199 5.09736 15.1128 4.62889L14.5239 3.31444C14.3502 2.92317 14.0667 2.59072 13.7077 2.3574C13.3488 2.12408 12.9298 1.99993 12.5017 2C12.0736 1.99993 11.6547 2.12408 11.2957 2.3574C10.9368 2.59072 10.6532 2.92317 10.4795 3.31444L9.89504 4.62889C9.68797 5.09736 9.33792 5.48825 8.89504 5.74556C8.45026 6.00212 7.93571 6.11141 7.42504 6.05778L5.9906 5.90556C5.56493 5.86053 5.13534 5.93997 4.75391 6.13423C4.37249 6.32849 4.05561 6.62923 3.84171 7C3.62753 7.37054 3.52549 7.79528 3.54798 8.22267C3.57046 8.65007 3.7165 9.06175 3.96838 9.40778L4.81504 10.5711C5.11698 10.9864 5.27958 11.4866 5.27949 12C5.27958 12.5134 5.11698 13.0137 4.81504 13.4289L3.96838 14.5922C3.7165 14.9382 3.57046 15.3499 3.54798 15.7773C3.52549 16.2047 3.62753 16.6295 3.84171 17C4.05582 17.3706 4.37274 17.6712 4.75411 17.8654C5.13548 18.0596 5.56496 18.1392 5.9906 18.0944L7.4206 17.9422C7.93127 17.8886 8.44581 17.9979 8.8906 18.2544C9.33513 18.511 9.68681 18.902 9.89504 19.3711Z" stroke="black" stroke-width="1.15" stroke-linecap="round" stroke-linejoin="round"/>
<path d="M12.4999 15C14.1568 15 15.4999 13.6569 15.4999 12C15.4999 10.3431 14.1568 9 12.4999 9C10.8431 9 9.49992 10.3431 9.49992 12C9.49992 13.6569 10.8431 15 12.4999 15Z" stroke="black" stroke-width="1.15" stroke-linecap="round" stroke-linejoin="round"/>
</svg>
