<svg width="20" height="20" viewBox="0 0 20 20" fill="none" xmlns="http://www.w3.org/2000/svg">
<path d="M7.10859 8.61793L11.6667 5.41666M7.10859 11.3935L11.6667 14.5833M7.50004 10C7.50004 11.1506 6.5673 12.0833 5.41671 12.0833C4.26611 12.0833 3.33337 11.1506 3.33337 10C3.33337 8.8494 4.26611 7.91666 5.41671 7.91666C6.5673 7.91666 7.50004 8.8494 7.50004 10ZM15.8334 15.761C15.8334 16.9116 14.9006 17.8444 13.75 17.8444C12.5994 17.8444 11.6667 16.9116 11.6667 15.761C11.6667 14.6105 12.5994 13.6777 13.75 13.6777C14.9006 13.6777 15.8334 14.6105 15.8334 15.761ZM15.8334 4.27025C15.8334 5.42085 14.9006 6.35359 13.75 6.35359C12.5994 6.35359 11.6667 5.42085 11.6667 4.27025C11.6667 3.11966 12.5994 2.18692 13.75 2.18692C14.9006 2.18692 15.8334 3.11966 15.8334 4.27025Z" stroke="black" stroke-width="1.15" stroke-linecap="round" stroke-linejoin="round"/>
</svg>
