<svg width="40" height="40" viewBox="0 0 40 40" fill="none" xmlns="http://www.w3.org/2000/svg">
<path d="M20 37.5781C29.7081 37.5781 37.5781 29.7081 37.5781 20C37.5781 10.2919 29.7081 2.42188 20 2.42188C10.2919 2.42188 2.42188 10.2919 2.42188 20C2.42188 29.7081 10.2919 37.5781 20 37.5781Z" fill="url(#paint0_linear_358_37924)"/>
<path d="M23.7344 10.2344H16.2734C12.9453 10.2344 10.2422 12.9375 10.2422 16.2656V23.7266C10.2422 27.0547 12.9453 29.7578 16.2734 29.7578H23.7344C27.0625 29.7578 29.7656 27.0547 29.7656 23.7266V16.2656C29.7656 12.9375 27.0625 10.2344 23.7344 10.2344ZM27.5859 23.7344C27.5859 25.8594 25.8594 27.5938 23.7266 27.5938H16.2656C14.1406 27.5938 12.4062 25.8672 12.4062 23.7344V16.2734C12.4062 14.1484 14.1328 12.4141 16.2656 12.4141H23.7266C25.8516 12.4141 27.5859 14.1406 27.5859 16.2734V23.7344Z" fill="white"/>
<path d="M20 15.0078C17.25 15.0078 15.0078 17.25 15.0078 20C15.0078 22.75 17.25 24.9922 20 24.9922C22.75 24.9922 24.9922 22.75 24.9922 20C24.9922 17.25 22.75 15.0078 20 15.0078ZM20 23.0312C18.3281 23.0312 16.9687 21.6719 16.9687 20C16.9687 18.3281 18.3281 16.9687 20 16.9687C21.6719 16.9687 23.0312 18.3281 23.0312 20C23.0312 21.6719 21.6719 23.0312 20 23.0312Z" fill="white"/>
<path d="M25.3723 15.5551C25.8322 15.4805 26.1447 15.0472 26.0701 14.5873C25.9955 14.1274 25.5622 13.815 25.1023 13.8895C24.6424 13.9641 24.33 14.3974 24.4045 14.8573C24.4791 15.3172 24.9124 15.6297 25.3723 15.5551Z" fill="white"/>
<defs>
<linearGradient id="paint0_linear_358_37924" x1="6.61555" y1="33.3845" x2="31.596" y2="8.40398" gradientUnits="userSpaceOnUse">
<stop stop-color="#FEE411"/>
<stop offset="0.0518459" stop-color="#FEDB16"/>
<stop offset="0.1381" stop-color="#FEC125"/>
<stop offset="0.2481" stop-color="#FE983D"/>
<stop offset="0.3762" stop-color="#FE5F5E"/>
<stop offset="0.5" stop-color="#FE2181"/>
<stop offset="1" stop-color="#9000DC"/>
</linearGradient>
</defs>
</svg>
