<svg width="40" height="40" viewBox="0 0 40 40" fill="none" xmlns="http://www.w3.org/2000/svg">
<path d="M20 37.5C29.665 37.5 37.5 29.665 37.5 20C37.5 10.335 29.665 2.5 20 2.5C10.335 2.5 2.5 10.335 2.5 20C2.5 29.665 10.335 37.5 20 37.5Z" fill="#55ACEE"/>
<path d="M30.2852 14.2355C29.5495 14.5617 28.7582 14.7823 27.9283 14.8808C28.7756 14.3732 29.4259 13.5699 29.7328 12.6112C28.9399 13.0815 28.0614 13.4227 27.1272 13.6066C26.3787 12.8095 25.3122 12.3113 24.1314 12.3113C21.8657 12.3113 20.0281 14.1489 20.0281 16.4145C20.0281 16.7361 20.0645 17.0492 20.1349 17.3497C16.7248 17.1786 13.7011 15.5452 11.6772 13.0619C11.324 13.6678 11.1215 14.3732 11.1215 15.125C11.1215 16.5483 11.8464 17.8047 12.9468 18.5404C12.2745 18.5192 11.6414 18.3347 11.0884 18.0266C11.0881 18.044 11.0881 18.0615 11.0881 18.0786C11.0881 20.0667 12.5031 21.725 14.3798 22.1017C14.0359 22.1959 13.6727 22.2458 13.299 22.2458C13.034 22.2458 12.7773 22.2204 12.527 22.1727C13.049 23.8024 14.5641 24.9888 16.36 25.0222C14.9554 26.1229 13.1864 26.7787 11.2635 26.7787C10.933 26.7787 10.6055 26.7594 10.2852 26.7211C12.1001 27.8858 14.2574 28.5648 16.5745 28.5648C24.1219 28.5648 28.2493 22.3125 28.2493 16.8898C28.2493 16.712 28.2453 16.5348 28.2374 16.3591C29.0397 15.7808 29.7353 15.0583 30.2852 14.2355Z" fill="#F1F2F2"/>
</svg>
