<svg  viewBox="0 0 40 40" fill="none" xmlns="http://www.w3.org/2000/svg">
<path d="M20.5 37C30.165 37 38 29.165 38 19.5C38 9.83502 30.165 2 20.5 2C10.835 2 3 9.83502 3 19.5C3 29.165 10.835 37 20.5 37Z" fill="#39CD00"/>
<path d="M31.4375 19.1023C31.4219 19.3245 31.3934 19.5457 31.352 19.7645C31.2136 20.6026 30.9303 21.4101 30.5148 22.1509C30.3159 22.5049 29.3594 23.8492 29.067 24.2032C27.4503 26.15 24.7418 28.3972 20.2156 30.5827C20.1201 30.6288 20.0141 30.6487 19.9084 30.6402C19.8027 30.6317 19.7011 30.5952 19.6142 30.5344C19.5273 30.4737 19.4582 30.3908 19.4139 30.2944C19.3697 30.1981 19.3519 30.0916 19.3625 29.9861L19.5912 27.9319C19.6085 27.7747 19.5627 27.6171 19.4639 27.4937C19.3651 27.3703 19.2213 27.2911 19.0642 27.2736C17.5585 27.123 16.0917 26.7048 14.733 26.0387C11.6307 24.5054 9.5625 21.7671 9.5625 18.6469C9.5625 13.8424 14.4585 9.95459 20.5 9.95459C23.5347 9.95459 26.279 10.9489 28.2557 12.5259C30.1071 14.0074 31.2923 16.0179 31.4196 18.2492C31.4408 18.533 31.4468 18.8178 31.4375 19.1023Z" fill="white"/>
<path d="M17.4847 20.5719C17.5376 20.6236 17.5795 20.6856 17.6079 20.7539C17.6363 20.8222 17.6505 20.8956 17.6498 20.9696C17.6501 21.0432 17.6358 21.1161 17.6078 21.1841C17.5799 21.2521 17.5387 21.3139 17.4868 21.366C17.4349 21.4181 17.3732 21.4595 17.3053 21.4877C17.2374 21.5159 17.1645 21.5304 17.091 21.5304H14.8538C14.7052 21.5299 14.5629 21.4706 14.4578 21.3656C14.3528 21.2605 14.2935 21.1182 14.293 20.9696V16.7438C14.2925 16.6698 14.3068 16.5965 14.3352 16.5282C14.3635 16.4599 14.4053 16.3979 14.458 16.346C14.5363 16.2675 14.6362 16.2141 14.7449 16.1925C14.8537 16.1709 14.9664 16.1821 15.0687 16.2247C15.1711 16.2674 15.2584 16.3395 15.3196 16.4319C15.3809 16.5244 15.4132 16.6329 15.4126 16.7438V20.4088H17.091C17.1642 20.4083 17.2368 20.4224 17.3044 20.4504C17.372 20.4784 17.4334 20.5197 17.4847 20.5719Z" fill="#00C200"/>
<path d="M19.3053 16.6226V21.091C19.3047 21.2069 19.2585 21.3179 19.1765 21.3998C19.0946 21.4818 18.9836 21.528 18.8678 21.5285H18.6172C18.5012 21.5285 18.3899 21.4824 18.3078 21.4004C18.2258 21.3184 18.1797 21.2071 18.1797 21.091V16.6226C18.1797 16.5065 18.2258 16.3953 18.3078 16.3132C18.3899 16.2312 18.5012 16.1851 18.6172 16.1851H18.8618C18.9197 16.1846 18.9771 16.1955 19.0307 16.2172C19.0844 16.2389 19.1332 16.271 19.1744 16.3117C19.2156 16.3523 19.2484 16.4007 19.2709 16.4541C19.2933 16.5074 19.305 16.5647 19.3053 16.6226Z" fill="#00C200"/>
<path d="M24.4998 16.7438V20.9458C24.4999 21.097 24.4413 21.2422 24.3363 21.3509C24.2313 21.4597 24.0881 21.5233 23.937 21.5285C23.7955 21.5262 23.6599 21.4709 23.5572 21.3734C23.5373 21.3575 22.7856 20.379 22.1473 19.5557C21.67 18.9413 21.2564 18.4043 21.2564 18.4043V20.9677C21.2567 21.0763 21.2254 21.1827 21.1663 21.2739C21.1071 21.365 21.0227 21.4369 20.9233 21.4808C20.8239 21.5247 20.7139 21.5387 20.6067 21.521C20.4995 21.5033 20.3998 21.4548 20.3197 21.3813C20.262 21.329 20.2159 21.2652 20.1844 21.1939C20.1528 21.1227 20.1366 21.0456 20.1368 20.9677V16.7677C20.1349 16.62 20.1898 16.4773 20.29 16.3689C20.3903 16.2605 20.5283 16.1947 20.6757 16.185C20.7591 16.1837 20.8417 16.2008 20.9177 16.2352C20.9937 16.2695 21.0611 16.3203 21.1152 16.3839C21.139 16.4117 22.2944 17.9151 22.9447 18.7702C23.2032 19.1043 23.3822 19.339 23.3822 19.339V16.7538C23.3833 16.6059 23.4425 16.4643 23.547 16.3598C23.6516 16.2552 23.7931 16.196 23.941 16.195C24.0875 16.1949 24.2282 16.2524 24.3327 16.3551C24.4372 16.4577 24.4972 16.5973 24.4998 16.7438Z" fill="#00C200"/>
<path d="M26.4654 19.4146V20.4089H28.1418C28.2182 20.4044 28.2946 20.4155 28.3665 20.4416C28.4383 20.4676 28.5041 20.5081 28.5598 20.5606C28.6154 20.613 28.6598 20.6763 28.6901 20.7464C28.7204 20.8166 28.736 20.8923 28.736 20.9687C28.736 21.0452 28.7204 21.1208 28.6901 21.191C28.6598 21.2612 28.6154 21.3245 28.5598 21.3769C28.5041 21.4293 28.4383 21.4698 28.3665 21.4959C28.2946 21.522 28.2182 21.5331 28.1418 21.5285H25.8987C25.7503 21.528 25.6081 21.4687 25.5034 21.3636C25.3987 21.2585 25.3398 21.1161 25.3398 20.9677V16.7439C25.3404 16.5958 25.3994 16.454 25.5041 16.3493C25.6088 16.2446 25.7506 16.1856 25.8987 16.1851H28.1359C28.2122 16.1805 28.2886 16.1916 28.3605 16.2177C28.4324 16.2438 28.4982 16.2843 28.5538 16.3367C28.6095 16.3891 28.6538 16.4524 28.6841 16.5226C28.7144 16.5928 28.73 16.6684 28.73 16.7449C28.73 16.8213 28.7144 16.897 28.6841 16.9672C28.6538 17.0374 28.6095 17.1006 28.5538 17.153C28.4982 17.2055 28.4324 17.246 28.3605 17.2721C28.2886 17.2981 28.2122 17.3092 28.1359 17.3047H26.4654V18.299H28.1418C28.29 18.299 28.4322 18.3579 28.537 18.4627C28.6418 18.5675 28.7006 18.7096 28.7006 18.8578C28.7006 19.006 28.6418 19.1481 28.537 19.2529C28.4322 19.3577 28.29 19.4166 28.1418 19.4166L26.4654 19.4146Z" fill="#00C200"/>
</svg>
