<svg width="40" height="40" viewBox="0 0 40 40" fill="none" xmlns="http://www.w3.org/2000/svg">
<path fill-rule="evenodd" clip-rule="evenodd" d="M20.1836 2.68359C10.5181 2.68359 2.68359 10.5181 2.68359 20.1836C2.68359 29.848 10.5181 37.6836 20.1836 37.6836C29.848 37.6836 37.6836 29.848 37.6836 20.1836C37.6836 10.5181 29.848 2.68359 20.1836 2.68359Z" fill="#67D449"/>
<path fill-rule="evenodd" clip-rule="evenodd" d="M27.2308 13.0901C25.3597 11.2168 22.8713 10.1847 20.2203 10.1836C14.7577 10.1836 10.3119 14.6293 10.3097 20.0934C10.309 21.8401 10.7653 23.5452 11.6326 25.0481L10.2266 30.1836L15.4803 28.8054C16.928 29.5951 18.5577 30.0112 20.2163 30.0117H20.2205C25.6825 30.0117 30.1288 25.5657 30.1309 20.1013C30.132 17.4531 29.1021 14.9633 27.2308 13.0901ZM20.2203 28.338H20.2169C18.7389 28.3374 17.2893 27.9402 16.0244 27.1898L15.7238 27.0112L12.6061 27.8291L13.4382 24.7894L13.2423 24.4778C12.4177 23.1663 11.9823 21.6504 11.983 20.094C11.9847 15.5524 15.6801 11.8574 20.2236 11.8574C22.4238 11.8582 24.4921 12.7161 26.0472 14.2731C27.6024 15.8301 28.4584 17.8997 28.4576 20.1007C28.4557 24.6427 24.7606 28.338 20.2203 28.338ZM24.7386 22.1687C24.4911 22.0447 23.2736 21.4458 23.0465 21.363C22.8197 21.2804 22.6544 21.2393 22.4895 21.4871C22.3243 21.7349 21.8499 22.2927 21.7053 22.4579C21.5608 22.6232 21.4165 22.6439 21.1688 22.5199C20.9211 22.396 20.1233 22.1344 19.1774 21.2908C18.4413 20.6342 17.9443 19.8232 17.7998 19.5754C17.6555 19.3274 17.7986 19.2063 17.9084 19.0701C18.1765 18.7372 18.4449 18.3882 18.5275 18.223C18.6101 18.0577 18.5687 17.9131 18.5067 17.7892C18.4449 17.6653 17.9497 16.4464 17.7434 15.9504C17.5422 15.4678 17.3383 15.533 17.1862 15.5254C17.0419 15.5182 16.8767 15.5167 16.7115 15.5167C16.5465 15.5167 16.2782 15.5786 16.0511 15.8267C15.8242 16.0746 15.1846 16.6736 15.1846 17.8925C15.1846 19.1113 16.0719 20.2888 16.1957 20.4541C16.3195 20.6194 17.9419 23.1206 20.4259 24.1931C21.0167 24.4485 21.4779 24.6007 21.8376 24.7148C22.4309 24.9033 22.9706 24.8767 23.3973 24.813C23.8732 24.7418 24.8623 24.2139 25.0688 23.6355C25.2751 23.057 25.2751 22.5613 25.2131 22.4579C25.1514 22.3546 24.9862 22.2927 24.7386 22.1687Z" fill="white"/>
</svg>
