<svg  viewBox="0 0 24 24" fill="none" xmlns="http://www.w3.org/2000/svg">
<path fill-rule="evenodd" clip-rule="evenodd" d="M7.73284 20.829C7.22598 21.0936 6.61279 21.047 6.15172 20.7089C5.69064 20.3708 5.46188 19.8 5.56184 19.237L6.37084 14.6L2.96484 11.336C2.54852 10.939 2.39594 10.3388 2.5721 9.79117C2.74826 9.24352 3.22212 8.84486 3.79184 8.76501L8.52084 8.08901L10.6558 3.83001C10.909 3.31923 11.4298 2.99609 11.9998 2.99609C12.5699 2.99609 13.0907 3.31923 13.3438 3.83001L15.4788 8.08901L20.2078 8.76501C20.7776 8.84486 21.2514 9.24352 21.4276 9.79117C21.6037 10.3388 21.4512 10.939 21.0348 11.336L17.6288 14.6L18.4378 19.238C18.5378 19.801 18.309 20.3718 17.848 20.7099C17.3869 21.048 16.7737 21.0946 16.2668 20.83L11.9998 18.625L7.73284 20.829Z" stroke="black" stroke-width="1.15" stroke-linecap="round" stroke-linejoin="round"/>
</svg>
