<svg width="16" height="16" viewBox="0 0 16 16" fill="none" xmlns="http://www.w3.org/2000/svg">
<path d="M7.52175 2.30205C7.6754 1.99076 7.75223 1.83511 7.85653 1.78538C7.94728 1.74211 8.0527 1.74211 8.14345 1.78538C8.24775 1.83511 8.32458 1.99076 8.47823 2.30205L9.93602 5.25536C9.98138 5.34726 10.0041 5.39321 10.0372 5.42889C10.0666 5.46048 10.1018 5.48607 10.1409 5.50425C10.185 5.52479 10.2357 5.5322 10.3371 5.54702L13.598 6.02364C13.9414 6.07383 14.113 6.09893 14.1925 6.1828C14.2616 6.25577 14.2941 6.35603 14.281 6.45569C14.2659 6.57022 14.1416 6.69129 13.893 6.93342L11.5343 9.23078C11.4608 9.3024 11.424 9.33821 11.4003 9.38081C11.3793 9.41854 11.3658 9.45998 11.3606 9.50284C11.3547 9.55125 11.3634 9.60183 11.3807 9.703L11.9373 12.9479C11.996 13.2902 12.0253 13.4613 11.9702 13.5628C11.9222 13.6512 11.8369 13.7132 11.738 13.7315C11.6244 13.7525 11.4707 13.6717 11.1634 13.5101L8.24823 11.9771C8.1574 11.9293 8.11199 11.9054 8.06414 11.896C8.02178 11.8877 7.9782 11.8877 7.93584 11.896C7.888 11.9054 7.84258 11.9293 7.75175 11.9771L4.8366 13.5101C4.52926 13.6717 4.37559 13.7525 4.26196 13.7315C4.1631 13.7132 4.07779 13.6512 4.0298 13.5628C3.97465 13.4613 4.004 13.2902 4.0627 12.9479L4.61924 9.703C4.63659 9.60183 4.64526 9.55125 4.63939 9.50284C4.6342 9.45998 4.62072 9.41854 4.59972 9.38081C4.57599 9.33821 4.53923 9.3024 4.4657 9.23078L2.10702 6.93342C1.85842 6.69129 1.73412 6.57022 1.719 6.45569C1.70584 6.35603 1.73835 6.25577 1.80748 6.1828C1.88694 6.09893 2.05863 6.07383 2.40201 6.02364L5.66285 5.54702C5.76426 5.5322 5.81497 5.52479 5.85912 5.50425C5.89822 5.48607 5.93342 5.46048 5.96277 5.42889C5.99592 5.39321 6.0186 5.34726 6.06396 5.25536L7.52175 2.30205Z" stroke="#808080" stroke-width="1.15" stroke-linecap="round" stroke-linejoin="round"/>
</svg>
