<svg width="20" height="21" viewBox="0 0 20 21" fill="none" xmlns="http://www.w3.org/2000/svg">
<path d="M9.40229 3.37774C9.59436 2.98863 9.6904 2.79407 9.82077 2.73191C9.9342 2.67782 10.066 2.67782 10.1794 2.73191C10.3098 2.79407 10.4058 2.98863 10.5979 3.37774L12.4201 7.06938C12.4768 7.18426 12.5052 7.2417 12.5466 7.28629C12.5833 7.32578 12.6273 7.35777 12.6762 7.3805C12.7314 7.40617 12.7948 7.41543 12.9215 7.43396L16.9976 8.02973C17.4268 8.09247 17.6414 8.12384 17.7407 8.22868C17.8271 8.31989 17.8678 8.44523 17.8513 8.56979C17.8324 8.71296 17.6771 8.8643 17.3663 9.16696L14.418 12.0387C14.326 12.1282 14.2801 12.1729 14.2504 12.2262C14.2242 12.2734 14.2073 12.3252 14.2008 12.3787C14.1935 12.4392 14.2043 12.5025 14.226 12.6289L14.9217 16.6851C14.9951 17.1129 15.0318 17.3268 14.9628 17.4537C14.9028 17.5642 14.7962 17.6416 14.6726 17.6645C14.5306 17.6909 14.3385 17.5899 13.9543 17.3878L10.3104 15.4715C10.1969 15.4118 10.1401 15.3819 10.0803 15.3702C10.0273 15.3598 9.97286 15.3598 9.91991 15.3702C9.8601 15.3819 9.80333 15.4118 9.68979 15.4715L6.04585 17.3878C5.66168 17.5899 5.46959 17.6909 5.32756 17.6645C5.20398 17.6416 5.09735 17.5642 5.03736 17.4537C4.96841 17.3268 5.0051 17.1129 5.07848 16.6851L5.77415 12.6289C5.79584 12.5025 5.80669 12.4392 5.79935 12.3787C5.79285 12.3252 5.77601 12.2734 5.74975 12.2262C5.7201 12.1729 5.67414 12.1282 5.58224 12.0387L2.63388 9.16696C2.32313 8.8643 2.16776 8.71296 2.14885 8.56979C2.1324 8.44523 2.17304 8.31989 2.25946 8.22868C2.35878 8.12384 2.57339 8.09247 3.00262 8.02973L7.07867 7.43396C7.20543 7.41543 7.26881 7.40617 7.32401 7.3805C7.37288 7.35777 7.41688 7.32578 7.45357 7.28629C7.495 7.2417 7.52336 7.18426 7.58006 7.06938L9.40229 3.37774Z" stroke="#FFBD00" stroke-width="1.15" stroke-linecap="round" stroke-linejoin="round"/>
</svg>
