<svg width="21" height="20" viewBox="0 0 21 20" fill="none" xmlns="http://www.w3.org/2000/svg">
<path d="M2.6499 14.3333L2.6499 14.8333C2.6499 15.7668 2.6499 16.2335 2.83156 16.59C2.99135 16.9036 3.24631 17.1586 3.55992 17.3183C3.91644 17.5 4.38315 17.5 5.31657 17.5L14.9832 17.5C15.9167 17.5 16.3834 17.5 16.7399 17.3183C17.0535 17.1586 17.3085 16.9036 17.4682 16.59C17.6499 16.2335 17.6499 15.7668 17.6499 14.8333L17.6499 14.3333C17.6499 13.3999 17.6499 12.9332 17.4682 12.5767C17.3085 12.2631 17.0535 12.0081 16.7399 11.8483C16.3834 11.6667 15.9167 11.6667 14.9832 11.6667L5.31657 11.6667C4.38315 11.6667 3.91644 11.6667 3.55992 11.8483C3.24631 12.0081 2.99135 12.2631 2.83156 12.5767C2.6499 12.9332 2.6499 13.3999 2.6499 14.3333Z" stroke="#808080" stroke-width="1.15" stroke-linecap="round" stroke-linejoin="round"/>
<path d="M2.6499 5.16667L2.6499 5.66667C2.6499 6.60009 2.6499 7.0668 2.83156 7.42332C2.99135 7.73692 3.24631 7.99189 3.55992 8.15168C3.91644 8.33333 4.38315 8.33333 5.31657 8.33333L14.9832 8.33333C15.9167 8.33333 16.3834 8.33333 16.7399 8.15168C17.0535 7.99189 17.3085 7.73692 17.4682 7.42332C17.6499 7.0668 17.6499 6.60009 17.6499 5.66667L17.6499 5.16667C17.6499 4.23325 17.6499 3.76653 17.4682 3.41001C17.3085 3.09641 17.0535 2.84144 16.7399 2.68166C16.3834 2.5 15.9167 2.5 14.9832 2.5L5.31657 2.5C4.38315 2.5 3.91644 2.5 3.55992 2.68166C3.24631 2.84145 2.99135 3.09641 2.83156 3.41002C2.6499 3.76654 2.6499 4.23325 2.6499 5.16667Z" stroke="#808080" stroke-width="1.15" stroke-linecap="round" stroke-linejoin="round"/>
</svg>
