<svg width="21" height="20" viewBox="0 0 21 20" fill="none" xmlns="http://www.w3.org/2000/svg">
<path d="M7.1499 2.5H3.98324C3.51653 2.5 3.28317 2.5 3.10491 2.59083C2.94811 2.67072 2.82062 2.79821 2.74073 2.95501C2.6499 3.13327 2.6499 3.36662 2.6499 3.83333V7C2.6499 7.46671 2.6499 7.70007 2.74073 7.87833C2.82062 8.03513 2.94811 8.16261 3.10491 8.24251C3.28317 8.33333 3.51653 8.33333 3.98324 8.33333H7.1499C7.61661 8.33333 7.84997 8.33333 8.02823 8.24251C8.18503 8.16261 8.31251 8.03513 8.39241 7.87833C8.48324 7.70007 8.48324 7.46671 8.48324 7V3.83333C8.48324 3.36662 8.48324 3.13327 8.39241 2.95501C8.31251 2.79821 8.18503 2.67072 8.02823 2.59083C7.84997 2.5 7.61661 2.5 7.1499 2.5Z" stroke="black" stroke-width="1.15" stroke-linecap="round" stroke-linejoin="round"/>
<path d="M16.3166 2.5H13.1499C12.6832 2.5 12.4498 2.5 12.2716 2.59083C12.1148 2.67072 11.9873 2.79821 11.9074 2.95501C11.8166 3.13327 11.8166 3.36662 11.8166 3.83333V7C11.8166 7.46671 11.8166 7.70007 11.9074 7.87833C11.9873 8.03513 12.1148 8.16261 12.2716 8.24251C12.4498 8.33333 12.6832 8.33333 13.1499 8.33333H16.3166C16.7833 8.33333 17.0166 8.33333 17.1949 8.24251C17.3517 8.16261 17.4792 8.03513 17.5591 7.87833C17.6499 7.70007 17.6499 7.46671 17.6499 7V3.83333C17.6499 3.36662 17.6499 3.13327 17.5591 2.95501C17.4792 2.79821 17.3517 2.67072 17.1949 2.59083C17.0166 2.5 16.7833 2.5 16.3166 2.5Z" stroke="black" stroke-width="1.15" stroke-linecap="round" stroke-linejoin="round"/>
<path d="M16.3166 11.6667H13.1499C12.6832 11.6667 12.4498 11.6667 12.2716 11.7575C12.1148 11.8374 11.9873 11.9649 11.9074 12.1217C11.8166 12.2999 11.8166 12.5333 11.8166 13V16.1667C11.8166 16.6334 11.8166 16.8667 11.9074 17.045C11.9873 17.2018 12.1148 17.3293 12.2716 17.4092C12.4498 17.5 12.6832 17.5 13.1499 17.5H16.3166C16.7833 17.5 17.0166 17.5 17.1949 17.4092C17.3517 17.3293 17.4792 17.2018 17.5591 17.045C17.6499 16.8667 17.6499 16.6334 17.6499 16.1667V13C17.6499 12.5333 17.6499 12.2999 17.5591 12.1217C17.4792 11.9649 17.3517 11.8374 17.1949 11.7575C17.0166 11.6667 16.7833 11.6667 16.3166 11.6667Z" stroke="black" stroke-width="1.15" stroke-linecap="round" stroke-linejoin="round"/>
<path d="M7.1499 11.6667H3.98324C3.51653 11.6667 3.28317 11.6667 3.10491 11.7575C2.94811 11.8374 2.82062 11.9649 2.74073 12.1217C2.6499 12.2999 2.6499 12.5333 2.6499 13V16.1667C2.6499 16.6334 2.6499 16.8667 2.74073 17.045C2.82062 17.2018 2.94811 17.3293 3.10491 17.4092C3.28317 17.5 3.51653 17.5 3.98324 17.5H7.1499C7.61661 17.5 7.84997 17.5 8.02823 17.4092C8.18503 17.3293 8.31251 17.2018 8.39241 17.045C8.48324 16.8667 8.48324 16.6334 8.48324 16.1667V13C8.48324 12.5333 8.48324 12.2999 8.39241 12.1217C8.31251 11.9649 8.18503 11.8374 8.02823 11.7575C7.84997 11.6667 7.61661 11.6667 7.1499 11.6667Z" stroke="black" stroke-width="1.15" stroke-linecap="round" stroke-linejoin="round"/>
</svg>
