<svg width="44" height="44" viewBox="0 0 44 44" fill="none" xmlns="http://www.w3.org/2000/svg">
<path d="M22.9167 5.49999H14.3C11.2197 5.49999 9.67957 5.49999 8.50305 6.09945C7.46816 6.62676 6.62677 7.46815 6.09946 8.50304C5.5 9.67956 5.5 11.2197 5.5 14.3V29.7C5.5 32.7803 5.5 34.3204 6.09946 35.4969C6.62677 36.5318 7.46816 37.3732 8.50305 37.9005C9.67957 38.5 11.2197 38.5 14.3 38.5H31.1667C32.8716 38.5 33.7241 38.5 34.4235 38.3126C36.3215 37.804 37.804 36.3215 38.3126 34.4235C38.5 33.7241 38.5 32.8716 38.5 31.1667M34.8333 14.6667V3.66666M29.3333 9.16666H40.3333M19.25 15.5833C19.25 17.6084 17.6084 19.25 15.5833 19.25C13.5583 19.25 11.9167 17.6084 11.9167 15.5833C11.9167 13.5583 13.5583 11.9167 15.5833 11.9167C17.6084 11.9167 19.25 13.5583 19.25 15.5833ZM27.4817 21.8499L11.9738 35.9481C11.1015 36.7411 10.6654 37.1375 10.6268 37.481C10.5933 37.7787 10.7075 38.074 10.9325 38.2718C11.1921 38.5 11.7815 38.5 12.9604 38.5H30.1693C32.8078 38.5 34.127 38.5 35.1632 38.0567C36.464 37.5003 37.5003 36.464 38.0567 35.1632C38.5 34.127 38.5 32.8078 38.5 30.1693C38.5 29.2815 38.5 28.8377 38.4029 28.4243C38.281 27.9048 38.0471 27.4181 37.7176 26.9984C37.4555 26.6644 37.1088 26.3871 36.4156 25.8325L31.2873 21.7299C30.5935 21.1748 30.2466 20.8973 29.8646 20.7994C29.5279 20.713 29.1736 20.7242 28.843 20.8316C28.4679 20.9534 28.1392 21.2523 27.4817 21.8499Z" stroke="#808080" stroke-width="2" stroke-linecap="round" stroke-linejoin="round"/>
</svg>
