<svg width="32" height="32" viewBox="0 0 32 32" fill="none" xmlns="http://www.w3.org/2000/svg">
<path fill-rule="evenodd" clip-rule="evenodd" d="M8.00033 21.1744H5.23093L3.15422 13.0186C3.05565 12.6434 2.84636 12.3118 2.5385 12.1554C1.7702 11.7626 0.923582 11.45 0 11.2923V10.9783H4.46128C5.077 10.9783 5.53879 11.45 5.61576 11.9978L6.69327 17.8808L9.46132 10.9783H12.1538L8.00033 21.1744ZM13.6931 21.1744H11.0776L13.2313 10.9783H15.8467L13.6931 21.1744ZM19.2305 13.8029C19.3075 13.2538 19.7693 12.9398 20.308 12.9398C21.1546 12.861 22.0769 13.0186 22.8465 13.4101L23.3083 11.2148C22.5387 10.9008 21.6921 10.7432 20.9237 10.7432C18.3853 10.7432 16.5381 12.1555 16.5381 14.1156C16.5381 15.6067 17.8465 16.3897 18.7701 16.8614C19.7693 17.3317 20.1541 17.6457 20.0771 18.116C20.0771 18.8215 19.3075 19.1355 18.5392 19.1355C17.6156 19.1355 16.692 18.9003 15.8467 18.5075L15.385 20.7041C16.3085 21.0956 17.3077 21.2533 18.2313 21.2533C21.0777 21.3307 22.8465 19.9198 22.8465 17.802C22.8465 15.1351 19.2305 14.9787 19.2305 13.8029ZM32 21.1744L29.9233 10.9783H27.6926C27.2309 10.9783 26.7691 11.2923 26.6151 11.7626L22.7696 21.1744H25.462L25.9994 19.6846H29.3076L29.6154 21.1744H32ZM28.0774 13.7241L28.8457 17.5669H26.6921L28.0774 13.7241Z" fill="#1434CB"/>
</svg>
