<svg width="25" height="24" viewBox="0 0 25 24" fill="none" xmlns="http://www.w3.org/2000/svg">
<path d="M11.7827 3.45332C12.0131 2.98638 12.1284 2.75291 12.2848 2.67831C12.4209 2.61341 12.5791 2.61341 12.7152 2.67831C12.8717 2.75291 12.9869 2.98638 13.2174 3.45332L15.4041 7.88328C15.4721 8.02113 15.5061 8.09006 15.5558 8.14358C15.5999 8.19096 15.6527 8.22935 15.7113 8.25662C15.7776 8.28742 15.8536 8.29854 16.0057 8.32077L20.897 9.03571C21.4121 9.11099 21.6696 9.14863 21.7888 9.27444C21.8925 9.38389 21.9412 9.5343 21.9215 9.68377C21.8988 9.85558 21.7124 10.0372 21.3395 10.4004L17.8014 13.8464C17.6912 13.9538 17.636 14.0076 17.6004 14.0715C17.5689 14.128 17.5487 14.1902 17.5409 14.2545C17.5321 14.3271 17.5451 14.403 17.5711 14.5547L18.406 19.4221C18.494 19.9355 18.538 20.1922 18.4553 20.3445C18.3833 20.477 18.2554 20.57 18.1071 20.5975C17.9366 20.6291 17.7061 20.5078 17.2451 20.2654L12.8724 17.9658C12.7361 17.8942 12.668 17.8584 12.5962 17.8443C12.5327 17.8318 12.4673 17.8318 12.4038 17.8443C12.332 17.8584 12.2639 17.8942 12.1277 17.9658L7.75492 20.2654C7.29392 20.5078 7.06341 20.6291 6.89297 20.5975C6.74468 20.57 6.61672 20.477 6.54474 20.3445C6.462 20.1922 6.50603 19.9355 6.59407 19.4221L7.42889 14.5547C7.45491 14.403 7.46793 14.3271 7.45912 14.2545C7.45132 14.1902 7.43111 14.128 7.39961 14.0715C7.36402 14.0076 7.30888 13.9538 7.19859 13.8464L3.66056 10.4004C3.28766 10.0372 3.10121 9.85558 3.07853 9.68377C3.05879 9.5343 3.10755 9.38389 3.21125 9.27444C3.33044 9.14863 3.58797 9.11099 4.10304 9.03571L8.99431 8.32077C9.14642 8.29854 9.22248 8.28742 9.28872 8.25662C9.34736 8.22935 9.40016 8.19096 9.44419 8.14358C9.49391 8.09006 9.52793 8.02113 9.59597 7.88328L11.7827 3.45332Z" stroke="black" stroke-width="1.15" stroke-linecap="round" stroke-linejoin="round"/>
</svg>
