<svg width="80" height="80" viewBox="0 0 80 80" fill="none" xmlns="http://www.w3.org/2000/svg">
<path d="M40 80C62.0914 80 80 62.0914 80 40C80 17.9086 62.0914 0 40 0C17.9086 0 0 17.9086 0 40C0 62.0914 17.9086 80 40 80Z" fill="#FFEFE0"/>
<path d="M30.2209 51.0466H49.779" stroke="#212121" stroke-width="3" stroke-miterlimit="10" stroke-linecap="round"/>
<path fill-rule="evenodd" clip-rule="evenodd" d="M28.2127 43.3592C26.9221 44.6497 25.1718 45.3747 23.3467 45.3747C21.5215 45.3747 19.7712 44.6497 18.4807 43.3592C17.1901 42.0686 16.4651 40.3183 16.4651 38.4932H30.2282C30.2282 40.3183 29.5032 42.0686 28.2127 43.3592ZM22.9772 39.5C22.701 39.5 22.4772 39.7239 22.4772 40C22.4772 40.2761 22.701 40.5 22.9772 40.5H28.6853C28.9614 40.5 29.1853 40.2761 29.1853 40C29.1853 39.7239 28.9614 39.5 28.6853 39.5H22.9772Z" fill="#212121"/>
<path fill-rule="evenodd" clip-rule="evenodd" d="M61.5338 43.3592C60.2433 44.6497 58.4929 45.3747 56.6678 45.3747C54.8427 45.3747 53.0924 44.6497 51.8018 43.3592C50.5113 42.0686 49.7863 40.3183 49.7863 38.4932H63.5494C63.5494 40.3183 62.8244 42.0686 61.5338 43.3592ZM56.2985 39.5C56.0223 39.5 55.7985 39.7239 55.7985 40C55.7985 40.2761 56.0223 40.5 56.2985 40.5H62.0065C62.2827 40.5 62.5065 40.2761 62.5065 40C62.5065 39.7239 62.2827 39.5 62.0065 39.5H56.2985Z" fill="#212121"/>
</svg>
