<svg width="80" height="80" viewBox="0 0 80 80" fill="none" xmlns="http://www.w3.org/2000/svg">
<path d="M40 80C62.0914 80 80 62.0914 80 40C80 17.9086 62.0914 0 40 0C17.9086 0 0 17.9086 0 40C0 62.0914 17.9086 80 40 80Z" fill="#F5F5F7"/>
<path d="M30.2209 54.7263C33.0964 52.7159 36.5203 51.6377 40.0289 51.6377C43.5376 51.6377 46.9614 52.7159 49.837 54.7263" stroke="black" stroke-width="3" stroke-linecap="round" stroke-linejoin="round"/>
<path fill-rule="evenodd" clip-rule="evenodd" d="M30.2499 38.4931C30.2499 42.2937 27.169 45.3747 23.3684 45.3747C19.5678 45.3747 16.4868 42.2937 16.4868 38.4931C16.4868 34.6926 19.5678 31.6116 23.3684 31.6116C27.169 31.6116 30.2499 34.6926 30.2499 38.4931ZM26.469 36.1481C26.6544 35.8684 26.7526 35.54 26.7512 35.2044C26.7512 34.9822 26.7073 34.7621 26.622 34.5568C26.5367 34.3516 26.4117 34.1652 26.2543 34.0084C26.0968 33.8516 25.9098 33.7274 25.7042 33.643C25.4986 33.5586 25.2784 33.5157 25.0561 33.5166C24.7206 33.5166 24.3926 33.6162 24.1137 33.8028C23.8348 33.9894 23.6175 34.2545 23.4894 34.5647C23.3613 34.8748 23.3282 35.216 23.3942 35.545C23.4602 35.874 23.6223 36.176 23.8601 36.4128C24.0979 36.6496 24.4006 36.8104 24.7299 36.875C25.0592 36.9396 25.4002 36.905 25.7098 36.7756C26.0194 36.6462 26.2836 36.4278 26.469 36.1481Z" fill="black"/>
<path fill-rule="evenodd" clip-rule="evenodd" d="M63.5712 38.4931C63.5712 42.2937 60.4903 45.3747 56.6897 45.3747C52.8891 45.3747 49.8081 42.2937 49.8081 38.4931C49.8081 34.6926 52.8891 31.6116 56.6897 31.6116C60.4903 31.6116 63.5712 34.6926 63.5712 38.4931ZM59.7903 36.1481C59.9757 35.8684 60.0739 35.54 60.0724 35.2044C60.0724 34.9822 60.0285 34.7621 59.9433 34.5568C59.858 34.3516 59.733 34.1652 59.5755 34.0084C59.418 33.8516 59.2311 33.7274 59.0255 33.643C58.8199 33.5586 58.5996 33.5157 58.3774 33.5166C58.0418 33.5166 57.7138 33.6162 57.4349 33.8028C57.156 33.9894 56.9388 34.2545 56.8107 34.5647C56.6826 34.8748 56.6495 35.216 56.7155 35.545C56.7815 35.874 56.9436 36.176 57.1814 36.4128C57.4192 36.6496 57.7219 36.8104 58.0512 36.875C58.3805 36.9396 58.7215 36.905 59.0311 36.7756C59.3407 36.6462 59.6049 36.4278 59.7903 36.1481Z" fill="black"/>
<path d="M22.021 24.9111C21.4109 26.7542 20.3221 28.4021 18.8661 29.6864C17.4101 30.9706 15.6391 31.8449 13.7342 32.2201" stroke="black" stroke-width="3" stroke-linecap="round" stroke-linejoin="round"/>
<path d="M58.1094 24.9111C58.7208 26.7548 59.8109 28.4029 61.2681 29.6871C62.7254 30.9713 64.4976 31.8454 66.4035 32.2201" stroke="black" stroke-width="3" stroke-linecap="round" stroke-linejoin="round"/>
</svg>
