<svg width="80" height="80" viewBox="0 0 80 80" fill="none" xmlns="http://www.w3.org/2000/svg">
<path d="M40 80C62.0914 80 80 62.0914 80 40C80 17.9086 62.0914 0 40 0C17.9086 0 0 17.9086 0 40C0 62.0914 17.9086 80 40 80Z" fill="#FFDA44"/>
<path d="M22.2239 47.5986H58.066C58.066 47.5986 57.6603 62.854 40.1449 62.854C22.6295 62.854 22.2239 47.5986 22.2239 47.5986Z" fill="#212121"/>
<path d="M31.1191 61.0719C36.8992 63.4479 43.3832 63.4479 49.1633 61.0719C48.5259 58.5366 44.7374 56.5808 40.1448 56.5808C35.5523 56.5808 31.7566 58.5366 31.1191 61.0719Z" fill="#FF5252"/>
<path fill-rule="evenodd" clip-rule="evenodd" d="M20.1811 36.1099C18.8348 37.1583 17.9532 38.6927 17.7255 40.3837C19.0562 39.8792 20.4156 39.4534 21.7964 39.1088C22.8624 38.8488 23.96 38.7415 25.0561 38.7901C26.1951 38.8679 27.3248 39.0472 28.4317 39.3262C28.6949 39.3843 28.9593 39.4605 29.2316 39.539C29.6039 39.6464 29.9909 39.7579 30.4093 39.8332C31.1551 40.0818 31.921 40.2659 32.6983 40.3837C32.462 39.5946 32.1286 38.8379 31.7059 38.1309C31.2276 37.4652 30.6734 36.8574 30.0543 36.32C28.682 35.1958 26.987 34.5386 25.2155 34.4439C23.3913 34.3734 21.6031 34.9651 20.1811 36.1099ZM25.4979 35.4653C24.963 35.5454 24.4611 35.7738 24.0492 36.1244C24.5707 36.3128 25.0126 36.4649 25.4545 36.5735L26.7149 36.914C27.1278 37.0227 27.5479 37.1313 27.9826 37.2183C28.0416 37.2301 28.101 37.2421 28.1611 37.2543C28.543 37.3319 28.9493 37.4145 29.4313 37.4645C29.2423 36.9562 28.9102 36.5134 28.4751 36.1896C28.053 35.8751 27.5718 35.6489 27.0603 35.5244C26.5488 35.4 26.0174 35.3798 25.4979 35.4653Z" fill="#212121"/>
<path fill-rule="evenodd" clip-rule="evenodd" d="M58.4933 39.109C59.8745 39.4525 61.2339 39.8783 62.5643 40.3839C62.3554 38.6949 61.4886 37.1565 60.1521 36.1028C58.7206 34.9496 56.918 34.3574 55.0815 34.4367C53.3119 34.5299 51.6187 35.1874 50.2499 36.3129C49.6241 36.8482 49.067 37.4589 48.5911 38.1311C48.1654 38.8365 47.8319 39.5936 47.5987 40.3839C48.3736 40.266 49.137 40.0818 49.8805 39.8333C50.295 39.7587 50.6788 39.6485 51.0493 39.5421C51.3262 39.4626 51.5957 39.3851 51.8653 39.3263C52.9698 39.0474 54.0971 38.868 55.2336 38.7902C56.3298 38.7417 57.4273 38.8489 58.4933 39.109ZM56.1173 35.4727C55.5812 35.549 55.0783 35.7778 54.6686 36.1319C55.1328 36.3067 55.6069 36.4543 56.0883 36.5737C56.5157 36.7041 56.9214 36.82 57.3415 36.9214C57.3933 36.9339 57.445 36.9464 57.4967 36.9589C57.8638 37.0477 58.2282 37.1359 58.6092 37.2184C59.0865 37.3306 59.5704 37.4128 60.0579 37.4647C59.8635 36.9614 59.5323 36.5223 59.1018 36.197C58.6785 35.882 58.1961 35.6554 57.6833 35.5309C57.1705 35.4065 56.6379 35.3867 56.1173 35.4727Z" fill="#212121"/>
</svg>
