<svg width="80" height="80" viewBox="0 0 80 80" fill="none" xmlns="http://www.w3.org/2000/svg">
<path d="M40 80C62.0914 80 80 62.0914 80 40C80 17.9086 62.0914 0 40 0C17.9086 0 0 17.9086 0 40C0 62.0914 17.9086 80 40 80Z" fill="#E1F2FF"/>
<path d="M30.2209 51.054C30.2209 51.054 39.6378 57.5733 49.779 51.054" stroke="#212121" stroke-width="3" stroke-miterlimit="10" stroke-linecap="round"/>
<path fill-rule="evenodd" clip-rule="evenodd" d="M30.2209 38.4931C30.2209 42.2937 27.1399 45.3747 23.3393 45.3747C19.5387 45.3747 16.4578 42.2937 16.4578 38.4931C16.4578 34.6926 19.5387 31.6116 23.3393 31.6116C27.1399 31.6116 30.2209 34.6926 30.2209 38.4931ZM26.4538 36.1569C26.636 35.8732 26.7294 35.5417 26.7222 35.2047C26.7146 34.7621 26.5334 34.3402 26.2177 34.03C25.902 33.7197 25.4771 33.5458 25.0344 33.5459C24.6973 33.5445 24.3675 33.6437 24.0871 33.8307C23.8066 34.0178 23.5883 34.2842 23.4601 34.5959C23.3318 34.9076 23.2994 35.2505 23.3669 35.5807C23.4345 35.911 23.599 36.2136 23.8394 36.4498C24.0798 36.6861 24.3852 36.8454 24.7166 36.9072C25.0479 36.969 25.3902 36.9307 25.6997 36.797C26.0091 36.6634 26.2717 36.4405 26.4538 36.1569Z" fill="#212121"/>
<path fill-rule="evenodd" clip-rule="evenodd" d="M63.5422 38.4931C63.5422 42.2937 60.4612 45.3747 56.6606 45.3747C52.86 45.3747 49.7791 42.2937 49.7791 38.4931C49.7791 34.6926 52.86 31.6116 56.6606 31.6116C60.4612 31.6116 63.5422 34.6926 63.5422 38.4931ZM59.7751 36.1569C59.9572 35.8732 60.0507 35.5417 60.0435 35.2047C60.0359 34.7621 59.8547 34.3402 59.539 34.03C59.2233 33.7197 58.7984 33.5458 58.3557 33.5459C58.0186 33.5445 57.6888 33.6437 57.4084 33.8307C57.1279 34.0178 56.9096 34.2842 56.7813 34.5959C56.6531 34.9076 56.6206 35.2505 56.6882 35.5807C56.7558 35.911 56.9203 36.2136 57.1607 36.4498C57.4011 36.6861 57.7065 36.8454 58.0379 36.9072C58.3692 36.969 58.7115 36.9307 59.0209 36.797C59.3304 36.6634 59.593 36.4405 59.7751 36.1569Z" fill="#212121"/>
</svg>
