<svg width="80" height="80" viewBox="0 0 80 80" fill="none" xmlns="http://www.w3.org/2000/svg">
<path d="M40 80C62.0914 80 80 62.0914 80 40C80 17.9086 62.0914 0 40 0C17.9086 0 0 17.9086 0 40C0 62.0914 17.9086 80 40 80Z" fill="#E4E0F4"/>
<path d="M30.2209 51.0466H49.779" stroke="#212121" stroke-width="3" stroke-miterlimit="10" stroke-linecap="round"/>
<path fill-rule="evenodd" clip-rule="evenodd" d="M30.2209 38.4931C30.2209 42.2937 27.1399 45.3747 23.3393 45.3747C19.5387 45.3747 16.4578 42.2937 16.4578 38.4931C16.4578 34.6926 19.5387 31.6116 23.3393 31.6116C27.1399 31.6116 30.2209 34.6926 30.2209 38.4931ZM26.5123 36.1561C26.6941 35.8726 26.7874 35.5414 26.7802 35.2047C26.7726 34.7609 26.5904 34.3379 26.2731 34.0274C25.9559 33.7169 25.5291 33.5439 25.0852 33.5459C24.7484 33.546 24.4193 33.6464 24.1398 33.8343C23.8603 34.0222 23.6431 34.2891 23.516 34.6009C23.3888 34.9128 23.3574 35.2554 23.4258 35.5852C23.4942 35.9149 23.6593 36.2168 23.9 36.4524C24.1407 36.6879 24.4461 36.8465 24.7772 36.9077C25.1084 36.969 25.4503 36.9302 25.7593 36.7963C26.0683 36.6625 26.3305 36.4396 26.5123 36.1561Z" fill="#212121"/>
<path fill-rule="evenodd" clip-rule="evenodd" d="M63.5422 38.4931C63.5422 42.2937 60.4612 45.3747 56.6606 45.3747C52.86 45.3747 49.7791 42.2937 49.7791 38.4931C49.7791 34.6926 52.86 31.6116 56.6606 31.6116C60.4612 31.6116 63.5422 34.6926 63.5422 38.4931ZM59.8335 36.1561C60.0153 35.8726 60.1086 35.5414 60.1014 35.2047C60.0937 34.7609 59.9116 34.3379 59.5943 34.0274C59.2771 33.7169 58.8502 33.5439 58.4063 33.5459C58.0696 33.546 57.7404 33.6464 57.461 33.8343C57.1815 34.0222 56.9643 34.2891 56.8371 34.6009C56.71 34.9128 56.6786 35.2554 56.747 35.5852C56.8154 35.9149 56.9805 36.2168 57.2211 36.4524C57.4618 36.6879 57.7673 36.8465 58.0984 36.9077C58.4296 36.969 58.7715 36.9302 59.0805 36.7963C59.3895 36.6625 59.6517 36.4396 59.8335 36.1561Z" fill="#212121"/>
</svg>
