<svg width="24" height="24" viewBox="0 0 24 24" fill="none" xmlns="http://www.w3.org/2000/svg">
<g clip-path="url(#clip0_763_6522)">
<path d="M16.1739 0.746391C14.8739 0.264047 13.4679 0 12 0C10.5322 0 9.12612 0.264047 7.82614 0.746391L6.78265 12L7.82614 23.2536C9.12612 23.736 10.5322 24 12 24C13.4679 24 14.8739 23.736 16.1739 23.2536L17.2174 12L16.1739 0.746391Z" fill="#FFDA44"/>
<path d="M24 11.9999C24 6.84037 20.7435 2.44181 16.1739 0.746338V23.2536C20.7435 21.558 24 17.1595 24 11.9999Z" fill="#D80027"/>
<path d="M0 11.9999C0 17.1595 3.2565 21.558 7.82611 23.2536V0.746338C3.2565 2.44181 0 6.84037 0 11.9999Z" fill="black"/>
</g>
<defs>
<clipPath id="clip0_763_6522">
<rect width="24" height="24" fill="white"/>
</clipPath>
</defs>
</svg>
