<svg width="24" height="24" viewBox="0 0 24 24" fill="none" xmlns="http://www.w3.org/2000/svg">
<g clip-path="url(#clip0_766_3300)">
<path d="M22.6676 6.49763C22.1131 5.4233 21.3863 4.41493 20.4857 3.51436C19.5851 2.61375 18.5767 1.88696 17.5024 1.33252L9.04853 9.04843L1.33258 17.5023C1.88706 18.5766 2.61386 19.585 3.51442 20.4856C4.41499 21.3862 5.42341 22.113 6.49769 22.6674L14.9516 14.9515L22.6676 6.49763Z" fill="#FFDA44"/>
<path d="M3.51443 20.4858C4.01782 20.9892 4.55496 21.4381 5.11835 21.8334L21.8332 5.11848C21.438 4.55509 20.9891 4.01795 20.4857 3.51455C19.9822 3.01116 19.4451 2.56224 18.8817 2.16699L2.16687 18.8819C2.56207 19.4452 3.011 19.9824 3.51443 20.4858Z" fill="#D80027"/>
<path d="M3.51429 3.51431C-0.271664 7.30026 -0.998461 12.9861 1.33245 17.5023L17.5023 1.33251C12.986 -0.998347 7.3002 -0.271457 3.51429 3.51431Z" fill="#338AF3"/>
<path d="M20.4857 20.4855C24.2716 16.6996 24.9983 11.0137 22.6676 6.49756L6.49774 22.6673C11.0139 24.9982 16.6998 24.2714 20.4857 20.4855Z" fill="#338AF3"/>
<path d="M6.39498 3.65186L7.04251 5.64484H9.13801L7.44273 6.87653L8.09026 8.86946L6.39498 7.63773L4.69961 8.86946L5.34723 6.87653L3.65186 5.64484H5.74736L6.39498 3.65186Z" fill="#FFDA44"/>
</g>
<defs>
<clipPath id="clip0_766_3300">
<rect width="24" height="24" fill="white"/>
</clipPath>
</defs>
</svg>
