<svg width="24" height="24" viewBox="0 0 24 24" fill="none" xmlns="http://www.w3.org/2000/svg">
<g clip-path="url(#clip0_766_3722)">
<path d="M12 24C18.6274 24 24 18.6274 24 12C24 5.37258 18.6274 0 12 0C5.37258 0 0 5.37258 0 12C0 18.6274 5.37258 24 12 24Z" fill="#D80027"/>
<path d="M13.2389 9.07837C12.9662 10.2127 12.4816 9.99637 12.2439 10.9856C10.8431 10.6488 9.9804 9.24023 10.3172 7.83937C10.6539 6.43861 12.0626 5.57592 13.4634 5.91271C12.9878 7.89117 13.4829 8.06386 13.2389 9.07837Z" fill="#F0F0F0"/>
<path d="M9.60408 9.91871C10.5986 10.5286 10.2431 10.9226 11.1104 11.4545C10.3572 12.6827 8.75104 13.0678 7.52283 12.3146C6.29465 11.5615 5.90948 9.95522 6.66267 8.72705C8.39733 9.79074 8.71444 9.37322 9.60408 9.91871Z" fill="#F0F0F0"/>
<path d="M9.28019 13.6358C10.1676 12.8784 10.4324 13.3382 11.2062 12.6777C12.1416 13.7735 12.0115 15.4202 10.9158 16.3555C9.81991 17.2909 8.17329 17.1607 7.23804 16.065C8.78557 14.7439 8.48646 14.3132 9.28019 13.6358Z" fill="#F0F0F0"/>
<path d="M12.715 15.0924C12.2688 14.0144 12.7879 13.9046 12.3989 12.9646C13.7301 12.4136 15.256 13.0462 15.807 14.3774C16.3579 15.7086 15.7253 17.2344 14.3941 17.7854C13.6161 15.9053 13.1141 16.0566 12.715 15.0924Z" fill="#F0F0F0"/>
<path d="M15.1617 12.2758C13.9986 12.367 14.0544 11.8392 13.0403 11.9188C12.9276 10.4826 14.0008 9.22678 15.4371 9.11405C16.8733 9.00159 18.1291 10.0747 18.2417 11.511C16.2131 11.67 16.2019 12.1943 15.1617 12.2758Z" fill="#F0F0F0"/>
</g>
<defs>
<clipPath id="clip0_766_3722">
<rect width="24" height="24" fill="white"/>
</clipPath>
</defs>
</svg>
