<svg width="24" height="24" viewBox="0 0 24 24" fill="none" xmlns="http://www.w3.org/2000/svg">
<g clip-path="url(#clip0_766_3730)">
<path d="M12 24C18.6274 24 24 18.6274 24 12C24 5.37258 18.6274 0 12 0C5.37258 0 0 5.37258 0 12C0 18.6274 5.37258 24 12 24Z" fill="#F0F0F0"/>
<path d="M12 0C7.24249 0 3.13174 2.76867 1.19073 6.78263H22.8093C20.8683 2.76867 16.7575 0 12 0Z" fill="#FF9811"/>
<path d="M12 23.9999C16.7575 23.9999 20.8683 21.2312 22.8093 17.2173H1.19073C3.13174 21.2312 7.24249 23.9999 12 23.9999Z" fill="#6DA544"/>
<path d="M12 16.174C14.3052 16.174 16.1739 14.3052 16.1739 12.0001C16.1739 9.69489 14.3052 7.82617 12 7.82617C9.69483 7.82617 7.82611 9.69489 7.82611 12.0001C7.82611 14.3052 9.69483 16.174 12 16.174Z" fill="#0052B4"/>
<path d="M12 14.6085C13.4407 14.6085 14.6087 13.4405 14.6087 11.9998C14.6087 10.5591 13.4407 9.39111 12 9.39111C10.5592 9.39111 9.3913 10.5591 9.3913 11.9998C9.3913 13.4405 10.5592 14.6085 12 14.6085Z" fill="#F0F0F0"/>
<path d="M12 8.78076L12.8048 10.606L14.7878 10.3903L13.6096 11.9999L14.7878 13.6094L12.8048 13.3937L12 15.2189L11.1952 13.3937L9.21222 13.6094L10.3905 11.9999L9.21222 10.3903L11.1952 10.606L12 8.78076Z" fill="#0052B4"/>
</g>
<defs>
<clipPath id="clip0_766_3730">
<rect width="24" height="24" fill="white"/>
</clipPath>
</defs>
</svg>
