<svg width="24" height="24" viewBox="0 0 24 24" fill="none" xmlns="http://www.w3.org/2000/svg">
<g clip-path="url(#clip0_1408_3059)">
<path d="M12 24C18.6274 24 24 18.6274 24 12C24 5.37258 18.6274 0 12 0C5.37258 0 0 5.37258 0 12C0 18.6274 5.37258 24 12 24Z" fill="#338AF3"/>
<path d="M18.784 12.1304H5.21875C5.21875 13.0669 6.03442 13.826 6.97084 13.826H6.91441C6.91441 14.7625 7.67355 15.5217 8.61006 15.5217C8.61006 16.4582 9.3692 17.2173 10.3057 17.2173H13.697C14.6335 17.2173 15.3927 16.4582 15.3927 15.5217C16.3292 15.5217 17.0883 14.7625 17.0883 13.826H17.0319C17.9682 13.826 18.784 13.0669 18.784 12.1304Z" fill="#FFDA44"/>
<path d="M16.696 9.91309C16.696 12.5064 14.5937 14.6087 12.0003 14.6087C9.40698 14.6087 7.30469 12.5064 7.30469 9.91309" fill="#338AF3"/>
<path d="M15.5873 9.91311L14.1218 10.6025L14.9022 12.0219L13.3108 11.7174L13.1092 13.325L12.0007 12.1426L10.8922 13.325L10.6906 11.7174L9.09919 12.0218L9.87956 10.6025L8.41406 9.91311L9.87961 9.22377L9.09919 7.80444L10.6905 8.10885L10.8922 6.50122L12.0007 7.68364L13.1092 6.50122L13.3108 8.10885L14.9023 7.80444L14.1218 9.22381L15.5873 9.91311Z" fill="#FFDA44"/>
</g>
<defs>
<clipPath id="clip0_1408_3059">
<rect width="24" height="24" fill="white"/>
</clipPath>
</defs>
</svg>
