<svg width="24" height="24" viewBox="0 0 24 24" fill="none" xmlns="http://www.w3.org/2000/svg">
<g clip-path="url(#clip0_763_6804)">
<path d="M24 12C24 18.6274 18.6274 24 12 24C5.37262 24 0 18.6274 0 12C0.521719 12 12 10.4348 12 10.4348L24 12Z" fill="#D80027"/>
<path d="M0 12C0 5.37262 5.37262 0 12 0C18.6274 0 24 5.37262 24 12" fill="#0052B4"/>
<path d="M8.86953 8.34773C8.86953 7.48331 8.16875 6.78253 7.30433 6.78253C6.90331 6.78253 6.53783 6.93346 6.26085 7.18138V6.26076H6.78256V5.21728H6.26085V4.69556H5.21736V5.21728H4.69564V6.26076H5.21736V7.18138C4.94038 6.93346 4.57489 6.78253 4.17388 6.78253C3.30945 6.78253 2.60867 7.48331 2.60867 8.34773C2.60867 8.81118 2.81028 9.22743 3.13039 9.51407V10.4347H8.34777V9.51407C8.66797 9.22743 8.86953 8.81118 8.86953 8.34773Z" fill="#FFDA44"/>
</g>
<defs>
<clipPath id="clip0_763_6804">
<rect width="24" height="24" fill="white"/>
</clipPath>
</defs>
</svg>
