<svg width="24" height="24" viewBox="0 0 24 24" fill="none" xmlns="http://www.w3.org/2000/svg">
<g clip-path="url(#clip0_763_6837)">
<path d="M12 24C18.6274 24 24 18.6274 24 12C24 5.37258 18.6274 0 12 0C5.37258 0 0 5.37258 0 12C0 18.6274 5.37258 24 12 24Z" fill="#F0F0F0"/>
<path d="M12 0C6.84043 0 2.44191 3.2565 0.746399 7.82611H23.2537C21.5581 3.2565 17.1596 0 12 0Z" fill="#D80027"/>
<path d="M12 23.9999C17.1596 23.9999 21.5581 20.7434 23.2536 16.1738H0.746399C2.44191 20.7434 6.84043 23.9999 12 23.9999Z" fill="#338AF3"/>
</g>
<defs>
<clipPath id="clip0_763_6837">
<rect width="24" height="24" fill="white"/>
</clipPath>
</defs>
</svg>
