<svg width="24" height="24" viewBox="0 0 24 24" fill="none" xmlns="http://www.w3.org/2000/svg">
<g clip-path="url(#clip0_766_3369)">
<path d="M0 12.0001C0 13.4679 0.264047 14.874 0.746391 16.174L12 16.6958L23.2536 16.174C23.736 14.874 24 13.4679 24 12.0001C24 10.5323 23.736 9.12619 23.2536 7.82621L12 7.30444L0.746391 7.82616C0.264047 9.12619 0 10.5323 0 12.0001H0Z" fill="#D80027"/>
<path d="M12 0C6.84041 0 2.4419 3.2565 0.746384 7.82611H23.2536C21.5581 3.2565 17.1596 0 12 0Z" fill="black"/>
<path d="M23.2536 16.1738H0.746384C2.4419 20.7434 6.84041 23.9999 12 23.9999C17.1596 23.9999 21.5581 20.7434 23.2536 16.1738Z" fill="#496E2D"/>
<path d="M15.5866 5.73909L14.1211 5.04974L14.9016 3.63041L13.3102 3.93487L13.1085 2.32715L12 3.50957L10.8915 2.32715L10.6898 3.93487L9.09849 3.63041L9.87891 5.04974L8.41336 5.73909H15.5866Z" fill="#D80027"/>
</g>
<defs>
<clipPath id="clip0_766_3369">
<rect width="24" height="24" fill="white"/>
</clipPath>
</defs>
</svg>
