<svg width="24" height="24" viewBox="0 0 24 24" fill="none" xmlns="http://www.w3.org/2000/svg">
<g clip-path="url(#clip0_766_3743)">
<path d="M12 24C18.6274 24 24 18.6274 24 12C24 5.37258 18.6274 0 12 0C5.37258 0 0 5.37258 0 12C0 18.6274 5.37258 24 12 24Z" fill="#F0F0F0"/>
<path d="M11.4783 12.0001H24C24 10.9169 23.8556 9.86779 23.5866 8.86963H11.4783V12.0001Z" fill="#D80027"/>
<path d="M11.4783 5.73934H22.2387C21.5041 4.54065 20.565 3.48114 19.4698 2.60889H11.4783V5.73934Z" fill="#D80027"/>
<path d="M12 24.0003C14.8242 24.0003 17.42 23.0242 19.4699 21.3916H4.53015C6.58004 23.0242 9.17584 24.0003 12 24.0003Z" fill="#D80027"/>
<path d="M1.76128 18.2608H22.2387C22.8285 17.2986 23.2858 16.2467 23.5866 15.1304H0.413391C0.714188 16.2467 1.17155 17.2986 1.76128 18.2608Z" fill="#D80027"/>
<path d="M12 12C12 5.37262 12 4.59131 12 0C5.37262 0 0 5.37262 0 12H12Z" fill="#0052B4"/>
<path d="M7.97973 10.2718C6.34089 10.2718 5.01236 8.94327 5.01236 7.30447C5.01236 5.66567 6.34094 4.33709 7.97973 4.33709C8.49072 4.33709 8.97151 4.46633 9.39128 4.69377C8.73278 4.04984 7.83222 3.65234 6.83842 3.65234C4.82144 3.65234 3.18625 5.28748 3.18625 7.30452C3.18625 9.32155 4.82144 10.9567 6.83842 10.9567C7.83222 10.9567 8.73278 10.5592 9.39128 9.91527C8.97151 10.1426 8.49076 10.2718 7.97973 10.2718Z" fill="#FFDA44"/>
<path d="M8.81595 5.21729L9.34278 6.31894L10.5325 6.04407L9.99973 7.14277L10.9565 7.90153L9.76526 8.17008L9.76859 9.39122L8.81595 8.62725L7.86326 9.39122L7.86654 8.17008L6.67526 7.90153L7.63208 7.14277L7.09925 6.04407L8.28907 6.31894L8.81595 5.21729Z" fill="#FFDA44"/>
</g>
<defs>
<clipPath id="clip0_766_3743">
<rect width="24" height="24" fill="white"/>
</clipPath>
</defs>
</svg>
