<svg width="24" height="24" viewBox="0 0 24 24" fill="none" xmlns="http://www.w3.org/2000/svg">
<g clip-path="url(#clip0_1408_3091)">
<path d="M17.2165 1.19072C15.6389 0.427875 13.869 0 11.9991 0C10.1293 0 8.35939 0.427875 6.78177 1.19072L5.73828 12L6.78177 22.8093C8.35939 23.5721 10.1293 24 11.9991 24C13.869 24 15.6389 23.5721 17.2165 22.8093L18.26 12L17.2165 1.19072Z" fill="#FFDA44"/>
<path d="M6.78263 1.19116C2.76872 3.13212 0 7.24254 0 12C0 16.7575 2.76872 20.8679 6.78263 22.8089V1.19116Z" fill="#0052B4"/>
<path d="M17.2188 1.19116V22.8089C21.2327 20.8679 24.0014 16.7575 24.0014 12C24.0014 7.24254 21.2327 3.13212 17.2188 1.19116Z" fill="#D80027"/>
<path d="M16.172 9.44155H13.3025C13.3025 8.72118 12.7185 8.13721 11.9981 8.13721C11.2777 8.13721 10.6938 8.72118 10.6938 9.44155H7.82422C7.82422 10.1508 8.44208 10.7257 9.15125 10.7257H9.1085C9.1085 11.4351 9.68347 12.0101 10.3928 12.0101C10.3928 12.6381 10.8438 13.1599 11.4395 13.2714L10.4275 15.5562C10.9124 15.7533 11.4424 15.8629 11.9981 15.8629C12.5538 15.8629 13.0838 15.7533 13.5687 15.5562L12.5567 13.2714C13.1524 13.1599 13.6034 12.6381 13.6034 12.0101C14.3128 12.0101 14.8877 11.4351 14.8877 10.7257H14.8449C15.5542 10.7257 16.172 10.1508 16.172 9.44155Z" fill="#FF9811"/>
<path d="M12.0003 11.2173L10.3047 11.9999V13.5651L12.0003 14.6086L13.696 13.5651V11.9999L12.0003 11.2173Z" fill="#0052B4"/>
<path d="M10.3047 10.4348H13.696V12H10.3047V10.4348Z" fill="#D80027"/>
</g>
<defs>
<clipPath id="clip0_1408_3091">
<rect width="24" height="24" fill="white"/>
</clipPath>
</defs>
</svg>
