<svg width="24" height="24" viewBox="0 0 24 24" fill="none" xmlns="http://www.w3.org/2000/svg">
<g clip-path="url(#clip0_766_3754)">
<path d="M12 24C13.4679 24 14.874 23.736 16.1739 23.2536L16.6957 12L16.1739 0.746391C14.874 0.264047 13.4679 0 12 0C10.5322 0 9.12605 0.264047 7.82612 0.746391L7.30435 12L7.82607 23.2536C9.12605 23.736 10.5322 24 12 24Z" fill="#0052B4"/>
<path d="M0 12.0002C0 17.1598 3.2565 21.5583 7.82611 23.2538V0.746582C3.2565 2.4421 0 6.84061 0 12.0002Z" fill="#A2001D"/>
<path d="M16.1739 0.746582V23.2538C20.7435 21.5583 24 17.1598 24 12.0002C24 6.84061 20.7435 2.4421 16.1739 0.746582Z" fill="#A2001D"/>
<path d="M5.73917 12H6.78265V16.1739H5.73917V12Z" fill="#FFDA44"/>
<path d="M1.56522 12H2.6087V16.1739H1.56522V12Z" fill="#FFDA44"/>
<path d="M4.17392 14.6085C4.75022 14.6085 5.2174 14.1413 5.2174 13.565C5.2174 12.9887 4.75022 12.5215 4.17392 12.5215C3.59762 12.5215 3.13043 12.9887 3.13043 13.565C3.13043 14.1413 3.59762 14.6085 4.17392 14.6085Z" fill="#FFDA44"/>
<path d="M4.17391 10.4346C4.46205 10.4346 4.69563 10.201 4.69563 9.91283C4.69563 9.62469 4.46205 9.39111 4.17391 9.39111C3.88577 9.39111 3.65219 9.62469 3.65219 9.91283C3.65219 10.201 3.88577 10.4346 4.17391 10.4346Z" fill="#FFDA44"/>
<path d="M3.13046 15.1304H5.21743V16.1739H3.13046V15.1304Z" fill="#FFDA44"/>
<path d="M3.13046 10.9565H5.21743V12H3.13046V10.9565Z" fill="#FFDA44"/>
<path d="M4.17391 6.26074L4.54347 7.39793H5.73916L4.77189 8.10077L5.14117 9.23796L4.17391 8.53512L3.20669 9.23796L3.57597 8.10077L2.6087 7.39793H3.80439L4.17391 6.26074Z" fill="#FFDA44"/>
</g>
<defs>
<clipPath id="clip0_766_3754">
<rect width="24" height="24" fill="white"/>
</clipPath>
</defs>
</svg>
