<svg width="24" height="24" viewBox="0 0 24 24" fill="none" xmlns="http://www.w3.org/2000/svg">
<g clip-path="url(#clip0_763_6875)">
<path d="M12 24C18.6274 24 24 18.6274 24 12C24 5.37258 18.6274 0 12 0C5.37258 0 0 5.37258 0 12C0 18.6274 5.37258 24 12 24Z" fill="#D80027"/>
<path d="M19.0916 9.84787H13.6741L12 4.69556L10.3259 9.84787H4.90837L9.29123 13.0322L7.61709 18.1846L12 15.0003L16.3829 18.1847L14.7088 13.0322L19.0916 9.84787ZM10.5179 12.6336L11.084 10.8913H12.9159L13.4821 12.6336V12.6336L12 13.7104L10.5179 12.6336L10.5179 12.6336ZM12.5769 9.84787H11.4231L12 8.07224L12.5769 9.84787ZM14.3697 11.9887L14.0131 10.8914H15.8801L14.3697 11.9887ZM9.98686 10.8914L9.63028 11.9887L8.11982 10.8914H9.98686ZM9.60192 15.4528L10.1789 13.6772L11.1124 14.3554L9.60192 15.4528ZM12.8876 14.3554L13.8211 13.6772L14.3981 15.4528L12.8876 14.3554Z" fill="#FFDA44"/>
</g>
<defs>
<clipPath id="clip0_763_6875">
<rect width="24" height="24" fill="white"/>
</clipPath>
</defs>
</svg>
