<svg width="24" height="24" viewBox="0 0 24 24" fill="none" xmlns="http://www.w3.org/2000/svg">
<g clip-path="url(#clip0_766_3379)">
<path d="M12 24C18.6274 24 24 18.6274 24 12C24 5.37258 18.6274 0 12 0C5.37258 0 0 5.37258 0 12C0 18.6274 5.37258 24 12 24Z" fill="#F0F0F0"/>
<path d="M6.48614 16.6956L3.51511 20.4848C5.68654 22.6565 8.68622 23.9999 12 23.9999C16.9608 23.9999 21.2177 20.9892 23.0452 16.6956H6.48614Z" fill="#FFDA44"/>
<path d="M23.0639 7.3478C21.2466 3.03103 16.9776 0 12 0C8.68621 0 5.68654 1.34339 3.51511 3.51511L6.52026 7.3478H23.0639Z" fill="#496E2D"/>
<path d="M2.60869 8.82617V15.1305H23.5867C23.8558 14.1325 24 13.0832 24 12.0001C24 10.9012 23.852 9.83717 23.5753 8.82617H2.60869Z" fill="black"/>
<path d="M3.5147 3.51465C-1.17159 8.20093 -1.17159 15.7989 3.5147 20.4853C5.45124 18.5487 7.31373 16.6862 12 12L3.5147 3.51465Z" fill="#A2001D"/>
<path d="M4.85672 8.86963L5.63367 11.261H8.14833L6.11404 12.7391L6.89095 15.1305L4.85672 13.6525L2.82239 15.1305L3.59948 12.7391L1.5652 11.261H4.07967L4.85672 8.86963Z" fill="#FFDA44"/>
<path d="M2.58315 12H7.13115V14.087H2.58315V12Z" fill="#F0F0F0"/>
<path d="M7.99219 9.60754L7.25433 8.86963L4.85677 11.2672L2.4592 8.86963L1.72134 9.60754L4.12102 12.0029L1.72134 14.4027L2.4592 15.1305L4.85677 12.7373L7.25433 15.1305L7.99219 14.4027L5.59252 12.0029L7.99219 9.60754Z" fill="black"/>
</g>
<defs>
<clipPath id="clip0_766_3379">
<rect width="24" height="24" fill="white"/>
</clipPath>
</defs>
</svg>
