<svg width="24" height="24" viewBox="0 0 24 24" fill="none" xmlns="http://www.w3.org/2000/svg">
<g clip-path="url(#clip0_766_3767)">
<path d="M12 24C18.6274 24 24 18.6274 24 12C24 5.37258 18.6274 0 12 0C5.37258 0 0 5.37258 0 12C0 18.6274 5.37258 24 12 24Z" fill="#F0F0F0"/>
<path d="M23.9296 13.3046L23.9293 13.3042L23.9292 13.3046H23.9296Z" fill="#0052B4"/>
<path d="M23.9292 13.3045C23.9292 13.3044 23.9293 13.3043 23.9293 13.3041L10.7693 0.0625C10.1757 0.123016 9.59475 0.226797 9.02986 0.370656C3.83897 1.6923 0 12.0001 0 12.0001C0 12.0001 16.7999 23.2424 18.7165 21.9453C19.1 21.6858 19.4677 21.4047 19.8177 21.1038L12.0185 13.3045H23.9292Z" fill="#0052B4"/>
<path d="M20.8695 12.0001L9.19898 0.32959C3.92287 1.59132 0 6.33723 0 12.0001C0 18.6275 5.37262 24.0001 12 24.0001C14.5139 24.0001 16.8467 23.2266 18.7748 21.9053L8.86955 12.0001H20.8695Z" fill="#D80027"/>
<path d="M11.4127 17.7186L9.94719 17.0292L10.7276 15.6099L9.13621 15.9144L8.93455 14.3066L7.8261 15.4891L6.71764 14.3066L6.51594 15.9144L4.92458 15.6099L5.705 17.0292L4.23941 17.7186L5.705 18.4079L4.92458 19.8273L6.51604 19.5228L6.7176 21.1305L7.8261 19.948L8.93455 21.1305L9.13621 19.5228L10.7276 19.8273L9.94714 18.408L11.4127 17.7186Z" fill="#F0F0F0"/>
<path d="M10.4348 6.65539L9.36886 6.15406L9.93647 5.12173L8.77899 5.34317L8.63231 4.17383L7.82611 5.03384L7.01991 4.17383L6.87319 5.34317L5.7157 5.12173L6.28336 6.15406L5.21738 6.65539L7.82611 7.1772L10.4348 6.65539Z" fill="#F0F0F0"/>
<path d="M10.9565 6.65527C10.9565 8.38416 9.55493 9.78573 7.82604 9.78573C6.09715 9.78573 4.69559 8.38416 4.69559 6.65527" fill="#F0F0F0"/>
</g>
<defs>
<clipPath id="clip0_766_3767">
<rect width="24" height="24" fill="white"/>
</clipPath>
</defs>
</svg>
