<svg width="24" height="24" viewBox="0 0 24 24" fill="none" xmlns="http://www.w3.org/2000/svg">
<g clip-path="url(#clip0_766_3388)">
<path d="M1.19072 6.78274C0.427875 8.36037 0 10.1302 0 12.0001C0 13.87 0.427875 15.6399 1.19072 17.2175L12 18.261L22.8093 17.2175C23.5721 15.6399 24 13.87 24 12.0001C24 10.1302 23.5721 8.36037 22.8093 6.78274L12 5.73926L1.19072 6.78274Z" fill="#F0F0F0"/>
<path d="M1.19115 17.2173C3.13205 21.2312 7.24248 23.9999 12 23.9999C16.7575 23.9999 20.868 21.2312 22.8089 17.2173H1.19115Z" fill="#6DA544"/>
<path d="M1.19115 6.78263H22.8089C20.868 2.76867 16.7575 0 12 0C7.24252 0 3.13205 2.76867 1.19115 6.78263Z" fill="#FF9811"/>
<path d="M12 16.174C14.3052 16.174 16.1739 14.3052 16.1739 12.0001C16.1739 9.69489 14.3052 7.82617 12 7.82617C9.69483 7.82617 7.82611 9.69489 7.82611 12.0001C7.82611 14.3052 9.69483 16.174 12 16.174Z" fill="#FF9811"/>
</g>
<defs>
<clipPath id="clip0_766_3388">
<rect width="24" height="24" fill="white"/>
</clipPath>
</defs>
</svg>
