<svg width="24" height="24" viewBox="0 0 24 24" fill="none" xmlns="http://www.w3.org/2000/svg">
<g clip-path="url(#clip0_766_3777)">
<path d="M20.4853 20.4853C15.799 25.1715 8.20105 25.1715 3.51467 20.4853C-1.17161 15.799 -1.17161 8.20097 3.51472 3.51464C8.201 -1.17164 15.0611 -0.433783 19.7474 4.25255C24.4336 8.93883 25.1715 15.799 20.4853 20.4853Z" fill="black"/>
<path d="M3.51474 3.51467C8.20102 -1.17161 15.7989 -1.17152 20.4853 3.51472C25.1716 8.201 25.1716 15.799 20.4853 20.4853" fill="#A2001D"/>
<path d="M9.1707 16.1738L9.36495 16.7717H9.99359L9.485 17.1412L9.67929 17.7391L9.1707 17.3696L8.66211 17.7391L8.85636 17.1412L8.34781 16.7717H8.9764L9.1707 16.1738Z" fill="#F0F0F0"/>
<path d="M7.56519 10.4346L7.88905 11.431H8.93671L8.08907 12.0468L8.41284 13.0433L7.56519 12.4274L6.7176 13.0433L7.04141 12.0468L6.19373 11.431H7.24148L7.56519 10.4346Z" fill="#F0F0F0"/>
<path d="M7.56519 17.7388L7.88896 18.7352H8.93671L8.08898 19.351L8.41284 20.3475L7.56519 19.7316L6.7176 20.3475L7.04132 19.351L6.19373 18.7352H7.24133L7.56519 17.7388Z" fill="#F0F0F0"/>
<path d="M10.6285 13.0435L10.9523 14.0399H12L11.1523 14.6557L11.4761 15.6521L10.6285 15.0363L9.78088 15.6521L10.1047 14.6557L9.25705 14.0399H10.3048L10.6285 13.0435Z" fill="#F0F0F0"/>
<path d="M4.50187 13.0435L4.82573 14.0399H5.87334L5.02575 14.6557L5.34946 15.6521L4.50187 15.0363L3.65423 15.6521L3.97809 14.6557L3.1304 14.0399H4.17811L4.50187 13.0435Z" fill="#F0F0F0"/>
<path d="M20.0883 8.88575C19.552 8.34945 18.8551 8.03262 18.1063 7.9782L20.3478 6.23478C19.4551 5.34205 18.2586 4.93887 17.091 5.02414C16.9512 4.52183 16.6847 4.04736 16.2897 3.65234L15.4043 5.42319C15.3462 5.31734 15.2727 5.21773 15.183 5.12806C14.6735 4.61867 13.8477 4.61867 13.3383 5.12806C12.829 5.63745 12.8289 6.4633 13.3383 6.97269C13.428 7.06236 13.5277 7.13591 13.6335 7.19403L11.8627 8.07945C12.2578 8.47461 12.7326 8.74128 13.2352 8.88097C13.1496 10.0485 13.5524 11.2449 14.4452 12.1377L16.4036 9.61962C16.5509 9.47455 16.7455 9.39444 16.9525 9.39444C17.1616 9.39444 17.3581 9.47581 17.5059 9.6237C17.6537 9.7715 17.7351 9.96805 17.7351 10.1771C17.7351 10.3861 17.6537 10.5826 17.5059 10.7305L18.2438 11.4684C18.5886 11.1235 18.7786 10.6649 18.7786 10.1771C18.7786 9.77802 18.6513 9.39861 18.4163 9.08492C18.7587 9.17637 19.0824 9.35553 19.3505 9.6237C20.1643 10.4374 20.1643 11.7614 19.3505 12.5751L20.0884 13.313C20.6797 12.7217 21.0053 11.9356 21.0053 11.0994C21.0052 10.2631 20.6795 9.47703 20.0883 8.88575Z" fill="#FFDA44"/>
</g>
<defs>
<clipPath id="clip0_766_3777">
<rect width="24" height="24" fill="white"/>
</clipPath>
</defs>
</svg>
