<svg width="24" height="24" viewBox="0 0 24 24" fill="none" xmlns="http://www.w3.org/2000/svg">
<g clip-path="url(#clip0_766_3795)">
<path d="M12 24C18.6274 24 24 18.6274 24 12C24 5.37258 18.6274 0 12 0C5.37258 0 0 5.37258 0 12C0 18.6274 5.37258 24 12 24Z" fill="#F0F0F0"/>
<path d="M12 0V12L3.51469 20.4853C5.68627 22.6568 8.68627 24 12 24C18.6274 24 24 18.6274 24 12C24 5.37262 12 0 12 0Z" fill="#D80027"/>
<path d="M12 0C8.68627 0 5.68627 1.34316 3.51469 3.51469C6.45891 6.45891 7.50408 7.50412 12 12H24C24 5.37262 18.6274 0 12 0Z" fill="#0052B4"/>
<path d="M8.21677 12.0003L6.75127 11.3109L7.53169 9.8916L5.94028 10.1961L5.73863 8.58838L4.63013 9.77075L3.52167 8.58838L3.31997 10.1961L1.72861 9.89155L2.50903 11.3109L1.04349 12.0003L2.50903 12.6896L1.72861 14.1089L3.32011 13.8045L3.52163 15.4122L4.63013 14.2298L5.73863 15.4122L5.94028 13.8045L7.5316 14.109L6.75122 12.6897L8.21677 12.0003Z" fill="#FFDA44"/>
<path d="M3.2003 4.6958L3.68799 5.3775L4.48697 5.12443L3.98925 5.79886L4.47694 6.48057L3.68166 6.21568L3.18399 6.89007L3.19022 6.05194L2.39499 5.787L3.19411 5.53393L3.2003 4.6958Z" fill="#FFDA44"/>
<path d="M3.2003 17.1104L3.68799 17.7921L4.48697 17.5389L3.98925 18.2134L4.47694 18.8951L3.68166 18.6302L3.18399 19.3046L3.19022 18.4665L2.39499 18.2016L3.19411 17.9485L3.2003 17.1104Z" fill="#FFDA44"/>
<path d="M10.1562 10.9028L9.66858 11.5845L8.86955 11.3314L9.36727 12.0058L8.87958 12.6876L9.67487 12.4227L10.1726 13.0971L10.1663 12.259L10.9615 11.994L10.1625 11.741L10.1562 10.9028Z" fill="#FFDA44"/>
</g>
<defs>
<clipPath id="clip0_766_3795">
<rect width="24" height="24" fill="white"/>
</clipPath>
</defs>
</svg>
