<svg width="24" height="24" viewBox="0 0 24 24" fill="none" xmlns="http://www.w3.org/2000/svg">
<g clip-path="url(#clip0_766_3804)">
<path d="M24 12C24 18.6274 18.6274 24 12 24C5.37262 24 0 18.6274 0 12C4.12172 7.87828 7.61737 4.38263 12 0C18.6274 0 24 5.37262 24 12Z" fill="#D80027"/>
<path d="M12 12C12 5.37262 12 4.59131 12 0C5.37262 0 0 5.37262 0 12H12Z" fill="#0052B4"/>
<path d="M9.61191 7.82617L9.8062 8.42406H10.4348L9.9262 8.79348L10.1205 9.39138L9.61191 9.02186L9.10331 9.39138L9.29761 8.79348L8.78902 8.42406H9.41761L9.61191 7.82617Z" fill="#F0F0F0"/>
<path d="M6.4546 3.13037L6.77836 4.12689H7.82611L6.97843 4.74259L7.30229 5.73906L6.4546 5.12317L5.60696 5.73906L5.93077 4.74259L5.08313 4.12689H6.13079L6.4546 3.13037Z" fill="#F0F0F0"/>
<path d="M9.58505 4.17383L9.90881 5.17039H10.9565L10.1089 5.78609L10.4326 6.78256L9.58505 6.16667L8.7374 6.78256L9.06122 5.78609L8.21358 5.17039H9.26123L9.58505 4.17383Z" fill="#F0F0F0"/>
<path d="M7.1106 8.34766L7.43442 9.34417H8.48207L7.63443 9.95987L7.95825 10.9563L7.1106 10.3405L6.26296 10.9563L6.58678 9.95987L5.73914 9.34417H6.78684L7.1106 8.34766Z" fill="#F0F0F0"/>
<path d="M4.36762 5.73926L4.69144 6.73577H5.73914L4.89145 7.35148L5.21526 8.34795L4.36762 7.7321L3.52003 8.34795L3.84379 7.35148L2.9962 6.73577H4.04386L4.36762 5.73926Z" fill="#F0F0F0"/>
</g>
<defs>
<clipPath id="clip0_766_3804">
<rect width="24" height="24" fill="white"/>
</clipPath>
</defs>
</svg>
