<svg width="24" height="24" viewBox="0 0 24 24" fill="none" xmlns="http://www.w3.org/2000/svg">
<g clip-path="url(#clip0_763_6976)">
<path d="M24 12C24 18.6274 18.6274 24 12 24C5.37262 24 0 18.6274 0 12C0.521719 12 12 10.4348 12 10.4348L24 12Z" fill="#338AF3"/>
<path d="M0 12C0 5.37262 5.37262 0 12 0C18.6274 0 24 5.37262 24 12" fill="#F0F0F0"/>
<path d="M16.7633 8.28027L12 13.0436L7.23675 8.28027C6.62077 9.19466 6.26091 10.2952 6.26091 11.4783V13.0435C6.26091 15.5568 7.88489 17.6977 10.1385 18.4726C9.83771 19.0621 9.88843 19.7978 10.3292 20.3479C10.9146 19.8787 11.5206 19.393 12.0347 18.9811C12.5489 19.3931 13.155 19.8787 13.7403 20.3479C14.1862 19.7914 14.2333 19.0446 13.9206 18.4517C16.1434 17.66 17.7391 15.5347 17.7391 13.0435V11.4784C17.7391 10.2952 17.3792 9.19471 16.7633 8.28027V8.28027Z" fill="#6DA544"/>
<path d="M12 17.2174C9.69849 17.2174 7.82611 15.345 7.82611 13.0435V11.4783C7.82611 9.17682 9.69853 7.30444 12 7.30444C14.3015 7.30444 16.1739 9.17687 16.1739 11.4783V13.0435C16.1739 15.345 14.3015 17.2174 12 17.2174Z" fill="#FFDA44"/>
<path d="M14.6087 13.0435V11.4783C14.6087 10.0399 13.4384 8.86963 12 8.86963C10.5616 8.86963 9.39131 10.0399 9.39131 11.4783V13.0435L12 13.5652L14.6087 13.0435Z" fill="#338AF3"/>
<path d="M9.39131 13.0435C9.39131 14.4819 10.5616 15.6521 12 15.6521C13.4384 15.6521 14.6087 14.4819 14.6087 13.0435H9.39131Z" fill="#6DA544"/>
<path d="M15.1305 7.30427C15.1305 6.43985 14.4297 5.73907 13.5653 5.73907C13.1642 5.73907 12.7988 5.89001 12.5218 6.13793V5.2173H13.0435V4.17382H12.5218V3.6521H11.4783V4.17382H10.9566V5.2173H11.4783V6.13793C11.2013 5.89001 10.8358 5.73907 10.4348 5.73907C9.57038 5.73907 8.8696 6.43985 8.8696 7.30427C8.8696 7.76772 9.07121 8.18397 9.39132 8.47061V9.39124H14.6087V8.47061C14.9288 8.18397 15.1305 7.76772 15.1305 7.30427V7.30427Z" fill="#FFDA44"/>
</g>
<defs>
<clipPath id="clip0_763_6976">
<rect width="24" height="24" fill="white"/>
</clipPath>
</defs>
</svg>
