<svg width="24" height="24" viewBox="0 0 24 24" fill="none" xmlns="http://www.w3.org/2000/svg">
<g clip-path="url(#clip0_766_3404)">
<path d="M17.2174 1.19072C15.6397 0.427875 13.8698 0 12 0C10.1302 0 8.36025 0.427875 6.78262 1.19072L5.73914 12L6.78262 22.8093C8.36025 23.5721 10.1302 24 12 24C13.8698 24 15.6397 23.5721 17.2174 22.8093L18.2609 12L17.2174 1.19072Z" fill="#FFDA44"/>
<path d="M11.9999 7.82568L13.0358 11.0141H16.3887L13.6763 12.9849L14.7123 16.1735L11.9999 14.2028L9.28749 16.1735L10.3237 12.9849L7.61128 11.0141H10.9639L11.9999 7.82568Z" fill="#496E2D"/>
<path d="M6.78263 1.19092C2.76872 3.13187 0 7.24229 0 11.9998C0 16.7573 2.76872 20.8677 6.78263 22.8086V1.19092Z" fill="#496E2D"/>
<path d="M17.2174 1.19092V22.8086C21.2313 20.8677 24 16.7573 24 11.9998C24 7.24229 21.2313 3.13187 17.2174 1.19092Z" fill="#D80027"/>
</g>
<defs>
<clipPath id="clip0_766_3404">
<rect width="24" height="24" fill="white"/>
</clipPath>
</defs>
</svg>
