<svg width="24" height="24" viewBox="0 0 24 24" fill="none" xmlns="http://www.w3.org/2000/svg">
<g clip-path="url(#clip0_766_3813)">
<path d="M12 24C18.6274 24 24 18.6274 24 12C24 5.37258 18.6274 0 12 0C5.37258 0 0 5.37258 0 12C0 18.6274 5.37258 24 12 24Z" fill="#F0F0F0"/>
<path d="M0 12C0 5.37263 5.37262 0 12 0C18.6274 0 24 5.37263 24 12" fill="#D80027"/>
<path d="M7.30434 6.26101C7.30434 4.51267 8.53307 3.05214 10.1739 2.69378C9.9217 2.63875 9.66009 2.60889 9.39126 2.60889C7.37418 2.60889 5.73909 4.24398 5.73909 6.26106C5.73909 8.27814 7.37418 9.91323 9.39126 9.91323C9.66 9.91323 9.92165 9.88337 10.1739 9.82829C8.53307 9.46993 7.30434 8.0094 7.30434 6.26101Z" fill="#F0F0F0"/>
<path d="M12 2.86963L12.259 3.66674H13.0972L12.4191 4.15944L12.6781 4.95655L12 4.46394L11.3219 4.95655L11.5809 4.15944L10.9028 3.66674H11.741L12 2.86963Z" fill="#F0F0F0"/>
<path d="M9.96679 4.43506L10.2258 5.23221H11.0639L10.3859 5.72487L10.6449 6.52198L9.96679 6.02937L9.2886 6.52198L9.54768 5.72487L8.86954 5.23221H9.70771L9.96679 4.43506Z" fill="#F0F0F0"/>
<path d="M14.0332 4.43506L14.2923 5.23221H15.1304L14.4523 5.72487L14.7114 6.52198L14.0332 6.02937L13.3552 6.52198L13.6142 5.72487L12.9361 5.23221H13.7742L14.0332 4.43506Z" fill="#F0F0F0"/>
<path d="M13.2507 6.78271L13.5097 7.57987H14.3478L13.6697 8.07253L13.9288 8.86964L13.2507 8.37703L12.5726 8.86964L12.8316 8.07253L12.1535 7.57987H12.9916L13.2507 6.78271Z" fill="#F0F0F0"/>
<path d="M10.7494 6.78271L11.0083 7.57987H11.8466L11.1684 8.07253L11.4275 8.86964L10.7494 8.37703L10.0712 8.86964L10.3303 8.07253L9.65216 7.57987H10.4903L10.7494 6.78271Z" fill="#F0F0F0"/>
</g>
<defs>
<clipPath id="clip0_766_3813">
<rect width="24" height="24" fill="white"/>
</clipPath>
</defs>
</svg>
