<svg width="24" height="24" viewBox="0 0 24 24" fill="none" xmlns="http://www.w3.org/2000/svg">
<g clip-path="url(#clip0_766_3823)">
<path d="M12 24C18.6274 24 24 18.6274 24 12C24 5.37258 18.6274 0 12 0C5.37258 0 0 5.37258 0 12C0 18.6274 5.37258 24 12 24Z" fill="#F0F0F0"/>
<path d="M16.1739 12.0001C16.1739 13.0435 14.3052 15.6522 12 15.6522C9.69483 15.6522 7.82611 13.0435 7.82611 12.0001C7.82611 9.69484 9.69483 7.82617 12 7.82617C14.3052 7.82617 16.1739 9.69484 16.1739 12.0001Z" fill="#D80027"/>
<path d="M16.1739 12C16.1739 14.3052 14.3052 16.1739 12 16.1739C9.69483 16.1739 7.82611 14.3052 7.82611 12" fill="#0052B4"/>
<path d="M16.4238 15.6895L17.5304 14.5829L18.2682 15.3206L17.1616 16.4272L16.4238 15.6895Z" fill="black"/>
<path d="M14.5789 17.5337L15.6855 16.4271L16.4233 17.1648L15.3167 18.2714L14.5789 17.5337Z" fill="black"/>
<path d="M18.6372 17.9023L19.7438 16.7957L20.4815 17.5335L19.3749 18.6401L18.6372 17.9023Z" fill="black"/>
<path d="M16.7924 19.7471L17.899 18.6405L18.6367 19.3782L17.5301 20.4848L16.7924 19.7471Z" fill="black"/>
<path d="M17.5304 16.7959L18.637 15.6893L19.3748 16.427L18.2682 17.5336L17.5304 16.7959Z" fill="black"/>
<path d="M15.6861 18.6406L16.7927 17.534L17.5304 18.2718L16.4238 19.3784L15.6861 18.6406Z" fill="black"/>
<path d="M18.6421 8.3125L15.6911 5.36156L16.4289 4.62382L19.3798 7.57476L18.6421 8.3125Z" fill="black"/>
<path d="M15.6906 7.5752L14.584 6.4686L15.3217 5.73089L16.4283 6.83748L15.6906 7.5752Z" fill="black"/>
<path d="M17.5349 9.41992L16.4283 8.31332L17.166 7.57561L18.2726 8.68221L17.5349 9.41992Z" fill="black"/>
<path d="M17.9036 5.36133L16.797 4.25473L17.5347 3.51699L18.6413 4.62358L17.9036 5.36133Z" fill="black"/>
<path d="M19.7489 7.20654L18.6423 6.09994L19.3801 5.3622L20.4867 6.4688L19.7489 7.20654Z" fill="black"/>
<path d="M4.25412 16.7939L7.20506 19.7449L6.46732 20.4826L3.51638 17.5317L4.25412 16.7939Z" fill="black"/>
<path d="M7.2049 17.5312L8.31149 18.6378L7.57378 19.3756L6.46719 18.269L7.2049 17.5312Z" fill="black"/>
<path d="M5.3604 15.687L6.467 16.7936L5.72925 17.5314L4.62265 16.4248L5.3604 15.687Z" fill="black"/>
<path d="M6.46713 14.5801L9.41807 17.531L8.68033 18.2688L5.72939 15.3178L6.46713 14.5801Z" fill="black"/>
<path d="M7.20474 4.25244L4.2538 7.20338L3.51606 6.46564L6.467 3.5147L7.20474 4.25244Z" fill="black"/>
<path d="M8.31136 5.35938L5.36042 8.31032L4.62267 7.57257L7.57361 4.62163L8.31136 5.35938Z" fill="black"/>
<path d="M9.41899 6.46631L6.46805 9.41725L5.73034 8.67954L8.68128 5.7286L9.41899 6.46631Z" fill="black"/>
</g>
<defs>
<clipPath id="clip0_766_3823">
<rect width="24" height="24" fill="white"/>
</clipPath>
</defs>
</svg>
