<svg width="24" height="24" viewBox="0 0 24 24" fill="none" xmlns="http://www.w3.org/2000/svg">
<g clip-path="url(#clip0_766_3845)">
<path d="M4.68751e-05 2.08691H0V21.913H4.68751e-05V12V2.08691Z" fill="#FF9811"/>
<path d="M12 24C18.6274 24 24 18.6274 24 12C24 5.37257 18.6274 0 12 0C5.37257 0 0 5.37257 0 12C0 18.6274 5.37257 24 12 24Z" fill="#FFDA44"/>
<path d="M9.39137 2.08691H5.2366C5.05247 2.21277 4.87229 2.34379 4.69571 2.4794L3.65222 11.9999L4.69571 21.5204C4.87229 21.6561 5.05247 21.7871 5.2366 21.9129H9.39137V2.08691Z" fill="#FF9811"/>
<path d="M4.57764e-05 12.0001C4.57764e-05 15.8787 1.84074 19.327 4.69571 21.5206V2.47949C1.84074 4.67315 4.57764e-05 8.12138 4.57764e-05 12.0001Z" fill="#6DA544"/>
<path d="M19.3044 7.31543V7.61566L19.3151 7.61735L19.3044 7.31543Z" fill="#FFDA44"/>
<path d="M23.0436 15.1304H20.7826L19.8262 16.1739V18.2608H17.7392V17.2174H18.7827V15.1304H14.087V16.4347H13.0435V13.9489C12.7234 13.6623 12.5218 13.246 12.5218 12.7825V5.99995C12.5218 5.13553 13.2226 4.43475 14.087 4.43475V14.0869H16.174L16.89 13.4902C16.765 13.1923 16.6957 12.8651 16.6957 12.5217V10.9565H15.1305V7.82611H18.2609C18.2609 7.30439 19.0435 6.78263 19.0435 6.78263C19.0435 6.78263 19.8262 7.30435 19.8262 7.82611V8.60874V10.9566C20.4066 10.9635 21.3288 10.9484 22.3252 10.9566C22.0634 10.4991 21.9131 9.95621 21.9131 9.39137C21.9131 8.47069 22.3106 7.64297 22.9433 7.07016C22.0313 5.04914 20.576 3.32592 18.7635 2.08691H10.9566V21.913H18.7635C20.9676 20.4064 22.6433 18.184 23.4563 15.5807L23.0436 15.1304Z" fill="#A2001D"/>
</g>
<defs>
<clipPath id="clip0_766_3845">
<rect width="24" height="24" fill="white"/>
</clipPath>
</defs>
</svg>
