<svg width="24" height="24" viewBox="0 0 24 24" fill="none" xmlns="http://www.w3.org/2000/svg">
<g clip-path="url(#clip0_763_7072)">
<path d="M12 24C18.6274 24 24 18.6274 24 12C24 5.37258 18.6274 0 12 0C5.37258 0 0 5.37258 0 12C0 18.6274 5.37258 24 12 24Z" fill="#FFDA44"/>
<path d="M9.39136 10.4348H23.8984C23.1314 4.54697 18.0969 0 12 0C11.104 0 10.2313 0.0990469 9.39131 0.285234V10.4348H9.39136Z" fill="#0052B4"/>
<path d="M6.26086 10.4347V1.45898C2.96583 3.25683 0.607031 6.55453 0.101578 10.4347H6.26086V10.4347Z" fill="#0052B4"/>
<path d="M6.26081 13.5652H0.101578C0.607031 17.4454 2.96583 20.7431 6.26086 22.5409L6.26081 13.5652Z" fill="#0052B4"/>
<path d="M9.39131 13.5652V23.7147C10.2313 23.9009 11.104 24 12 24C18.0969 24 23.1314 19.453 23.8984 13.5652H9.39131V13.5652Z" fill="#0052B4"/>
</g>
<defs>
<clipPath id="clip0_763_7072">
<rect width="24" height="24" fill="white"/>
</clipPath>
</defs>
</svg>
