<svg width="24" height="24" viewBox="0 0 24 24" fill="none" xmlns="http://www.w3.org/2000/svg">
<g clip-path="url(#clip0_1408_3041)">
<path d="M12 24C18.6274 24 24 18.6274 24 12C24 5.37258 18.6274 0 12 0C5.37258 0 0 5.37258 0 12C0 18.6274 5.37258 24 12 24Z" fill="#F0F0F0"/>
<path d="M23.2536 7.82617H0.746391C0.264 9.12616 0 10.5322 0 12.0001C0 13.4679 0.264 14.874 0.746391 16.174H23.2537C23.736 14.874 24 13.4679 24 12.0001C24 10.5322 23.736 9.12616 23.2536 7.82617Z" fill="#0052B4"/>
<path d="M11.999 0C8.36188 0 5.10298 1.61831 2.90234 4.17389H21.0955C18.8949 1.61831 15.636 0 11.999 0Z" fill="#D80027"/>
<path d="M21.0956 19.8262H2.90234C5.10298 22.3818 8.36187 24.0001 11.999 24.0001C15.636 24.0001 18.8949 22.3818 21.0956 19.8262Z" fill="#D80027"/>
</g>
<defs>
<clipPath id="clip0_1408_3041">
<rect width="24" height="24" fill="white"/>
</clipPath>
</defs>
</svg>
