<svg width="24" height="24" viewBox="0 0 24 24" fill="none" xmlns="http://www.w3.org/2000/svg">
<g clip-path="url(#clip0_763_7122)">
<path d="M12 24C18.6274 24 24 18.6274 24 12C24 5.37258 18.6274 0 12 0C5.37258 0 0 5.37258 0 12C0 18.6274 5.37258 24 12 24Z" fill="#D80027"/>
<path d="M11.5087 9.80566L12.4933 11.1625L14.0878 10.6454L13.1017 12.0011L14.0861 13.3578L12.4921 12.8388L11.506 14.1944L11.5071 12.5181L9.91303 11.9991L11.5076 11.4821L11.5087 9.80566Z" fill="#F0F0F0"/>
<path d="M8.8216 15.3914C6.94866 15.3914 5.43028 13.873 5.43028 12.0001C5.43028 10.1272 6.94866 8.6088 8.8216 8.6088C9.40556 8.6088 9.95503 8.7565 10.4348 9.01642C9.68217 8.28039 8.65294 7.82617 7.51725 7.82617C5.21203 7.82617 3.34336 9.69489 3.34336 12.0001C3.34336 14.3052 5.21208 16.174 7.51725 16.174C8.65303 16.174 9.68222 15.7197 10.4348 14.9837C9.95503 15.2437 9.40556 15.3914 8.8216 15.3914Z" fill="#F0F0F0"/>
</g>
<defs>
<clipPath id="clip0_763_7122">
<rect width="24" height="24" fill="white"/>
</clipPath>
</defs>
</svg>
