<svg width="24" height="24" viewBox="0 0 24 24" fill="none" xmlns="http://www.w3.org/2000/svg">
<g clip-path="url(#clip0_763_7152)">
<path d="M12 24C18.6274 24 24 18.6274 24 12C24 5.37258 18.6274 0 12 0C5.37258 0 0 5.37258 0 12C0 18.6274 5.37258 24 12 24Z" fill="#F0F0F0"/>
<path d="M2.48063 4.69409C1.53802 5.92048 0.827251 7.334 0.413391 8.86958H6.65611L2.48063 4.69409Z" fill="#0052B4"/>
<path d="M23.5866 8.86953C23.1728 7.334 22.4619 5.92048 21.5194 4.69409L17.344 8.86953H23.5866Z" fill="#0052B4"/>
<path d="M0.413391 15.1304C0.827297 16.6659 1.53806 18.0794 2.48063 19.3058L6.65597 15.1304H0.413391Z" fill="#0052B4"/>
<path d="M19.3058 2.48061C18.0795 1.538 16.666 0.827236 15.1304 0.41333V6.656L19.3058 2.48061Z" fill="#0052B4"/>
<path d="M4.69416 21.5193C5.92055 22.4619 7.33407 23.1727 8.8696 23.5866V17.344L4.69416 21.5193Z" fill="#0052B4"/>
<path d="M8.86955 0.41333C7.33402 0.827236 5.9205 1.538 4.69416 2.48056L8.86955 6.65595V0.41333Z" fill="#0052B4"/>
<path d="M15.1305 23.5866C16.666 23.1727 18.0795 22.4619 19.3058 21.5194L15.1305 17.344V23.5866Z" fill="#0052B4"/>
<path d="M17.344 15.1304L21.5194 19.3058C22.4619 18.0795 23.1728 16.6659 23.5866 15.1304H17.344Z" fill="#0052B4"/>
<path d="M23.8984 10.4348H13.5653H13.5653V0.101578C13.0529 0.034875 12.5305 0 12 0C11.4694 0 10.9471 0.034875 10.4348 0.101578V10.4347V10.4347H0.101578C0.034875 10.9471 0 11.4695 0 12C0 12.5306 0.034875 13.0529 0.101578 13.5652H10.4347H10.4347V23.8984C10.9471 23.9651 11.4694 24 12 24C12.5305 24 13.0529 23.9652 13.5652 23.8984V13.5653V13.5653H23.8984C23.9651 13.0529 24 12.5306 24 12C24 11.4695 23.9651 10.9471 23.8984 10.4348Z" fill="#D80027"/>
<path d="M15.1305 15.1304L20.4853 20.4852C20.7315 20.239 20.9665 19.9817 21.1906 19.7148L16.6062 15.1304H15.1305V15.1304Z" fill="#D80027"/>
<path d="M8.86955 15.1306H8.86945L3.51469 20.4854C3.76087 20.7317 4.01826 20.9666 4.28508 21.1908L8.86955 16.6062V15.1306Z" fill="#D80027"/>
<path d="M8.86954 8.8696V8.86951L3.51473 3.51465C3.26845 3.76084 3.03351 4.01823 2.80936 4.28504L7.39387 8.86955H8.86954V8.8696Z" fill="#D80027"/>
<path d="M15.1305 8.86956L20.4853 3.51465C20.2391 3.26837 19.9817 3.03344 19.7149 2.80933L15.1305 7.39384V8.86956Z" fill="#D80027"/>
</g>
<defs>
<clipPath id="clip0_763_7152">
<rect width="24" height="24" fill="white"/>
</clipPath>
</defs>
</svg>
